<svg width="121" height="121" viewBox="0 0 121 121" fill="none" xmlns="http://www.w3.org/2000/svg">
<path d="M119.224 117.449H107.739V47.2404C107.739 46.2596 106.944 45.4644 105.963 45.4644H87.0204C86.0394 45.4644 85.2444 46.2596 85.2444 47.2404V117.449H71.7474V68.0778C71.7474 67.0971 70.9524 66.3018 69.9714 66.3018H51.0284C50.0474 66.3018 49.2523 67.0971 49.2523 68.0778V117.449H35.7554V77.5494C35.7554 76.5686 34.9604 75.7734 33.9794 75.7734H15.0364C14.0554 75.7734 13.2603 76.5686 13.2603 77.5494V117.448H1.776C0.795006 117.448 0 118.244 0 119.224C0 120.205 0.795006 121 1.776 121H119.224C120.205 121 121 120.205 121 119.224C121 118.244 120.205 117.449 119.224 117.449ZM32.2034 117.449H16.8121V79.3254H32.2034V117.449ZM68.1957 117.449H52.8044V69.8538H68.1957V117.449ZM104.188 117.449H88.7964V49.0164H104.188V117.449Z" fill="url(#paint0_linear)"/>
<path d="M115.33 1.39325C114.133 0.33663 112.54 -0.155641 110.956 0.0433471L95.8017 1.93775C92.7932 2.31375 90.594 5.13763 90.9704 8.14915C91.3507 11.1923 94.1349 13.3611 97.1821 12.9806L98.4186 12.8263C79.8184 34.3926 57.7059 45.5383 42.0804 51.1398C22.5973 58.1244 7.43285 58.7219 7.28514 58.7268C4.22163 58.8225 1.80447 61.3931 1.89711 64.4571C1.9888 67.483 4.43078 69.8531 7.45695 69.8531C7.5132 69.8531 7.56968 69.8524 7.62758 69.8505C8.30183 69.8302 24.3771 69.2626 45.5556 61.7161C57.4613 57.4736 68.6642 51.8417 78.8525 44.977C79.6659 44.4292 79.881 43.3251 79.3327 42.5119C78.7849 41.6982 77.6813 41.4834 76.8676 42.0315C66.9258 48.7304 55.9897 54.2276 44.3633 58.3704C23.7052 65.7313 8.1709 66.2806 7.52123 66.3002L7.45695 66.3011C6.36323 66.3011 5.48031 65.444 5.44722 64.3495C5.41366 63.2412 6.28808 62.3115 7.39693 62.2767C7.55196 62.2718 23.1491 61.6994 43.279 54.4831C60.1431 48.4376 84.3748 36.0935 104.045 11.6184C105.024 10.3999 103.989 8.54973 102.441 8.74375L96.7425 9.45605C95.7547 9.57823 94.7952 8.93092 94.5444 7.96623C94.2429 6.80539 95.054 5.61052 96.2427 5.46163L111.398 3.56723C112.581 3.41763 113.66 4.37405 113.66 5.56444V20.719C113.66 21.8287 112.757 22.7318 111.647 22.7318C110.537 22.7318 109.634 21.829 109.634 20.719V16.1247C109.634 15.399 109.165 14.7202 108.486 14.4638C107.785 14.1989 106.956 14.4213 106.482 15.0017C99.849 23.1293 92.2965 30.4838 84.0338 36.8608C83.2574 37.4602 83.1135 38.5754 83.7128 39.352C84.3121 40.1285 85.4279 40.272 86.204 39.6729C93.4013 34.118 100.073 27.8409 106.088 20.9697C106.219 23.9221 108.662 26.284 111.647 26.284C114.715 26.284 117.212 23.7877 117.212 20.7194V5.56491C117.211 3.9697 116.526 2.44893 115.33 1.39325Z" fill="url(#paint1_linear)"/>
<defs>
<linearGradient id="paint0_linear" x1="60.4999" y1="45.4644" x2="60.4999" y2="121" gradientUnits="userSpaceOnUse">
<stop stop-color="#61C3D9"/>
<stop offset="1" stop-color="#4C6BFD"/>
</linearGradient>
<linearGradient id="paint1_linear" x1="59.5531" y1="0" x2="59.5531" y2="69.8531" gradientUnits="userSpaceOnUse">
<stop stop-color="#61C3D9"/>
<stop offset="1" stop-color="#4C6BFD"/>
</linearGradient>
</defs>
</svg>
