<svg width="118" height="118" viewBox="0 0 118 118" fill="none" xmlns="http://www.w3.org/2000/svg">
<path d="M111.773 47.9056C115.547 45.0303 118 40.501 118 35.3995C118 26.7244 110.941 19.666 102.266 19.666C93.5914 19.666 86.533 26.7244 86.533 35.3995C86.533 40.0998 88.6157 44.3144 91.8941 47.1995H81.4471L68.2566 34.009C67.4876 33.24 66.2447 33.24 65.4757 34.009L57.609 41.8757C56.84 42.6447 56.84 43.8877 57.609 44.6566L75.3091 62.3567C75.6769 62.7265 76.1764 62.933 76.6996 62.933H92.433V76.6997H82.5996H58.7398L68.5024 62.0578L65.2299 59.8768L54.0139 76.6997H49.166V66.8663C49.166 65.7788 48.2869 64.8997 47.1993 64.8997H31.4659V57.0329C31.4659 52.8872 28.8778 49.3491 25.2394 47.9056C29.0135 45.0303 31.4659 40.501 31.4659 35.3995C31.4659 26.7244 24.4075 19.666 15.7325 19.666C7.05744 19.666 -0.000976562 26.7244 -0.000976562 35.3995C-0.000976562 40.501 2.45147 45.0303 6.22553 47.9056C2.58717 49.3491 -0.000976562 52.8872 -0.000976562 57.0329V84.5665C-0.000976562 89.9886 4.41029 94.3999 9.83243 94.3999V118H13.7658V94.3999H27.5325V116.033C27.5325 117.121 28.4117 118 29.4992 118H43.266C44.3536 118 45.2327 117.121 45.2327 116.033V86.5331C45.2327 84.3206 44.4991 82.2772 43.2621 80.6331H45.2327H47.1993H57.0328V114.067H49.166V118H68.8328V114.067H60.9661V80.6331H74.784C73.5352 82.2812 72.7662 84.3108 72.7662 86.5331V116.033C72.7662 117.121 73.6453 118 74.7329 118H88.4996C89.5872 118 90.4663 117.121 90.4663 116.033V94.3999H104.233V118H108.166V94.3999C113.589 94.3999 118 89.9886 118 84.5665V57.0329C118 52.8872 115.412 49.3491 111.773 47.9056ZM3.93238 35.3995C3.93238 28.8917 9.22472 23.5994 15.7325 23.5994C22.2402 23.5994 27.5325 28.8917 27.5325 35.3995C27.5325 41.9072 22.2402 47.1995 15.7325 47.1995C9.22472 47.1995 3.93238 41.9072 3.93238 35.3995ZM45.2327 76.6997H19.6658V60.9663H15.7325V78.6664C15.7325 79.754 16.6116 80.6331 17.6991 80.6331H35.3993C38.6522 80.6331 41.2993 83.2803 41.2993 86.5331V114.067H31.4659V92.4332C31.4659 91.3456 30.5868 90.4665 29.4992 90.4665H9.83243C6.57954 90.4665 3.93238 87.8194 3.93238 84.5665V57.0329C3.93238 53.7801 6.57954 51.1329 9.83243 51.1329H21.6325C24.8854 51.1329 27.5325 53.7801 27.5325 57.0329V66.8663C27.5325 67.9539 28.4117 68.833 29.4992 68.833H45.2327V76.6997ZM90.4663 35.3995C90.4663 28.8917 95.7587 23.5994 102.266 23.5994C108.774 23.5994 114.066 28.8917 114.066 35.3995C114.066 41.9072 108.774 47.1995 102.266 47.1995C95.7587 47.1995 90.4663 41.9072 90.4663 35.3995ZM114.066 84.5665C114.066 87.8194 111.419 90.4665 108.166 90.4665H88.4996C87.4121 90.4665 86.533 91.3456 86.533 92.4332V114.067H76.6996V86.5331C76.6996 83.2803 79.3467 80.6331 82.5996 80.6331H94.3997C95.4873 80.6331 96.3664 79.754 96.3664 78.6664V60.9663C96.3664 59.8787 95.4873 58.9996 94.3997 58.9996H77.5138L61.7803 43.2662L66.8661 38.1803L79.2425 50.5567C79.6102 50.9264 80.1098 51.1329 80.6329 51.1329H108.166C111.419 51.1329 114.066 53.7801 114.066 57.0329V84.5665Z" fill="url(#paint0_linear)"/>
<path d="M78.6668 0H39.3331C36.0803 0 33.4331 2.64715 33.4331 5.90004V21.6335C33.4331 24.8864 36.0803 27.5335 39.3331 27.5335H41.2998V39.3336C41.2998 40.1281 41.7777 40.8479 42.5133 41.1508C42.7571 41.2531 43.0128 41.3003 43.2665 41.3003C43.7778 41.3003 44.2813 41.0997 44.657 40.724L57.8475 27.5335H78.6668C81.9196 27.5335 84.5668 24.8864 84.5668 21.6335V5.90004C84.5668 2.64715 81.9196 0 78.6668 0ZM80.6334 21.6335C80.6334 22.7191 79.7524 23.6002 78.6668 23.6002H57.0333C56.5101 23.6002 56.0106 23.8067 55.6428 24.1764L45.2332 34.586V25.5668C45.2332 24.4793 44.3541 23.6002 43.2665 23.6002H39.3331C38.2475 23.6002 37.3665 22.7191 37.3665 21.6335V5.90004C37.3665 4.81443 38.2475 3.93336 39.3331 3.93336H78.6668C79.7524 3.93336 80.6334 4.81443 80.6334 5.90004V21.6335Z" fill="url(#paint1_linear)"/>
<path d="M53.0999 7.86768H41.2998V11.801H53.0999V7.86768Z" fill="url(#paint2_linear)"/>
<path d="M76.7 15.7334H41.2998V19.6668H76.7V15.7334Z" fill="url(#paint3_linear)"/>
<path d="M76.7 7.86768H57.0332V11.801H76.7V7.86768Z" fill="url(#paint4_linear)"/>
<defs>
<linearGradient id="paint0_linear" x1="58.9994" y1="19.666" x2="58.9994" y2="118" gradientUnits="userSpaceOnUse">
<stop stop-color="#61C3D9"/>
<stop offset="1" stop-color="#4C6BFD"/>
</linearGradient>
<linearGradient id="paint1_linear" x1="58.9999" y1="0" x2="58.9999" y2="41.3003" gradientUnits="userSpaceOnUse">
<stop stop-color="#61C3D9"/>
<stop offset="1" stop-color="#4C6BFD"/>
</linearGradient>
<linearGradient id="paint2_linear" x1="47.1998" y1="7.86768" x2="47.1998" y2="11.801" gradientUnits="userSpaceOnUse">
<stop stop-color="#61C3D9"/>
<stop offset="1" stop-color="#4C6BFD"/>
</linearGradient>
<linearGradient id="paint3_linear" x1="58.9999" y1="15.7334" x2="58.9999" y2="19.6668" gradientUnits="userSpaceOnUse">
<stop stop-color="#61C3D9"/>
<stop offset="1" stop-color="#4C6BFD"/>
</linearGradient>
<linearGradient id="paint4_linear" x1="66.8666" y1="7.86768" x2="66.8666" y2="11.801" gradientUnits="userSpaceOnUse">
<stop stop-color="#61C3D9"/>
<stop offset="1" stop-color="#4C6BFD"/>
</linearGradient>
</defs>
</svg>
