<svg width="143" height="107" viewBox="0 0 143 107" fill="none" xmlns="http://www.w3.org/2000/svg">
<path d="M50.9886 89.6611C49.8388 89.6611 48.9067 90.593 48.9067 91.743V102.707C48.9067 103.857 49.8388 104.789 50.9886 104.789C52.1383 104.789 53.0704 103.857 53.0704 102.707V91.743C53.0704 90.593 52.1383 89.6611 50.9886 89.6611Z" fill="url(#paint0_linear)"/>
<path d="M91.2874 89.6611C90.1377 89.6611 89.2056 90.593 89.2056 91.743V102.707C89.2056 103.857 90.1377 104.789 91.2874 104.789C92.4371 104.789 93.3692 103.857 93.3692 102.707V91.743C93.3692 90.593 92.4371 89.6611 91.2874 89.6611Z" fill="url(#paint1_linear)"/>
<path d="M131.738 82.3929L124.768 79.5963V77.8159C126.136 77.0553 127.365 76.0658 128.399 74.8977C132.808 75.4182 137.027 73.6581 139.758 70.117C142.582 66.4552 143.17 61.7362 141.33 57.4934L138.2 50.2759C137.964 49.7335 137.803 49.1614 137.718 48.5763C137.044 43.888 134.701 39.5978 131.121 36.4961C127.541 33.3942 122.961 31.6863 118.224 31.6863C113.488 31.6863 108.908 33.3942 105.328 36.4961C101.748 39.5978 99.4049 43.8877 98.7304 48.5763C98.646 49.1617 98.4842 49.7338 98.2488 50.2759L95.1188 57.4934C93.2791 61.7359 93.8667 66.455 96.691 70.117C99.107 73.2495 102.687 74.9952 106.532 74.9949C107.029 74.9949 107.53 74.9655 108.033 74.9063C108.971 75.9703 110.072 76.8866 111.297 77.616V79.596L104.327 82.3929C103.872 82.5752 103.429 82.7815 102.996 83.0096C101.647 80.5289 99.7219 78.3597 97.3258 76.7117L88.2466 70.4676C88.299 69.3209 87.8405 68.1659 86.9064 67.3735L83.2172 64.243C82.8674 63.946 82.4744 63.7217 82.0591 63.5693V59.3546C85.9588 56.5261 88.724 52.2286 89.5345 47.2794H89.7566C93.726 47.2794 96.9553 44.0501 96.9553 40.081C96.9553 38.3864 96.3651 36.8276 95.3817 35.5965L96.8698 25.0178C97.9423 17.3917 92.6181 10.266 85.0006 9.13293L84.7044 9.08908C82.2687 5.11363 78.4962 2.24543 73.9697 0.961916L73.4248 0.807306C67.4236 -0.894237 61.0044 0.121415 55.8132 3.59445C54.8575 4.23371 54.601 5.52666 55.2402 6.48208C55.8795 7.4375 57.1722 7.69425 58.1282 7.05472C62.3032 4.26174 67.4644 3.44484 72.289 4.81301L72.8339 4.96762C76.6214 6.04156 79.7305 8.54447 81.5886 12.0153C82.8669 14.4033 83.4312 17.0294 83.2683 19.6564L81.8571 18.4434C80.5672 17.3348 78.6705 17.3053 77.3475 18.374L75.4964 19.8693H64.9293C58.0724 19.8693 52.4936 25.448 52.4936 32.305V32.8832C51.9415 32.8852 51.4047 32.9512 50.8884 33.0714C48.5348 26.4457 49.1985 18.9805 52.736 12.8741C53.3122 11.879 52.973 10.6055 51.9782 10.029C50.9833 9.45298 49.7098 9.7919 49.1333 10.7867C44.8553 18.1719 44.1616 27.2517 47.2372 35.1982C46.0494 36.4823 45.3219 38.198 45.3219 40.081C45.3219 44.0501 48.5512 47.2794 52.5205 47.2794H52.7426C53.5531 52.2286 56.3183 56.5261 60.218 59.3546V63.5693C59.8028 63.7214 59.4097 63.946 59.0603 64.2427L55.3707 67.3735C54.4367 68.1659 53.9781 69.3212 54.0306 70.4676L44.9513 76.7117C43.1063 77.9805 41.5396 79.5582 40.3005 81.3494C39.4975 80.9059 38.6606 80.5267 37.794 80.2197L31.6296 78.0363V76.3955C34.7695 74.4556 37.0268 71.2218 37.6555 67.4434H38.587C42.2397 67.4434 45.2111 64.472 45.2111 60.8196C45.2111 59.1797 44.611 57.6786 43.6203 56.5205L43.992 52.1206C44.5086 45.7847 41.7439 39.7746 36.5963 36.0448C31.4486 32.3145 24.8764 31.5586 19.0162 34.0224L14.8667 35.767C8.44168 37.1854 4.14729 43.342 5.06468 49.8817L5.9929 56.4991C4.9914 57.66 4.38379 59.1697 4.38379 60.8196C4.38379 64.472 7.35525 67.4434 11.0079 67.4434H11.9394C12.5273 70.9767 14.54 74.0325 17.3663 76.0008V78.0363L11.2019 80.2194C10.3386 80.5253 9.48814 80.9084 8.67429 81.3586C7.66807 81.9149 7.30334 83.1814 7.8596 84.1877C8.23933 84.8747 8.9502 85.2624 9.68328 85.2624C10.0239 85.2624 10.3694 85.1786 10.6887 85.0021C11.3029 84.6623 11.9433 84.3736 12.5914 84.1441L17.9181 82.2574C18.9968 84.8283 21.5394 86.6387 24.4975 86.6387C27.4557 86.6387 29.9983 84.8283 31.0769 82.2574L36.4036 84.1444C37.0737 84.3814 37.7205 84.6765 38.3403 85.0229C37.5134 87.1191 37.0701 89.3781 37.0701 91.6961V104.047C37.0701 105.197 38.0022 106.128 39.1519 106.128C40.3016 106.128 41.2337 105.197 41.2337 104.047V91.6961C41.2337 87.0783 43.5054 82.7593 47.3102 80.1425L55.9805 74.1796L59.5344 78.9312C60.2982 79.9527 61.496 80.5281 62.7315 80.5281C63.1162 80.5281 63.5048 80.4723 63.8848 80.3566L69.0563 78.7827V104.918C69.0563 106.068 69.9884 107 71.1382 107C72.2879 107 73.22 106.068 73.22 104.918V78.7827L78.3921 80.3568C78.7721 80.4723 79.1601 80.5281 79.5448 80.5281C80.7801 80.5281 81.9781 79.9524 82.742 78.9312L86.2955 74.1796L94.9659 80.1425C98.7709 82.7593 101.042 87.0783 101.042 91.6961V104.047C101.042 105.197 101.974 106.128 103.124 106.128C104.274 106.128 105.206 105.197 105.206 104.047V91.6961C105.206 90.0565 104.984 88.4462 104.562 86.9018C104.984 86.6556 105.422 86.4396 105.876 86.2576L111.921 83.8321C112.992 86.1371 115.328 87.7401 118.032 87.7401C120.737 87.7401 123.072 86.1374 124.143 83.8324L130.188 86.2576C134.011 87.7909 136.48 91.443 136.48 95.5614V99.0852C136.48 100.235 137.413 101.167 138.562 101.167C139.712 101.167 140.644 100.235 140.644 99.0852V95.5614C140.644 89.7323 137.148 84.5635 131.738 82.3929ZM49.4847 40.0808C49.4847 38.4164 50.8318 37.0618 52.4928 37.0471V43.1138C50.8321 43.0994 49.4847 41.7451 49.4847 40.0808ZM38.5865 63.2795H37.8348V58.3586H38.5865C39.9433 58.3586 41.0469 59.4625 41.0469 60.8191C41.0469 62.1756 39.9433 63.2795 38.5865 63.2795ZM8.54688 60.8193C8.54688 59.4625 9.65053 58.3589 11.0073 58.3589H11.759V63.2798H11.0073C9.6508 63.2795 8.54688 62.1758 8.54688 60.8193ZM14.2874 47.778C12.9065 49.6849 12.0715 51.8808 11.8326 54.195H11.0073C10.6254 54.195 10.2518 54.2294 9.8873 54.2916L9.18753 49.3027C8.5652 44.867 11.5164 40.6939 15.906 39.8021C16.0403 39.7749 16.1719 39.7344 16.2985 39.6811L20.6298 37.8599C25.1382 35.9643 30.1934 36.5464 34.153 39.4154C38.1127 42.285 40.2395 46.9078 39.8425 51.7753L39.631 54.2777C39.2907 54.2236 38.9421 54.1947 38.5865 54.1947H37.8165C37.6372 52.4296 36.1424 51.0473 34.3307 51.0473H29.19C25.5262 51.0473 21.9008 49.8279 18.9818 47.6142L18.3928 47.1676C17.7744 46.6985 16.9788 46.4947 16.2119 46.6091C15.4441 46.7234 14.7427 47.1495 14.2874 47.778ZM17.6597 50.2201C17.6592 50.2209 17.6589 50.2215 17.6586 50.222C17.6589 50.2215 17.6594 50.2209 17.6597 50.2201ZM15.9229 55.5806C15.9229 54.0751 16.2857 52.62 16.9805 51.3098C20.526 53.83 24.8365 55.2115 29.1902 55.2115H33.6712V65.2969C33.6712 70.1903 29.6902 74.1713 24.797 74.1713C19.9039 74.1713 15.9229 70.1903 15.9229 65.2969V55.5806ZM24.4973 82.475C22.8607 82.475 21.5294 81.1435 21.5294 79.5072V77.92C22.5739 78.1906 23.669 78.335 24.797 78.335C25.7114 78.335 26.6035 78.2395 27.4654 78.0593V79.5072C27.4654 81.1435 26.1339 82.475 24.4973 82.475ZM89.7827 43.1138V37.0471C91.4437 37.0616 92.7908 38.4164 92.7908 40.0808C92.7908 41.7451 91.4437 43.0994 89.7827 43.1138ZM92.7458 24.4371L91.5267 33.1031C90.9682 32.9612 90.3839 32.8849 89.7824 32.8827V32.7142C89.7824 29.3577 88.7443 26.1292 86.8643 23.4315C87.6839 20.2743 87.6551 17.0239 86.8065 13.9345C90.8278 15.6507 93.3815 19.919 92.7458 24.4371ZM56.6567 44.2563V32.3045C56.6567 27.743 60.3676 24.0324 64.9288 24.0324H76.2317C76.7077 24.0324 77.1693 23.8692 77.5396 23.5702L79.5473 21.9484L81.4124 23.5514C84.0857 25.8491 85.6188 29.1892 85.6188 32.7142V44.2561C85.6188 52.2411 79.1227 58.7372 71.1376 58.7372C63.1526 58.7372 56.6567 52.2411 56.6567 44.2563ZM71.1379 62.9012C73.5209 62.9012 75.7981 62.447 77.8949 61.6287V64.2963L71.1379 67.6094L64.3808 64.2963V61.6287C66.4774 62.4468 68.7549 62.9012 71.1379 62.9012ZM62.7928 76.3361L58.3083 70.3402L61.5829 67.5614L69.0558 71.2254V74.43L62.7928 76.3361ZM79.4827 76.3361L73.2197 74.4303V71.2257L80.6926 67.5617L83.9672 70.3405L79.4827 76.3361ZM99.9875 67.5742C98.1028 65.1304 97.7106 61.9815 98.9386 59.1503L102.069 51.9327C102.451 51.0511 102.714 50.1215 102.851 49.1695C103.944 41.5763 110.553 35.8502 118.224 35.8502C125.896 35.8502 132.505 41.5763 133.597 49.1695C133.734 50.1213 133.997 51.0509 134.38 51.9327L137.51 59.1503C138.737 61.9813 138.346 65.1304 136.461 67.5742C135.065 69.3834 133.087 70.4973 130.917 70.7646C131.365 69.5999 131.657 68.3583 131.765 67.0642C131.86 65.9184 131.008 64.9125 129.862 64.8176C128.717 64.7246 127.71 65.5748 127.615 66.7203C127.214 71.5632 123.089 75.3568 118.224 75.3568C113.026 75.3568 108.798 71.1283 108.798 65.9301V55.9431C108.798 53.7286 109.449 51.5508 110.65 49.7021C113.344 51.7584 116.664 52.9345 120.056 53.0242L127.651 53.2246V58.02C127.651 59.17 128.583 60.1018 129.733 60.1018C130.883 60.1018 131.815 59.17 131.815 58.02V52.6608C131.815 50.7028 130.281 49.1286 128.324 49.0773L120.166 48.8624C117.524 48.7925 114.941 47.8357 112.891 46.1688L112.354 45.7311C111.719 45.2151 110.922 44.9786 110.109 45.066C109.295 45.1529 108.566 45.5526 108.056 46.1908C105.849 48.9482 104.633 52.4118 104.633 55.944V65.9309C104.633 67.6316 104.95 69.259 105.523 70.7607C103.356 70.4915 101.381 69.3812 99.9875 67.5742ZM118.032 83.5762C116.614 83.5762 115.46 82.4226 115.46 81.0041V79.2374C116.353 79.4225 117.277 79.5208 118.224 79.5208C119.034 79.5208 119.829 79.4447 120.604 79.3048V81.0044C120.604 82.4226 119.45 83.5762 118.032 83.5762Z" fill="url(#paint2_linear)"/>
<path d="M4.46204 87.7779C3.42724 87.2758 2.18231 87.7094 1.681 88.7442C0.565701 91.0483 0 93.5127 0 96.0689V102.705C0 103.855 0.932102 104.787 2.08182 104.787C3.23155 104.787 4.16365 103.855 4.16365 102.705V96.0689C4.16365 94.1464 4.58917 92.2927 5.42884 90.5587C5.92987 89.5239 5.49713 88.2787 4.46204 87.7779Z" fill="url(#paint3_linear)"/>
<defs>
<linearGradient id="paint0_linear" x1="50.9886" y1="89.6611" x2="50.9886" y2="104.789" gradientUnits="userSpaceOnUse">
<stop stop-color="#61C3D9"/>
<stop offset="1" stop-color="#4C6BFD"/>
</linearGradient>
<linearGradient id="paint1_linear" x1="91.2874" y1="89.6611" x2="91.2874" y2="104.789" gradientUnits="userSpaceOnUse">
<stop stop-color="#61C3D9"/>
<stop offset="1" stop-color="#4C6BFD"/>
</linearGradient>
<linearGradient id="paint2_linear" x1="73.3851" y1="0" x2="73.3851" y2="107" gradientUnits="userSpaceOnUse">
<stop stop-color="#61C3D9"/>
<stop offset="1" stop-color="#4C6BFD"/>
</linearGradient>
<linearGradient id="paint3_linear" x1="2.81869" y1="87.5688" x2="2.81869" y2="104.787" gradientUnits="userSpaceOnUse">
<stop stop-color="#61C3D9"/>
<stop offset="1" stop-color="#4C6BFD"/>
</linearGradient>
</defs>
</svg>
