<svg width="141" height="141" viewBox="0 0 141 141" fill="none" xmlns="http://www.w3.org/2000/svg">
<path d="M0 59.129H5.11028L12.7268 63.1366C13.5841 62.6636 14.4758 62.2627 15.4374 62.0217L25.0183 59.6243V58.5349C20.7798 55.5767 18.1936 50.6896 18.1936 45.4839V41.5085C18.1936 32.6738 25.1161 25.2804 33.6243 25.0228C34.0563 25.0117 34.4816 25.0272 34.9091 25.0483L32.425 19.2329L44.4678 7.19347L51.5669 11.814C54.2642 10.2949 57.1169 9.11232 60.0796 8.28282L61.833 0H79.1648L80.9182 8.28504C83.8809 9.11454 86.7358 10.2972 89.4309 11.8163L96.53 7.19569L108.563 19.2285L106.121 25.0483C106.214 25.0439 106.303 25.0272 106.396 25.025C110.751 24.8984 114.853 26.4875 117.969 29.5123C121.09 32.535 122.806 36.5914 122.806 40.9355V45.4839C122.806 50.6896 120.222 55.5745 115.984 58.5327V59.6243L122.233 61.1867L133.561 54.5806H141V101.705L118.627 109.161H114.269L113.725 107.256L106.867 111.372C106.755 115.101 103.765 118.101 100.039 118.233C99.9079 121.943 96.9264 124.924 93.2164 125.055C93.0854 128.765 90.1038 131.747 86.3938 131.878C86.2583 135.674 83.1491 138.726 79.3214 138.726C77.9 138.726 76.5064 138.283 75.3349 137.493L73.3205 139.272C72.058 140.384 70.4323 141 68.7444 141H68.3235C64.5391 141 61.4599 137.941 61.4121 134.169C57.6688 134.121 54.6373 131.089 54.5895 127.346C50.844 127.298 47.8103 124.262 47.767 120.517C43.987 120.428 40.9355 117.34 40.9355 113.539C40.9355 113.31 40.9466 113.084 40.9699 112.857L0 92.3736V59.129ZM22.7419 41.5085V45.4839C22.7419 49.5203 24.9229 53.2914 28.4341 55.3246L29.5712 55.982L29.5623 63.1788L18.2002 66.0171L43.2097 79.1804V73.054C43.2097 69.997 44.4445 67.1975 46.4666 65.1288L38.6613 63.1788V55.9765L39.7962 55.3202C43.3052 53.2914 45.4839 49.5203 45.4839 45.4839V40.9355C45.4839 37.834 44.2579 34.9335 42.0293 32.7737C39.8028 30.615 36.849 29.4513 33.7609 29.5712C27.6856 29.7533 22.7419 35.109 22.7419 41.5085ZM67.0709 77.3925L77.3659 74.1023C82.0575 72.5987 87.1356 72.3744 91.9383 73.4382L93.2419 73.727V73.054C93.2419 69.9181 91.1154 67.1953 88.075 66.4335L75.0484 63.1788V55.9765L76.1833 55.3202C79.6923 53.2914 81.871 49.5203 81.871 45.4839V40.9355C81.871 37.834 80.645 34.9335 78.4164 32.7737C76.1899 30.615 73.2173 29.4513 70.148 29.5712C64.0727 29.7533 59.129 35.109 59.129 41.5085V45.4839C59.129 49.5203 61.31 53.2914 64.8212 55.3246L65.9583 55.982L65.9494 63.1788L52.925 66.4335C49.8846 67.1953 47.7581 69.9181 47.7581 73.054V81.5756L48.32 81.871H49.7136L63.6952 77.8756C64.7968 77.5635 65.9316 77.4358 67.0709 77.3925ZM92.7322 34.0374C88.4615 25.7623 79.8655 20.4677 70.5 20.4677C61.2233 20.4677 52.664 25.6913 48.361 33.8542C49.4437 36.0251 50.0323 38.4292 50.0323 40.9355V45.4839C50.0323 50.6896 47.4482 55.5745 43.2097 58.5327V59.6243L52.3064 61.9018L61.4054 59.6243V58.5349C57.1669 55.5767 54.5806 50.6896 54.5806 45.4839V41.5085C54.5806 32.6738 61.5032 25.2804 70.0114 25.0228C74.3643 24.8951 78.4686 26.4852 81.5845 29.5101C84.7026 32.535 86.4194 36.5914 86.4194 40.9355V45.4839C86.4194 50.6896 83.8353 55.5745 79.5968 58.5327V59.6243L88.6936 61.9018L97.7925 59.6243V58.5349C93.554 55.5767 90.9677 50.6896 90.9677 45.4839V41.5085C90.9677 38.8323 91.6118 36.2916 92.7322 34.0374ZM103.192 20.2834L95.9259 13.0178L89.5308 17.1797L88.3071 16.429C85.2412 14.5502 81.9276 13.1743 78.4597 12.3448L77.0605 12.0095L75.4781 4.54839H65.5197L63.9417 12.0073L62.5425 12.3415C59.0746 13.1721 55.761 14.548 52.6951 16.4268L51.4714 17.1775L45.0763 13.0155L37.8196 20.2745L40.3991 26.3142C42.1548 27.0693 43.7827 28.132 45.1996 29.5057C45.2929 29.5967 45.3728 29.6944 45.4639 29.7877C50.8218 21.2706 60.2939 15.9194 70.5 15.9194C80.7794 15.9194 90.2782 21.3206 95.6227 29.9243C97.053 28.4274 98.7542 27.2148 100.64 26.3675L103.192 20.2834ZM111.435 63.1788V55.9765L112.57 55.3202C116.079 53.2914 118.258 49.5203 118.258 45.4839V40.9355C118.258 37.834 117.032 34.9335 114.803 32.7737C112.577 30.615 109.617 29.4513 106.535 29.5712C100.46 29.7533 95.5161 35.109 95.5161 41.5085V45.4839C95.5161 49.5203 97.697 53.2914 101.208 55.3246L102.345 55.982L102.336 63.1788L94.5334 65.1288C96.5555 67.1975 97.7903 69.997 97.7903 73.054V74.7386L104.884 76.3154L104.7 75.6713L104.613 71.4683L116.607 64.4714L111.435 63.1788ZM136.452 59.129H134.794L118.438 68.6689L126.691 101.679L136.452 98.4244V59.129ZM117.889 104.613L122.366 103.122L114.348 71.0552L109.161 74.0801V74.7297L117.698 104.613H117.889ZM102.339 111.16C102.339 110.489 102.068 109.832 101.592 109.357L97.5949 105.359C97.1196 104.884 96.4622 104.613 95.7915 104.613C94.3857 104.613 93.2419 105.757 93.2419 107.162C93.2419 107.833 93.5129 108.491 93.9882 108.966L97.9858 112.963C98.461 113.439 99.1184 113.71 99.7891 113.71C101.195 113.71 102.339 112.566 102.339 111.16ZM95.5161 117.983C95.5161 117.312 95.2452 116.655 94.7699 116.179L90.7723 112.182C90.297 111.706 89.6396 111.435 88.9689 111.435C87.5631 111.435 86.4194 112.579 86.4194 113.985C86.4194 114.656 86.6903 115.313 87.1656 115.788L91.1632 119.786C91.6385 120.261 92.2958 120.532 92.9665 120.532C94.3724 120.532 95.5161 119.388 95.5161 117.983ZM88.6936 124.805C88.6936 124.135 88.4226 123.477 87.9473 123.002L83.9497 119.004C83.4745 118.529 82.8171 118.258 82.1464 118.258C80.7405 118.258 79.5968 119.402 79.5968 120.808C79.5968 121.478 79.8677 122.136 80.343 122.611L84.3406 126.609C84.8159 127.084 85.4733 127.355 86.144 127.355C87.5498 127.355 88.6936 126.211 88.6936 124.805ZM79.3214 134.177C80.7272 134.177 81.871 133.034 81.871 131.628C81.871 130.957 81.6 130.3 81.1247 129.824L77.1271 125.827C76.6519 125.352 75.9945 125.081 75.3238 125.081C73.918 125.081 72.7742 126.224 72.7742 127.63C72.7742 128.301 73.0451 128.958 73.5204 129.434L77.518 133.431C77.9933 133.906 78.6507 134.177 79.3214 134.177ZM68.3235 136.452H68.7444C69.324 136.452 69.8793 136.241 70.3112 135.858L72.0124 134.357L70.3046 132.649C69.6949 132.04 69.2219 131.315 68.8721 130.536L66.8044 132.257C66.2636 132.708 65.9516 133.372 65.9516 134.08C65.9516 135.388 67.0154 136.452 68.3235 136.452ZM47.9291 115.984H48.3222C48.8929 115.984 49.4504 115.782 49.8868 115.415L62.2194 105.138L65.1332 108.634L53.1571 118.612C52.6185 119.063 52.3064 119.727 52.3064 120.435C52.3064 121.743 53.3703 122.806 54.6784 122.806H55.1747C55.7266 122.806 56.2663 122.611 56.6916 122.256L69.0442 111.963L71.958 115.459L59.9819 125.438C59.4411 125.886 59.129 126.55 59.129 127.257C59.129 128.565 60.1928 129.629 61.5009 129.629C62.3738 129.629 63.2244 129.319 63.894 128.763L68.9698 124.532C70.088 122.247 72.3855 120.653 75.0761 120.558C75.2072 116.848 78.1887 113.866 81.8987 113.735C82.0298 110.025 85.0113 107.044 88.7213 106.913C88.8546 103.116 91.9638 100.065 95.7915 100.065C97.6604 100.065 99.4893 100.822 100.811 102.143L104.808 106.141C105.047 106.38 105.245 106.651 105.446 106.919L112.432 102.727L106.307 81.2935L90.9544 77.88C86.9268 76.9795 82.6805 77.1749 78.7528 78.4319L75.4026 79.5035L86.7603 85.1823C89.3554 86.4827 90.9677 89.0933 90.9677 91.996V92.4457C90.9677 96.6466 87.5498 100.065 83.349 100.065C81.9687 100.065 80.6106 99.6892 79.4302 98.9774L70.9619 93.8993C69.2607 92.8799 66.9777 93.1031 65.5085 94.4246L46.2934 111.718C45.7793 112.184 45.4839 112.846 45.4839 113.539C45.4839 114.888 46.5799 115.984 47.9291 115.984ZM4.54839 89.5619L42.8621 108.72C42.9865 108.588 43.1164 108.463 43.253 108.341L62.4648 91.0477C64.1482 89.5286 66.3247 88.6936 68.5923 88.6936C70.2502 88.6936 71.8781 89.1444 73.3039 89.9994L81.7755 95.0797C82.2507 95.3662 82.7938 95.5161 83.349 95.5161C85.0435 95.5161 86.4194 94.1403 86.4194 92.4457V91.996C86.4194 90.8245 85.7686 89.774 84.7226 89.251L72.0369 82.9081C69.8659 81.821 67.2886 81.5778 64.9489 82.2507L50.6574 86.3327L47.1962 86.4194L4.54839 63.9728V89.5619Z" fill="url(#paint0_linear)"/>
<defs>
<linearGradient id="paint0_linear" x1="70.5" y1="0" x2="70.5" y2="141" gradientUnits="userSpaceOnUse">
<stop stop-color="#61C3D9"/>
<stop offset="1" stop-color="#4C6BFD"/>
</linearGradient>
</defs>
</svg>
