<svg width="133" height="124" viewBox="0 0 133 124" fill="none" xmlns="http://www.w3.org/2000/svg">
<path d="M130.247 104.786H127.037V36.4382C127.037 29.4517 121.353 23.7676 114.366 23.7676H99.9351C98.8639 23.7676 97.9959 24.6356 97.9959 25.7068C97.9959 26.778 98.8639 27.6459 99.9351 27.6459H114.366C119.214 27.6459 123.159 31.5902 123.159 36.4382V104.786H79.8108C78.4875 104.786 77.2529 105.439 76.5088 106.533L75.9273 107.387C75.3869 108.181 74.491 108.655 73.5305 108.655H58.3969C57.4363 108.655 56.5404 108.181 56.0001 107.387L55.4188 106.533C54.6747 105.439 53.4403 104.786 52.1168 104.786H9.02751V36.4382C9.02751 31.5902 12.9718 27.6459 17.82 27.6459H30.3093C31.3805 27.6459 32.2485 26.778 32.2485 25.7068C32.2485 24.6356 31.3805 23.7676 30.3093 23.7676H17.82C10.8335 23.7676 5.14916 29.4514 5.14916 36.4382V104.786H1.93918C0.867975 104.786 0 105.654 0 106.725V110.762C0 118.062 5.93853 124 13.2379 124H118.948C126.248 124 132.186 118.062 132.186 110.762V106.725C132.186 105.654 131.318 104.786 130.247 104.786ZM128.308 110.762C128.308 115.923 124.109 120.122 118.948 120.122H13.2379C8.07706 120.122 3.87835 115.923 3.87835 110.762V108.664H52.1168C52.1551 108.664 52.1907 108.683 52.2125 108.715L52.794 109.569C54.0573 111.425 56.1516 112.534 58.3969 112.534H73.5305C75.7758 112.534 77.8701 111.425 79.1334 109.569L79.7149 108.715L79.7152 108.714C79.7366 108.683 79.7723 108.664 79.8106 108.664H128.308V110.762H128.308Z" fill="url(#paint0_linear)"/>
<path d="M13.4229 98.4516C13.4229 99.5228 14.2908 100.391 15.362 100.391H116.824C117.895 100.391 118.763 99.5228 118.763 98.4516V36.4385C118.763 34.014 116.791 32.0415 114.366 32.0415H99.935C98.8637 32.0415 97.9958 32.9095 97.9958 33.9807C97.9958 35.0519 98.8637 35.9199 99.935 35.9199H114.366C114.652 35.9199 114.885 36.1523 114.885 36.4385V96.5124H86.7548V88.5949C86.7548 84.3843 85.115 80.4258 82.1377 77.4482L79.6129 74.9234C80.5085 73.5344 81.2022 71.9927 81.641 70.3304C81.9143 69.2949 81.2964 68.234 80.2608 67.9605C79.2248 67.688 78.1647 68.3051 77.8909 69.3406C77.4415 71.043 76.6421 72.5809 75.5838 73.8876C75.576 73.8969 75.5683 73.906 75.5608 73.915C73.2958 76.6956 69.8529 78.4194 66.093 78.4194C59.3643 78.4194 53.8898 72.9449 53.8898 66.2163C53.8898 59.4876 59.3643 54.0131 66.093 54.0131C71.2853 54.0131 75.9179 57.3085 77.621 62.2133C77.9721 63.2248 79.0756 63.7605 80.0889 63.4091C81.1006 63.058 81.6358 61.9529 81.2847 60.9412C79.0405 54.4775 72.9354 50.1348 66.093 50.1348C57.2255 50.1348 50.0115 57.3488 50.0115 66.2163C50.0115 69.4208 50.9573 72.4069 52.5792 74.9172L50.0482 77.4482C47.0707 80.426 45.4312 84.3843 45.4312 88.5949V96.5124H17.3012V89.408C17.3012 88.3368 16.4332 87.4688 15.362 87.4688C14.2908 87.4688 13.4229 88.3368 13.4229 89.408V98.4516ZM49.3095 88.5946C49.3095 85.42 50.5459 82.4355 52.791 80.1905L55.0712 77.9103C57.952 80.6272 61.8301 82.2974 66.093 82.2974C70.3023 82.2974 74.2093 80.6564 77.1207 77.9159L79.3952 80.1902C81.6403 82.4353 82.8767 85.4198 82.8767 88.5943V96.5119H49.3095V88.5946Z" fill="url(#paint1_linear)"/>
<path d="M15.362 83.076C16.4332 83.076 17.3012 82.208 17.3012 81.1368V36.4385C17.3012 36.1526 17.5336 35.9199 17.8196 35.9199H30.3092C31.3804 35.9199 32.2484 35.0519 32.2484 33.9807C32.2484 32.9095 31.3804 32.0415 30.3092 32.0415H17.8196C15.3951 32.0415 13.4229 34.014 13.4229 36.4385V81.1368C13.4229 82.2078 14.2908 83.076 15.362 83.076Z" fill="url(#paint2_linear)"/>
<path d="M44.5569 46.0358H85.6874C90.336 46.0358 94.1174 42.2542 94.1174 37.6058V8.43025C94.1174 3.78165 90.3357 0 85.6874 0H44.5569C39.9083 0 36.127 3.78191 36.127 8.43025V12.4914C36.127 13.5626 36.9949 14.4306 38.0661 14.4306C39.1373 14.4306 40.0053 13.5626 40.0053 12.4914V8.43025C40.0053 5.92018 42.0471 3.87835 44.5569 3.87835H85.6874C88.1972 3.87835 90.239 5.92018 90.239 8.43025V37.6058C90.239 40.1156 88.1972 42.1575 85.6874 42.1575H44.5569C42.0471 42.1575 40.0053 40.1156 40.0053 37.6058V20.7624C40.0053 19.6912 39.1373 18.8232 38.0661 18.8232C36.9949 18.8232 36.127 19.6912 36.127 20.7624V37.6058C36.127 42.2542 39.9086 46.0358 44.5569 46.0358Z" fill="url(#paint3_linear)"/>
<path d="M59.945 35.0372C60.8161 35.0372 61.6869 34.8045 62.4789 34.3393L74.4064 27.3314C75.9523 26.4228 76.8751 24.8102 76.8751 23.0171C76.8751 21.224 75.952 19.6114 74.4064 18.7033L62.4786 11.6954C60.9125 10.7752 59.0357 10.7644 57.459 11.667C55.8821 12.5693 54.9409 14.1928 54.9409 16.0094V30.0253C54.9409 31.8419 55.8823 33.4656 57.459 34.368C58.2388 34.814 59.092 35.0372 59.945 35.0372ZM58.819 16.0092C58.819 15.4204 59.2149 15.1303 59.385 15.0329C59.4876 14.9742 59.6922 14.8801 59.9502 14.8801C60.1195 14.8801 60.3122 14.9209 60.5138 15.0393L72.4416 22.0473C72.9427 22.3415 72.9964 22.8234 72.9964 23.0168C72.9964 23.2105 72.9424 23.6925 72.4413 23.987L60.5141 30.9949C60.006 31.2933 59.5556 31.0986 59.3855 31.0013C59.2151 30.9039 58.8193 30.6135 58.8193 30.0248V16.0092H58.819Z" fill="url(#paint4_linear)"/>
<defs>
<linearGradient id="paint0_linear" x1="66.0931" y1="23.7676" x2="66.0931" y2="124" gradientUnits="userSpaceOnUse">
<stop stop-color="#61C3D9"/>
<stop offset="1" stop-color="#4C6BFD"/>
</linearGradient>
<linearGradient id="paint1_linear" x1="66.093" y1="32.0415" x2="66.093" y2="100.391" gradientUnits="userSpaceOnUse">
<stop stop-color="#61C3D9"/>
<stop offset="1" stop-color="#4C6BFD"/>
</linearGradient>
<linearGradient id="paint2_linear" x1="22.8356" y1="32.0415" x2="22.8356" y2="83.076" gradientUnits="userSpaceOnUse">
<stop stop-color="#61C3D9"/>
<stop offset="1" stop-color="#4C6BFD"/>
</linearGradient>
<linearGradient id="paint3_linear" x1="65.1222" y1="0" x2="65.1222" y2="46.0358" gradientUnits="userSpaceOnUse">
<stop stop-color="#61C3D9"/>
<stop offset="1" stop-color="#4C6BFD"/>
</linearGradient>
<linearGradient id="paint4_linear" x1="65.908" y1="10.9976" x2="65.908" y2="35.0372" gradientUnits="userSpaceOnUse">
<stop stop-color="#61C3D9"/>
<stop offset="1" stop-color="#4C6BFD"/>
</linearGradient>
</defs>
</svg>
