<svg width="372" height="372" viewBox="0 0 372 372" fill="none" xmlns="http://www.w3.org/2000/svg">
<path d="M186 372C288.725 372 372 288.725 372 186C372 83.275 288.725 0 186 0C83.275 0 0 83.275 0 186C0 288.725 83.275 372 186 372Z" fill="url(#paint0_radial)"/>
<g clip-path="url(#clip0)">
<path d="M220.416 135.95H132.584C115.711 135.95 102.033 149.628 102.033 166.5C102.033 183.373 115.711 197.051 132.584 197.051H162.903H190.097H220.416C237.289 197.051 250.967 183.373 250.967 166.5C250.966 149.628 237.289 135.95 220.416 135.95Z" fill="#CCF5FC"/>
<path d="M220.429 184.7C230.481 184.7 238.629 176.552 238.629 166.5C238.629 156.449 230.481 148.301 220.429 148.301C210.378 148.301 202.23 156.449 202.23 166.5C202.23 176.552 210.378 184.7 220.429 184.7Z" fill="#80B6FF"/>
<path d="M176.5 200.078C178.172 200.078 179.527 198.722 179.527 197.051C179.527 195.379 178.172 194.023 176.5 194.023C174.828 194.023 173.473 195.379 173.473 197.051C173.473 198.722 174.828 200.078 176.5 200.078Z" fill="black"/>
<path d="M220.416 132.916H132.584C114.066 132.916 99 147.982 99 166.5C99 185.018 114.066 200.083 132.584 200.083H162.903C164.578 200.083 165.936 198.725 165.936 197.05C165.936 195.375 164.578 194.017 162.903 194.017H132.584C117.41 194.017 105.066 181.673 105.066 166.499C105.066 151.326 117.41 138.982 132.584 138.982H220.416C235.589 138.982 247.933 151.326 247.933 166.499C247.933 181.673 235.589 194.017 220.416 194.017H190.097C188.421 194.017 187.063 195.375 187.063 197.05C187.063 198.725 188.421 200.083 190.097 200.083H220.416C238.934 200.083 254 185.018 254 166.5C254 147.982 238.934 132.916 220.416 132.916Z" fill="black"/>
<path d="M241.663 166.5C241.663 154.792 232.138 145.267 220.43 145.267C208.722 145.267 199.197 154.792 199.197 166.5C199.197 178.208 208.722 187.733 220.43 187.733C232.138 187.733 241.663 178.208 241.663 166.5ZM205.263 166.5C205.263 158.137 212.067 151.334 220.43 151.334C228.792 151.334 235.596 158.137 235.596 166.5C235.596 174.863 228.792 181.666 220.43 181.666C212.067 181.666 205.263 174.863 205.263 166.5Z" fill="black"/>
<path d="M180.592 148.765C178.917 148.765 177.559 150.123 177.559 151.798V171.959L162.484 150.13C161.73 149.037 160.353 148.563 159.085 148.957C157.818 149.352 156.955 150.526 156.955 151.853V181.202C156.955 182.877 158.313 184.235 159.988 184.235C161.663 184.235 163.021 182.877 163.021 181.202V161.584L177.336 182.313C178.253 183.637 179.772 184.204 181.207 183.756C182.676 183.297 183.626 181.905 183.626 180.211V151.798C183.625 150.123 182.267 148.765 180.592 148.765Z" fill="black"/>
<path d="M116.813 166.5C116.813 176.279 124.769 184.235 134.548 184.235C144.327 184.235 152.283 176.279 152.283 166.5C152.283 156.721 144.327 148.765 134.548 148.765C124.769 148.765 116.813 156.721 116.813 166.5ZM146.216 166.5C146.216 172.934 140.982 178.169 134.548 178.169C128.114 178.169 122.879 172.934 122.879 166.5C122.879 160.066 128.114 154.831 134.548 154.831C140.982 154.831 146.216 160.066 146.216 166.5Z" fill="black"/>
</g>
<defs>
<radialGradient id="paint0_radial" cx="0" cy="0" r="1" gradientUnits="userSpaceOnUse" gradientTransform="translate(186.026 186.026) rotate(147.549) scale(186.003)">
<stop stop-color="#9BFFEB"/>
<stop offset="0.477083" stop-color="#C1ECFF" stop-opacity="0.79"/>
<stop offset="1" stop-color="white" stop-opacity="0"/>
</radialGradient>
<clipPath id="clip0">
<rect width="155" height="155" fill="white" transform="translate(99 89)"/>
</clipPath>
</defs>
</svg>
