<svg width="377" height="11" viewBox="0 0 377 11" fill="none" xmlns="http://www.w3.org/2000/svg">
<path d="M4.8739 10.0043C7.56569 10.0043 9.7478 7.82217 9.7478 5.13038C9.7478 2.4386 7.56569 0.25647 4.8739 0.25647C2.18211 0.25647 0 2.4386 0 5.13038C0 7.82217 2.18211 10.0043 4.8739 10.0043Z" fill="#4C6BFD"/>
<path d="M25.3961 10.2609C28.2295 10.2609 30.5265 7.96389 30.5265 5.13043C30.5265 2.29697 28.2295 0 25.3961 0C22.5626 0 20.2656 2.29697 20.2656 5.13043C20.2656 7.96389 22.5626 10.2609 25.3961 10.2609Z" fill="#4C6BFD"/>
<path d="M45.9175 10.2609C48.751 10.2609 51.048 7.96389 51.048 5.13043C51.048 2.29697 48.751 0 45.9175 0C43.0841 0 40.7871 2.29697 40.7871 5.13043C40.7871 7.96389 43.0841 10.2609 45.9175 10.2609Z" fill="#4C6BFD"/>
<path d="M66.439 10.2609C69.2725 10.2609 71.5695 7.96389 71.5695 5.13043C71.5695 2.29697 69.2725 0 66.439 0C63.6056 0 61.3086 2.29697 61.3086 5.13043C61.3086 7.96389 63.6056 10.2609 66.439 10.2609Z" fill="#4C6BFD"/>
<path d="M86.961 10.2609C89.7945 10.2609 92.0914 7.96389 92.0914 5.13043C92.0914 2.29697 89.7945 0 86.961 0C84.1275 0 81.8306 2.29697 81.8306 5.13043C81.8306 7.96389 84.1275 10.2609 86.961 10.2609Z" fill="#4C6BFD"/>
<path d="M107.483 10.2609C110.316 10.2609 112.613 7.96389 112.613 5.13043C112.613 2.29697 110.316 0 107.483 0C104.65 0 102.353 2.29697 102.353 5.13043C102.353 7.96389 104.65 10.2609 107.483 10.2609Z" fill="#4C6BFD"/>
<path d="M128.004 10.0043C130.696 10.0043 132.878 7.82217 132.878 5.13038C132.878 2.4386 130.696 0.25647 128.004 0.25647C125.312 0.25647 123.13 2.4386 123.13 5.13038C123.13 7.82217 125.312 10.0043 128.004 10.0043Z" fill="#4C6BFD"/>
<path d="M148.526 10.0043C151.218 10.0043 153.4 7.82217 153.4 5.13038C153.4 2.4386 151.218 0.25647 148.526 0.25647C145.834 0.25647 143.652 2.4386 143.652 5.13038C143.652 7.82217 145.834 10.0043 148.526 10.0043Z" fill="#4C6BFD"/>
<path d="M169.048 9.7478C171.598 9.7478 173.665 7.68053 173.665 5.13043C173.665 2.58033 171.598 0.513062 169.048 0.513062C166.498 0.513062 164.431 2.58033 164.431 5.13043C164.431 7.68053 166.498 9.7478 169.048 9.7478Z" fill="#4C6BFD"/>
<path d="M189.57 9.49127C191.978 9.49127 193.931 7.53885 193.931 5.1304C193.931 2.72196 191.978 0.769531 189.57 0.769531C187.161 0.769531 185.209 2.72196 185.209 5.1304C185.209 7.53885 187.161 9.49127 189.57 9.49127Z" fill="#4C6BFD"/>
<path d="M210.092 9.23483C212.358 9.23483 214.196 7.39724 214.196 5.13047C214.196 2.8637 212.358 1.02612 210.092 1.02612C207.825 1.02612 205.987 2.8637 205.987 5.13047C205.987 7.39724 207.825 9.23483 210.092 9.23483Z" fill="#4C6BFD"/>
<path d="M230.613 9.23483C232.88 9.23483 234.718 7.39724 234.718 5.13047C234.718 2.8637 232.88 1.02612 230.613 1.02612C228.346 1.02612 226.509 2.8637 226.509 5.13047C226.509 7.39724 228.346 9.23483 230.613 9.23483Z" fill="#4C6BFD"/>
<path d="M251.135 8.72165C253.118 8.72165 254.726 7.11379 254.726 5.13037C254.726 3.14695 253.118 1.53906 251.135 1.53906C249.151 1.53906 247.543 3.14695 247.543 5.13037C247.543 7.11379 249.151 8.72165 251.135 8.72165Z" fill="#4C6BFD"/>
<path d="M271.657 8.72165C273.64 8.72165 275.248 7.11379 275.248 5.13037C275.248 3.14695 273.64 1.53906 271.657 1.53906C269.673 1.53906 268.065 3.14695 268.065 5.13037C268.065 7.11379 269.673 8.72165 271.657 8.72165Z" fill="#4C6BFD"/>
<path d="M292.178 8.20868C293.878 8.20868 295.257 6.83049 295.257 5.1304C295.257 3.43031 293.878 2.05212 292.178 2.05212C290.478 2.05212 289.1 3.43031 289.1 5.1304C289.1 6.83049 290.478 8.20868 292.178 8.20868Z" fill="#4C6BFD"/>
<path d="M312.7 8.20868C314.4 8.20868 315.779 6.83049 315.779 5.1304C315.779 3.43031 314.4 2.05212 312.7 2.05212C311 2.05212 309.622 3.43031 309.622 5.1304C309.622 6.83049 311 8.20868 312.7 8.20868Z" fill="#4C6BFD"/>
<path d="M333.222 7.69562C334.639 7.69562 335.787 6.54713 335.787 5.1304C335.787 3.71367 334.639 2.56519 333.222 2.56519C331.805 2.56519 330.657 3.71367 330.657 5.1304C330.657 6.54713 331.805 7.69562 333.222 7.69562Z" fill="#4C6BFD"/>
<path d="M353.743 7.43906C355.018 7.43906 356.052 6.40543 356.052 5.13037C356.052 3.8553 355.018 2.82166 353.743 2.82166C352.468 2.82166 351.435 3.8553 351.435 5.13037C351.435 6.40543 352.468 7.43906 353.743 7.43906Z" fill="#4C6BFD"/>
<path d="M374.265 7.18259C375.398 7.18259 376.317 6.26379 376.317 5.13042C376.317 3.99704 375.398 3.07825 374.265 3.07825C373.132 3.07825 372.213 3.99704 372.213 5.13042C372.213 6.26379 373.132 7.18259 374.265 7.18259Z" fill="#4C6BFD"/>
</svg>
