<svg xmlns="http://www.w3.org/2000/svg" xmlns:xlink="http://www.w3.org/1999/xlink" viewBox="0 0 380.29 306.05"><defs><linearGradient id="Безымянный_градиент" x1="-115.39" y1="20.58" x2="90.24" y2="227.64" gradientTransform="matrix(1, 0, 0, -1, 0, 354)" gradientUnits="userSpaceOnUse"><stop offset="0.05" stop-color="#00c3da"/><stop offset="0.86" stop-color="#05a3b3"/></linearGradient><linearGradient id="Безымянный_градиент_2" x1="57.24" y1="117.58" x2="262.87" y2="324.64" xlink:href="#Безымянный_градиент"/></defs><path d="M32.61,239c-7,12.77-23,28.83-35.73,36l-99.74,56c-12.72,7.15-17.29,2.61-10.23-10.17l55.32-100.12c7.06-12.77,23-28.83,35.73-36l99.74-56c12.72-7.14,17.29-2.61,10.24,10.17Z" transform="translate(116.41 -28.37)" style="fill:url(#Безымянный_градиент)"/><path d="M205.24,142c-7.05,12.77-23,28.83-35.73,36L69.77,234c-12.72,7.15-17.29,2.61-10.23-10.16l55.32-100.13c7.06-12.77,23-28.83,35.73-36l99.74-56c12.72-7.15,17.29-2.61,10.24,10.17Z" transform="translate(116.41 -28.37)" style="fill:url(#Безымянный_градиент_2)"/></svg>