<svg width="141" height="138" viewBox="0 0 141 138" fill="none" xmlns="http://www.w3.org/2000/svg">
<g filter="url(#filter0_d)">
<rect x="4" width="133" height="130" rx="23" fill="url(#paint0_linear)"/>
</g>
<path d="M117.37 60.4986L99.9374 41.3412C96.4879 37.8917 90.8686 37.8872 87.3868 41.369C86.2834 42.4724 85.5323 43.7938 85.1429 45.2034C81.6749 42.5467 76.6722 42.811 73.4777 46.0055C72.3789 47.1089 71.6278 48.4303 71.229 49.8351C67.761 47.1878 62.7583 47.4473 59.5686 50.6418C58.4882 51.7222 57.7465 53.0109 57.3431 54.3834L49.1274 46.1677C45.678 42.7182 40.0587 42.7136 36.5768 46.1955C33.1228 49.6449 33.1228 55.2642 36.5768 58.7182L68.1412 90.2825L49.4195 93.2219C44.3612 93.9452 40.5455 98.3405 40.5455 103.454C40.5455 107.289 43.6657 110.409 47.5001 110.409H91.2163C98.0272 110.409 104.43 107.757 109.247 102.94L116.54 95.6469C121.353 90.8389 124 84.4407 124 77.6392C124 71.2873 121.645 65.1999 117.37 60.4986ZM113.262 92.3689L105.969 99.6618C102.028 103.603 96.7891 105.772 91.2161 105.772H47.4998C46.2202 105.772 45.1816 104.734 45.1816 103.454C45.1816 100.635 47.2864 98.2105 50.11 97.8071L73.3614 94.1536C74.2238 94.0191 74.9331 93.4119 75.2068 92.5819C75.4756 91.7567 75.2578 90.8433 74.6411 90.2267L39.8546 55.4402C38.2088 53.7944 38.2088 51.1145 39.8779 49.4409C40.7031 48.6202 41.7834 48.2075 42.8638 48.2075C43.9441 48.2075 45.0242 48.6202 45.8496 49.4454L69.0455 72.6412C69.9496 73.5453 71.4194 73.5453 72.3234 72.6412C72.7731 72.1868 73.0004 71.5935 73.0004 71C73.0004 70.4064 72.7733 69.8131 72.3189 69.3587L62.8468 59.8866C61.201 58.2408 61.2009 55.5654 62.8746 53.8918C64.5159 52.2505 67.2003 52.2505 68.8416 53.8918L78.3183 63.3684C79.2224 64.2725 80.6922 64.2725 81.5963 63.3684C82.0459 62.914 82.2732 62.3207 82.2732 61.7272C82.2732 61.1336 82.0461 60.5403 81.5917 60.0859L76.7559 55.2501C75.1101 53.6042 75.1101 50.9289 76.7837 49.2553C78.425 47.614 81.1094 47.614 82.7507 49.2553L87.6096 54.1141C87.6189 54.1187 87.6141 54.1187 87.6141 54.1187L87.6187 54.1232C87.6232 54.1278 87.6232 54.1278 87.6232 54.1278C87.6278 54.1324 87.6278 54.1324 87.6278 54.1324H87.6324C87.6369 54.1324 87.6369 54.1369 87.6369 54.1369C88.5456 54.9993 89.983 54.9808 90.8684 54.0906C91.7725 53.1865 91.7725 51.7167 90.8684 50.8126L90.6691 50.6133C89.8717 49.816 89.4312 48.7541 89.4312 47.6275C89.4312 46.5008 89.867 45.4437 90.6924 44.6185C92.343 42.9773 95.0135 42.9818 96.5853 44.5396L113.944 63.6184C117.435 67.4623 119.364 72.4417 119.364 77.6392C119.364 83.2028 117.198 88.4326 113.262 92.3689Z" fill="#5D5FEF"/>
<path d="M61.8541 43.8912C58.479 36.4221 51.0237 31.5908 42.8637 31.5908C31.3608 31.5908 22 40.9516 22 52.4545C22 60.6145 26.831 68.0698 34.3002 71.4497C34.6108 71.5888 34.9355 71.6538 35.2554 71.6538C36.1362 71.6538 36.9801 71.1437 37.3696 70.2907C37.8935 69.1224 37.3741 67.7499 36.2105 67.2214C30.3965 64.5925 26.6365 58.797 26.6365 52.4545C26.6365 43.5064 33.9155 36.2271 42.8639 36.2271C49.2064 36.2271 55.0019 39.9871 57.6308 45.8011C58.1548 46.9695 59.5318 47.4935 60.6953 46.9602C61.8635 46.4318 62.3827 45.0596 61.8541 43.8912Z" fill="#5D5FEF"/>
<defs>
<filter id="filter0_d" x="0" y="0" width="141" height="138" filterUnits="userSpaceOnUse" color-interpolation-filters="sRGB">
<feFlood flood-opacity="0" result="BackgroundImageFix"/>
<feColorMatrix in="SourceAlpha" type="matrix" values="0 0 0 0 0 0 0 0 0 0 0 0 0 0 0 0 0 0 127 0" result="hardAlpha"/>
<feOffset dy="4"/>
<feGaussianBlur stdDeviation="2"/>
<feComposite in2="hardAlpha" operator="out"/>
<feColorMatrix type="matrix" values="0 0 0 0 0 0 0 0 0 0 0 0 0 0 0 0 0 0 0.25 0"/>
<feBlend mode="normal" in2="BackgroundImageFix" result="effect1_dropShadow"/>
<feBlend mode="normal" in="SourceGraphic" in2="effect1_dropShadow" result="shape"/>
</filter>
<linearGradient id="paint0_linear" x1="70.5" y1="0" x2="70.5" y2="130" gradientUnits="userSpaceOnUse">
<stop stop-color="#05A3B3"/>
<stop offset="1" stop-color="#61C3D9"/>
</linearGradient>
</defs>
</svg>
