<svg width="141" height="138" viewBox="0 0 141 138" fill="none" xmlns="http://www.w3.org/2000/svg">
<g filter="url(#filter0_d)">
<rect x="4" width="133" height="130" rx="23" fill="url(#paint0_linear)"/>
</g>
<path d="M73 23C64.3793 23 56.0889 25.6893 48.903 30.7946C46.0734 29.1297 42.3638 29.5107 39.9373 31.9373C37.0587 34.8158 37.0587 39.4996 39.9373 42.3782C42.8156 45.2566 47.4996 45.2567 50.3782 42.3782C52.4825 40.274 53.0466 37.2055 52.0743 34.5823C58.3487 30.2188 65.5399 27.9219 73 27.9219C93.445 27.9219 110.078 44.555 110.078 65C110.078 69.8407 109.006 74.7707 106.892 79.6534C106.352 80.9006 106.925 82.3494 108.173 82.8895C109.424 83.4316 110.871 82.8515 111.409 81.609C113.792 76.1054 115 70.5173 115 65C115 41.8739 96.1248 23 73 23V23ZM46.8978 38.8978C45.9382 39.8574 44.377 39.8574 43.4174 38.8978C42.4578 37.9382 42.4578 36.377 43.4174 35.4174C44.377 34.458 45.9381 34.4578 46.8978 35.4174C47.8574 36.377 47.8574 37.9384 46.8978 38.8978ZM95.6219 87.6219C93.5177 89.7262 92.9536 92.7946 93.9258 95.4178C87.6513 99.7812 80.4601 102.078 73 102.078C52.555 102.078 35.9219 85.445 35.9219 65C35.9219 60.1593 36.9939 55.2293 39.108 50.3466C39.6481 49.0994 39.0748 47.6506 37.8275 47.1105C36.5803 46.5704 35.1313 47.1438 34.5913 48.391C32.2083 53.8946 31 59.4827 31 65C31 88.1261 49.8752 107 73 107C81.6207 107 89.9111 104.311 97.097 99.2054C99.9327 100.874 103.641 100.485 106.063 98.0627C108.941 95.1842 108.941 90.5004 106.063 87.6218C103.184 84.7433 98.5004 84.7434 95.6219 87.6219ZM102.583 94.5826C101.623 95.5424 100.062 95.542 99.1022 94.5826C98.1426 93.623 98.1426 92.0618 99.1022 91.1023C100.061 90.1429 101.623 90.1427 102.583 91.1023C103.542 92.0616 103.542 93.623 102.583 94.5826ZM73 92.0703C87.9266 92.0703 100.07 79.9266 100.07 65C100.07 50.0734 87.9266 37.9297 73 37.9297C58.0734 37.9297 45.9297 50.0734 45.9297 65C45.9297 79.9266 58.0734 92.0703 73 92.0703ZM95.0109 62.5391H85.2571C85.0299 56.581 83.9812 51.0238 82.2456 46.6846C81.9247 45.8821 81.5823 45.1329 81.2217 44.4346C88.6466 47.4136 94.0961 54.3018 95.0109 62.5391ZM82.2456 83.3154C83.9814 78.9762 85.03 73.419 85.2571 67.4609H95.0109C94.0961 75.6982 88.6466 82.5864 81.2215 85.5654C81.5823 84.867 81.9245 84.1179 82.2456 83.3154ZM68.3244 48.5125C69.6999 45.0736 71.5353 42.8516 73 42.8516C74.4647 42.8516 76.3001 45.0736 77.6756 48.5125C79.1906 52.2999 80.1137 57.2108 80.3316 62.5391H65.6682C65.8862 57.2108 66.8094 52.2999 68.3244 48.5125ZM80.3316 67.4609C80.1137 72.7892 79.1904 77.7001 77.6756 81.4875C76.3001 84.9264 74.4647 87.1484 73 87.1484C71.5353 87.1484 69.6999 84.9264 68.3244 81.4875C66.8094 77.7001 65.8862 72.7892 65.6684 67.4609H80.3316ZM64.7785 44.4346C64.4179 45.1329 64.0755 45.8821 63.7546 46.6846C62.0188 51.0238 60.9701 56.581 60.7431 62.5391H50.9892C51.9039 54.3018 57.3534 47.4136 64.7785 44.4346ZM60.7429 67.4609C60.9701 73.419 62.0188 78.9762 63.7544 83.3154C64.0753 84.1179 64.4177 84.8671 64.7783 85.5654C57.3532 82.5864 51.9037 75.6982 50.9889 67.4609H60.7429Z" fill="#4C6BFD"/>
<defs>
<filter id="filter0_d" x="0" y="0" width="141" height="138" filterUnits="userSpaceOnUse" color-interpolation-filters="sRGB">
<feFlood flood-opacity="0" result="BackgroundImageFix"/>
<feColorMatrix in="SourceAlpha" type="matrix" values="0 0 0 0 0 0 0 0 0 0 0 0 0 0 0 0 0 0 127 0" result="hardAlpha"/>
<feOffset dy="4"/>
<feGaussianBlur stdDeviation="2"/>
<feComposite in2="hardAlpha" operator="out"/>
<feColorMatrix type="matrix" values="0 0 0 0 0 0 0 0 0 0 0 0 0 0 0 0 0 0 0.25 0"/>
<feBlend mode="normal" in2="BackgroundImageFix" result="effect1_dropShadow"/>
<feBlend mode="normal" in="SourceGraphic" in2="effect1_dropShadow" result="shape"/>
</filter>
<linearGradient id="paint0_linear" x1="70.5" y1="0" x2="70.5" y2="130" gradientUnits="userSpaceOnUse">
<stop stop-color="#05A3B3"/>
<stop offset="1" stop-color="#61C3D9"/>
</linearGradient>
</defs>
</svg>
