<svg width="135" height="36" viewBox="0 0 135 36" fill="none" xmlns="http://www.w3.org/2000/svg">
<g clip-path="url(#clip0)">
<path d="M108.295 18.1619C108.355 20.7083 108.246 23.3422 107.86 25.9635C107.014 31.6307 103.584 35.001 98.0038 35.6001C93.3657 36.0994 88.7276 36.062 84.0774 35.9372C77.6397 35.7624 71.1898 35.8748 64.752 35.8872C63.3026 35.8872 61.8895 35.6501 60.5125 35.2132C56.9736 34.1147 55.2101 31.5058 54.9806 27.1119C54.7995 23.7042 54.884 20.3089 54.884 16.9011C54.884 12.4198 54.7632 7.92607 54.7874 3.43232C54.7995 0.199305 54.8115 0.249236 57.8794 0.199305C70.2115 -0.0378656 82.5556 -0.0129003 94.8876 0.0744783C96.9651 0.0744783 99.1029 0.0744783 101.096 0.873369C104.949 2.40874 107.099 5.41706 107.799 9.54882C108.282 12.3574 108.343 15.2035 108.295 18.1619ZM82.9662 15.4157C83.0749 18.7485 82.785 23.08 83.1232 27.4115C83.3648 30.5197 84.7417 32.3796 87.6406 33.2284C90.8172 34.1646 94.0663 34.3519 97.3153 33.8401C102.267 33.0412 105.263 30.0703 106.012 25.0398C106.749 20.1466 106.64 15.2035 105.879 10.3227C105.154 5.69168 101.313 2.4337 96.7718 2.13412C92.5806 1.84702 88.4015 2.05922 84.2103 1.95936C83.244 1.9344 82.9421 2.25894 82.9541 3.25756C82.9904 6.96491 82.9662 10.6972 82.9662 15.4157ZM56.6112 14.7042C56.6233 16.9885 56.5991 19.2728 56.6233 21.5571C56.6474 23.7541 56.5267 25.9635 56.8286 28.1605C57.2151 31.044 58.6162 32.8165 61.3218 33.4531C66.2981 34.639 71.371 33.9399 76.3956 34.1022C76.9633 34.1147 77.072 33.6778 77.0599 33.1785C77.0599 32.2173 77.0599 31.2562 77.0599 30.295C77.0599 28.5599 77.0599 28.5849 75.4172 28.5599C72.0474 28.51 68.6654 28.7347 65.2956 28.3976C63.4838 28.2104 62.7229 27.4115 62.6866 25.5516C62.6625 24.3533 62.7108 23.1424 62.6383 21.9441C62.5779 20.9954 62.9282 20.6709 63.8462 20.6958C66.286 20.7458 68.7379 20.6958 71.1777 20.7333C72.0111 20.7458 72.3856 20.4587 72.4097 19.5724C72.446 18.5363 72.5184 17.4878 72.6513 16.4642C72.7721 15.4781 72.4822 15.0911 71.4676 15.1036C68.907 15.166 66.3464 15.1036 63.7858 15.1411C62.9161 15.1535 62.6262 14.829 62.6504 13.9427C62.6987 12.2576 62.7229 10.5724 62.6383 8.88724C62.59 7.85118 62.9644 7.61401 63.9065 7.62649C67.8683 7.67642 71.8179 7.62649 75.7796 7.66394C76.7459 7.67642 77.1203 7.33939 77.072 6.34078C77.0237 5.34216 76.9995 4.33107 77.072 3.33245C77.1444 2.27143 76.7459 1.9344 75.7313 1.9344C69.7525 1.97184 63.7858 1.97184 57.807 1.9344C56.8045 1.92191 56.575 2.30888 56.5871 3.27004C56.6354 7.08974 56.6112 10.8969 56.6112 14.7042Z" fill="#64C3D9"/>
<path d="M51.5143 34.0776C49.3161 34.0776 47.3473 34.0527 45.3665 34.0901C44.5693 34.1026 44.3036 33.5783 44.0137 33.0041C42.4676 29.9583 40.8854 26.925 39.4118 23.8418C38.832 22.631 38.1798 22.0318 36.7666 22.1192C34.2181 22.2815 34.206 22.1692 34.2181 24.803C34.2181 27.4868 34.1819 30.1705 34.2423 32.8543C34.2664 33.828 33.9161 34.1275 33.0344 34.0901C31.6816 34.0402 30.3168 34.0527 28.964 34.0901C28.2997 34.1026 28.1064 33.8529 28.1064 33.1789C28.1306 25.1275 28.0581 17.0637 28.1789 9.01242C28.2393 4.63101 29.1935 2.29675 34.508 2.05958C37.1048 1.94724 39.7017 1.78496 42.2865 2.14696C47.6251 2.9084 50.8983 7.75168 50.2703 13.4937C49.9079 16.7392 48.3498 19.2108 45.4993 20.7087C44.7263 21.1081 44.8833 21.5325 45.2094 22.1317C47.142 25.7017 49.0504 29.2718 50.9587 32.8418C51.1158 33.2038 51.2607 33.5533 51.5143 34.0776ZM34.2906 13.1192C34.2664 13.1192 34.2423 13.1192 34.2181 13.1192C34.2181 14.0429 34.2664 14.9667 34.206 15.8779C34.1456 16.7517 34.508 16.9888 35.2931 16.9514C36.9116 16.889 38.5422 16.8765 40.1727 16.8515C41.284 16.8391 42.2019 16.4022 42.9629 15.5908C44.4123 14.0429 44.6297 12.208 43.9774 10.2482C43.3494 8.36333 41.9362 7.63933 40.0882 7.63933C38.8924 7.63933 37.6846 7.60188 36.4888 7.63933C35.0877 7.67678 34.4234 8.30091 34.3147 9.7489C34.2181 10.8848 34.2906 12.0083 34.2906 13.1192Z" fill="#FBFDFD"/>
<path d="M2.5486 23.6796C2.80225 23.6796 2.83848 23.6796 2.87472 23.6796C4.40867 23.4549 5.44741 23.5423 6.02717 25.5894C6.63109 27.7364 8.88975 28.2357 10.8585 28.6227C12.3321 28.9098 13.7936 28.6851 15.1947 28.0984C16.7165 27.4618 17.3325 26.4507 17.3084 24.6158C17.2721 22.8932 16.6078 21.8945 15.0618 21.3703C13.238 20.7461 11.3296 20.6837 9.44536 20.4466C8.17713 20.2843 6.93305 20.0097 5.72522 19.5478C2.47613 18.2871 0.724768 15.8779 0.41073 12.3328C0.120849 9.06237 1.17167 6.32867 3.68397 4.294C8.33414 0.524233 16.2213 0.861264 20.1226 4.94309C21.4633 6.34115 22.1156 8.06376 22.333 9.98609C22.3934 10.5603 22.2364 10.7725 21.6566 10.785C20.34 10.8224 19.0235 10.9098 17.707 10.9972C17.2842 11.0221 16.9943 10.9473 16.7649 10.4979C15.2551 7.40218 12.8273 6.40357 9.44536 7.43963C7.30748 8.10121 6.23251 9.34947 6.24459 11.1595C6.25666 12.7198 7.11423 13.8682 8.73273 14.38C10.3029 14.8793 11.9456 14.9167 13.5641 15.104C15.6899 15.3536 17.8036 15.6657 19.6516 16.889C22.5504 18.8113 23.8549 22.6685 23.0335 26.6879C22.4175 29.6837 20.6782 31.7059 18.0331 32.9043C13.1172 35.1387 8.33414 34.7142 3.82891 31.7309C1.36492 30.1081 0.277868 27.5866 6.54366e-05 24.6407C-0.0603264 24.0041 0.169163 23.7794 0.773081 23.7919C1.43739 23.7919 2.1017 23.717 2.5486 23.6796Z" fill="#FBFDFD"/>
<path d="M131.968 34.0026C128.864 34.0026 128.913 33.9902 127.91 30.9569C126.932 27.9985 127.717 28.5227 124.625 28.4853C122.451 28.4603 120.277 28.5227 118.102 28.4603C117.1 28.4354 116.52 28.6601 116.303 29.7835C116.085 30.8695 115.614 31.9055 115.324 32.9915C115.131 33.7155 114.817 34.0651 114.032 34.0276C112.595 33.9652 111.157 33.9777 109.732 34.0276C108.935 34.0526 108.73 33.8903 109.032 33.029C111.266 26.5006 113.464 19.9472 115.675 13.4062C116.641 10.5352 117.619 7.65174 118.61 4.79321C119.008 3.61984 119.636 2.63371 120.844 2.19681C122.801 1.4853 124.395 2.24674 125.096 4.30638C127.342 10.8723 129.565 17.4631 131.787 24.0415C132.814 27.0623 133.828 30.0956 134.879 33.1039C135.121 33.778 135.048 34.0526 134.3 34.0151C133.527 33.9777 132.741 34.0026 131.968 34.0026ZM122.209 10.9097C122.004 11.097 121.919 11.1344 121.895 11.1968C120.748 14.9666 119.612 18.7488 118.453 22.5186C118.235 23.2176 118.61 23.2675 119.093 23.2675C121.062 23.2675 123.042 23.2551 125.011 23.28C125.651 23.2925 125.7 23.0179 125.543 22.4811C124.432 18.649 123.332 14.8168 122.209 10.9097Z" fill="#FBFDFD"/>
<path d="M82.9664 15.4159C82.9664 10.6975 82.9906 6.96516 82.9422 3.24532C82.9302 2.24671 83.2321 1.92216 84.1984 1.94712C88.3896 2.04699 92.5687 1.83478 96.7599 2.12188C101.301 2.43395 105.13 5.69192 105.867 10.3105C106.628 15.1912 106.737 20.1344 106 25.0276C105.251 30.0581 102.268 33.029 97.3034 33.8279C94.0544 34.3521 90.8053 34.1524 87.6287 33.2162C84.7298 32.3674 83.3529 30.5075 83.1113 27.3993C82.7852 23.0803 83.0751 18.7613 82.9664 15.4159ZM92.762 7.71412C92.762 7.68915 92.762 7.66419 92.762 7.6517C91.8682 7.6517 90.9744 7.68915 90.0806 7.63922C89.2592 7.58929 88.9694 7.9388 88.9814 8.75018C89.0781 14.3549 88.8365 19.9721 89.1385 25.5893C89.223 27.1122 89.7303 27.7363 91.1435 28.1108C92.5566 28.4853 93.9819 28.5352 95.4192 28.3854C98.2697 28.0733 99.9124 26.2009 100.118 23.2051C100.359 19.7599 100.396 16.3272 100.13 12.8819C99.9003 9.77376 98.0765 7.83894 95.0689 7.71412C94.3201 7.68915 93.535 7.71412 92.762 7.71412Z" fill="#FBFDFD"/>
<path d="M56.6116 14.7043C56.6116 10.8971 56.6358 7.08991 56.5996 3.27022C56.5875 2.30905 56.817 1.93457 57.8195 1.93457C63.7983 1.97202 69.765 1.97202 75.7438 1.93457C76.7463 1.93457 77.157 2.2716 77.0845 3.33263C77.012 4.33124 77.0362 5.34234 77.0845 6.34095C77.1328 7.32708 76.7584 7.6766 75.7921 7.66411C71.8304 7.62666 67.8808 7.67659 63.9191 7.62666C62.977 7.61418 62.6025 7.86383 62.6508 8.88741C62.7233 10.5726 62.7112 12.2577 62.6629 13.9429C62.6388 14.8292 62.9286 15.1537 63.7983 15.1412C66.3589 15.1038 68.9195 15.1662 71.4801 15.1038C72.4947 15.0788 72.7846 15.4783 72.6638 16.4644C72.5309 17.5005 72.4585 18.5365 72.4222 19.5726C72.3981 20.4464 72.0237 20.7459 71.1903 20.7335C68.7504 20.696 66.2985 20.7459 63.8587 20.696C62.9528 20.6835 62.6025 20.9956 62.6508 21.9443C62.7233 23.1426 62.675 24.3534 62.6991 25.5518C62.7354 27.4117 63.4963 28.2106 65.3081 28.3978C68.6779 28.7348 72.0478 28.5226 75.4298 28.5601C77.0845 28.5851 77.0845 28.5601 77.0724 30.2952C77.0724 31.2563 77.0724 32.2175 77.0724 33.1787C77.0724 33.6655 76.9637 34.1149 76.4081 34.1024C71.3835 33.9401 66.3106 34.6267 61.3343 33.4533C58.6287 32.8167 57.2276 31.0441 56.8411 28.1606C56.5392 25.9637 56.66 23.7543 56.6358 21.5573C56.5996 19.273 56.6116 16.9887 56.6116 14.7043Z" fill="#FBFDFD"/>
<path d="M92.7619 7.71422C93.5349 7.71422 94.32 7.68926 95.093 7.71422C98.1006 7.83905 99.9244 9.77386 100.154 12.882C100.42 16.3273 100.383 19.76 100.142 23.2052C99.9365 26.1886 98.2938 28.061 95.4433 28.3855C94.0181 28.5478 92.5807 28.4854 91.1676 28.1109C89.7423 27.7364 89.2471 27.1123 89.1626 25.5894C88.8606 19.9847 89.1022 14.3675 89.0055 8.75028C88.9935 7.92643 89.2833 7.5894 90.1047 7.63933C90.9985 7.68926 91.8923 7.65181 92.7861 7.65181C92.7619 7.67677 92.7619 7.68926 92.7619 7.71422Z" fill="#64C3D9"/>
</g>
<defs>
<clipPath id="clip0">
<rect width="135" height="36" fill="white"/>
</clipPath>
</defs>
</svg>
