<svg width="443" height="407" viewBox="0 0 443 407" fill="none" xmlns="http://www.w3.org/2000/svg">
<path d="M369.391 20.7783C369.533 20.7783 369.648 20.6635 369.648 20.5218C369.648 20.3801 369.533 20.2653 369.391 20.2653C369.25 20.2653 369.135 20.3801 369.135 20.5218C369.135 20.6635 369.25 20.7783 369.391 20.7783Z" fill="#4C6BFD"/>
<path d="M389.913 20.7783C390.055 20.7783 390.17 20.6635 390.17 20.5218C390.17 20.3801 390.055 20.2653 389.913 20.2653C389.772 20.2653 389.657 20.3801 389.657 20.5218C389.657 20.6635 389.772 20.7783 389.913 20.7783Z" fill="#4C6BFD"/>
<path d="M410.435 20.7783C410.576 20.7783 410.691 20.6635 410.691 20.5218C410.691 20.3801 410.576 20.2653 410.435 20.2653C410.293 20.2653 410.178 20.3801 410.178 20.5218C410.178 20.6635 410.293 20.7783 410.435 20.7783Z" fill="#4C6BFD"/>
<path d="M430.957 20.7783C431.098 20.7783 431.213 20.6635 431.213 20.5218C431.213 20.3801 431.098 20.2653 430.957 20.2653C430.815 20.2653 430.7 20.3801 430.7 20.5218C430.7 20.6635 430.815 20.7783 430.957 20.7783Z" fill="#4C6BFD"/>
<path d="M307.826 41.3C307.968 41.3 308.083 41.1852 308.083 41.0435C308.083 40.9018 307.968 40.787 307.826 40.787C307.685 40.787 307.57 40.9018 307.57 41.0435C307.57 41.1852 307.685 41.3 307.826 41.3Z" fill="#4C6BFD"/>
<path d="M328.348 41.3C328.489 41.3 328.604 41.1852 328.604 41.0435C328.604 40.9018 328.489 40.787 328.348 40.787C328.206 40.787 328.091 40.9018 328.091 41.0435C328.091 41.1852 328.206 41.3 328.348 41.3Z" fill="#4C6BFD"/>
<path d="M348.869 41.5565C349.153 41.5565 349.383 41.3268 349.383 41.0434C349.383 40.7601 349.153 40.5304 348.869 40.5304C348.586 40.5304 348.356 40.7601 348.356 41.0434C348.356 41.3268 348.586 41.5565 348.869 41.5565Z" fill="#4C6BFD"/>
<path d="M369.391 41.5565C369.675 41.5565 369.905 41.3268 369.905 41.0434C369.905 40.7601 369.675 40.5304 369.391 40.5304C369.108 40.5304 368.878 40.7601 368.878 41.0434C368.878 41.3268 369.108 41.5565 369.391 41.5565Z" fill="#4C6BFD"/>
<path d="M389.913 41.5565C390.196 41.5565 390.426 41.3268 390.426 41.0434C390.426 40.7601 390.196 40.5304 389.913 40.5304C389.63 40.5304 389.4 40.7601 389.4 41.0434C389.4 41.3268 389.63 41.5565 389.913 41.5565Z" fill="#4C6BFD"/>
<path d="M410.435 41.5565C410.718 41.5565 410.948 41.3268 410.948 41.0434C410.948 40.7601 410.718 40.5304 410.435 40.5304C410.152 40.5304 409.922 40.7601 409.922 41.0434C409.922 41.3268 410.152 41.5565 410.435 41.5565Z" fill="#4C6BFD"/>
<path d="M430.956 41.5565C431.24 41.5565 431.469 41.3268 431.469 41.0434C431.469 40.7601 431.24 40.5304 430.956 40.5304C430.673 40.5304 430.443 40.7601 430.443 41.0434C430.443 41.3268 430.673 41.5565 430.956 41.5565Z" fill="#4C6BFD"/>
<path d="M266.782 61.8218C266.924 61.8218 267.039 61.7069 267.039 61.5652C267.039 61.4236 266.924 61.3087 266.782 61.3087C266.641 61.3087 266.526 61.4236 266.526 61.5652C266.526 61.7069 266.641 61.8218 266.782 61.8218Z" fill="#4C6BFD"/>
<path d="M287.304 61.8218C287.446 61.8218 287.561 61.7069 287.561 61.5652C287.561 61.4236 287.446 61.3087 287.304 61.3087C287.163 61.3087 287.048 61.4236 287.048 61.5652C287.048 61.7069 287.163 61.8218 287.304 61.8218Z" fill="#4C6BFD"/>
<path d="M307.826 62.0782C308.109 62.0782 308.339 61.8485 308.339 61.5652C308.339 61.2818 308.109 61.0521 307.826 61.0521C307.543 61.0521 307.313 61.2818 307.313 61.5652C307.313 61.8485 307.543 62.0782 307.826 62.0782Z" fill="#4C6BFD"/>
<path d="M328.348 62.0782C328.631 62.0782 328.861 61.8485 328.861 61.5652C328.861 61.2818 328.631 61.0521 328.348 61.0521C328.065 61.0521 327.835 61.2818 327.835 61.5652C327.835 61.8485 328.065 62.0782 328.348 62.0782Z" fill="#4C6BFD"/>
<path d="M348.87 62.3348C349.295 62.3348 349.639 61.9902 349.639 61.5652C349.639 61.1402 349.295 60.7957 348.87 60.7957C348.445 60.7957 348.1 61.1402 348.1 61.5652C348.1 61.9902 348.445 62.3348 348.87 62.3348Z" fill="#4C6BFD"/>
<path d="M369.391 62.3348C369.816 62.3348 370.161 61.9902 370.161 61.5652C370.161 61.1402 369.816 60.7957 369.391 60.7957C368.966 60.7957 368.622 61.1402 368.622 61.5652C368.622 61.9902 368.966 62.3348 369.391 62.3348Z" fill="#4C6BFD"/>
<path d="M389.913 62.3348C390.338 62.3348 390.683 61.9902 390.683 61.5652C390.683 61.1402 390.338 60.7957 389.913 60.7957C389.488 60.7957 389.144 61.1402 389.144 61.5652C389.144 61.9902 389.488 62.3348 389.913 62.3348Z" fill="#4C6BFD"/>
<path d="M410.435 62.5914C411.001 62.5914 411.461 62.132 411.461 61.5653C411.461 60.9986 411.001 60.5392 410.435 60.5392C409.868 60.5392 409.409 60.9986 409.409 61.5653C409.409 62.132 409.868 62.5914 410.435 62.5914Z" fill="#4C6BFD"/>
<path d="M430.956 62.5914C431.523 62.5914 431.982 62.132 431.982 61.5653C431.982 60.9986 431.523 60.5392 430.956 60.5392C430.39 60.5392 429.93 60.9986 429.93 61.5653C429.93 62.132 430.39 62.5914 430.956 62.5914Z" fill="#4C6BFD"/>
<path d="M225.739 82.3435C225.881 82.3435 225.995 82.2286 225.995 82.087C225.995 81.9453 225.881 81.8304 225.739 81.8304C225.597 81.8304 225.482 81.9453 225.482 82.087C225.482 82.2286 225.597 82.3435 225.739 82.3435Z" fill="#4C6BFD"/>
<path d="M246.261 82.3435C246.403 82.3435 246.517 82.2286 246.517 82.087C246.517 81.9453 246.403 81.8304 246.261 81.8304C246.119 81.8304 246.004 81.9453 246.004 82.087C246.004 82.2286 246.119 82.3435 246.261 82.3435Z" fill="#4C6BFD"/>
<path d="M266.783 82.5999C267.066 82.5999 267.296 82.3702 267.296 82.0869C267.296 81.8035 267.066 81.5739 266.783 81.5739C266.499 81.5739 266.27 81.8035 266.27 82.0869C266.27 82.3702 266.499 82.5999 266.783 82.5999Z" fill="#4C6BFD"/>
<path d="M287.304 82.5999C287.587 82.5999 287.817 82.3702 287.817 82.0869C287.817 81.8035 287.587 81.5739 287.304 81.5739C287.021 81.5739 286.791 81.8035 286.791 82.0869C286.791 82.3702 287.021 82.5999 287.304 82.5999Z" fill="#4C6BFD"/>
<path d="M307.826 82.8565C308.251 82.8565 308.596 82.512 308.596 82.0869C308.596 81.6619 308.251 81.3174 307.826 81.3174C307.401 81.3174 307.057 81.6619 307.057 82.0869C307.057 82.512 307.401 82.8565 307.826 82.8565Z" fill="#4C6BFD"/>
<path d="M328.348 83.1131C328.915 83.1131 329.374 82.6537 329.374 82.087C329.374 81.5203 328.915 81.0609 328.348 81.0609C327.781 81.0609 327.322 81.5203 327.322 82.087C327.322 82.6537 327.781 83.1131 328.348 83.1131Z" fill="#4C6BFD"/>
<path d="M348.869 83.1131C349.436 83.1131 349.895 82.6537 349.895 82.087C349.895 81.5203 349.436 81.0609 348.869 81.0609C348.303 81.0609 347.843 81.5203 347.843 82.087C347.843 82.6537 348.303 83.1131 348.869 83.1131Z" fill="#4C6BFD"/>
<path d="M369.391 83.1131C369.958 83.1131 370.417 82.6537 370.417 82.087C370.417 81.5203 369.958 81.0609 369.391 81.0609C368.825 81.0609 368.365 81.5203 368.365 82.087C368.365 82.6537 368.825 83.1131 369.391 83.1131Z" fill="#4C6BFD"/>
<path d="M389.913 83.1131C390.479 83.1131 390.939 82.6537 390.939 82.087C390.939 81.5203 390.479 81.0609 389.913 81.0609C389.346 81.0609 388.887 81.5203 388.887 82.087C388.887 82.6537 389.346 83.1131 389.913 83.1131Z" fill="#4C6BFD"/>
<path d="M410.435 83.3695C411.143 83.3695 411.718 82.7953 411.718 82.0869C411.718 81.3786 411.143 80.8043 410.435 80.8043C409.727 80.8043 409.152 81.3786 409.152 82.0869C409.152 82.7953 409.727 83.3695 410.435 83.3695Z" fill="#4C6BFD"/>
<path d="M430.956 83.3695C431.665 83.3695 432.239 82.7953 432.239 82.0869C432.239 81.3786 431.665 80.8043 430.956 80.8043C430.248 80.8043 429.674 81.3786 429.674 82.0869C429.674 82.7953 430.248 83.3695 430.956 83.3695Z" fill="#4C6BFD"/>
<path d="M205.217 102.865C205.359 102.865 205.474 102.75 205.474 102.609C205.474 102.467 205.359 102.352 205.217 102.352C205.076 102.352 204.961 102.467 204.961 102.609C204.961 102.75 205.076 102.865 205.217 102.865Z" fill="#4C6BFD"/>
<path d="M225.739 103.122C226.022 103.122 226.252 102.892 226.252 102.609C226.252 102.325 226.022 102.096 225.739 102.096C225.456 102.096 225.226 102.325 225.226 102.609C225.226 102.892 225.456 103.122 225.739 103.122Z" fill="#4C6BFD"/>
<path d="M246.261 103.122C246.544 103.122 246.774 102.892 246.774 102.609C246.774 102.325 246.544 102.096 246.261 102.096C245.978 102.096 245.748 102.325 245.748 102.609C245.748 102.892 245.978 103.122 246.261 103.122Z" fill="#4C6BFD"/>
<path d="M266.783 103.378C267.208 103.378 267.552 103.034 267.552 102.609C267.552 102.184 267.208 101.839 266.783 101.839C266.358 101.839 266.013 102.184 266.013 102.609C266.013 103.034 266.358 103.378 266.783 103.378Z" fill="#4C6BFD"/>
<path d="M287.304 103.635C287.871 103.635 288.331 103.175 288.331 102.609C288.331 102.042 287.871 101.583 287.304 101.583C286.738 101.583 286.278 102.042 286.278 102.609C286.278 103.175 286.738 103.635 287.304 103.635Z" fill="#4C6BFD"/>
<path d="M307.826 103.635C308.393 103.635 308.852 103.175 308.852 102.609C308.852 102.042 308.393 101.583 307.826 101.583C307.259 101.583 306.8 102.042 306.8 102.609C306.8 103.175 307.259 103.635 307.826 103.635Z" fill="#4C6BFD"/>
<path d="M328.348 103.891C329.056 103.891 329.631 103.317 329.631 102.609C329.631 101.9 329.056 101.326 328.348 101.326C327.64 101.326 327.065 101.9 327.065 102.609C327.065 103.317 327.64 103.891 328.348 103.891Z" fill="#4C6BFD"/>
<path d="M348.87 103.891C349.578 103.891 350.152 103.317 350.152 102.609C350.152 101.9 349.578 101.326 348.87 101.326C348.161 101.326 347.587 101.9 347.587 102.609C347.587 103.317 348.161 103.891 348.87 103.891Z" fill="#4C6BFD"/>
<path d="M369.391 103.891C370.1 103.891 370.674 103.317 370.674 102.609C370.674 101.9 370.1 101.326 369.391 101.326C368.683 101.326 368.109 101.9 368.109 102.609C368.109 103.317 368.683 103.891 369.391 103.891Z" fill="#4C6BFD"/>
<path d="M389.913 104.148C390.763 104.148 391.452 103.459 391.452 102.609C391.452 101.759 390.763 101.07 389.913 101.07C389.063 101.07 388.374 101.759 388.374 102.609C388.374 103.459 389.063 104.148 389.913 104.148Z" fill="#4C6BFD"/>
<path d="M410.435 104.148C411.285 104.148 411.974 103.459 411.974 102.609C411.974 101.759 411.285 101.07 410.435 101.07C409.585 101.07 408.896 101.759 408.896 102.609C408.896 103.459 409.585 104.148 410.435 104.148Z" fill="#4C6BFD"/>
<path d="M430.957 104.148C431.807 104.148 432.496 103.459 432.496 102.609C432.496 101.759 431.807 101.07 430.957 101.07C430.107 101.07 429.417 101.759 429.417 102.609C429.417 103.459 430.107 104.148 430.957 104.148Z" fill="#4C6BFD"/>
<path d="M184.695 123.387C184.837 123.387 184.952 123.272 184.952 123.13C184.952 122.989 184.837 122.874 184.695 122.874C184.554 122.874 184.439 122.989 184.439 123.13C184.439 123.272 184.554 123.387 184.695 123.387Z" fill="#4C6BFD"/>
<path d="M205.217 123.643C205.5 123.643 205.73 123.414 205.73 123.13C205.73 122.847 205.5 122.617 205.217 122.617C204.934 122.617 204.704 122.847 204.704 123.13C204.704 123.414 204.934 123.643 205.217 123.643Z" fill="#4C6BFD"/>
<path d="M225.739 123.9C226.164 123.9 226.509 123.555 226.509 123.13C226.509 122.705 226.164 122.361 225.739 122.361C225.314 122.361 224.97 122.705 224.97 123.13C224.97 123.555 225.314 123.9 225.739 123.9Z" fill="#4C6BFD"/>
<path d="M246.261 124.157C246.828 124.157 247.287 123.697 247.287 123.13C247.287 122.564 246.828 122.104 246.261 122.104C245.694 122.104 245.235 122.564 245.235 123.13C245.235 123.697 245.694 124.157 246.261 124.157Z" fill="#4C6BFD"/>
<path d="M266.782 124.157C267.349 124.157 267.809 123.697 267.809 123.13C267.809 122.564 267.349 122.104 266.782 122.104C266.216 122.104 265.756 122.564 265.756 123.13C265.756 123.697 266.216 124.157 266.782 124.157Z" fill="#4C6BFD"/>
<path d="M287.304 124.413C288.012 124.413 288.587 123.839 288.587 123.13C288.587 122.422 288.012 121.848 287.304 121.848C286.596 121.848 286.021 122.422 286.021 123.13C286.021 123.839 286.596 124.413 287.304 124.413Z" fill="#4C6BFD"/>
<path d="M307.826 124.413C308.534 124.413 309.109 123.839 309.109 123.13C309.109 122.422 308.534 121.848 307.826 121.848C307.118 121.848 306.543 122.422 306.543 123.13C306.543 123.839 307.118 124.413 307.826 124.413Z" fill="#4C6BFD"/>
<path d="M328.348 124.67C329.198 124.67 329.887 123.981 329.887 123.13C329.887 122.28 329.198 121.591 328.348 121.591C327.498 121.591 326.809 122.28 326.809 123.13C326.809 123.981 327.498 124.67 328.348 124.67Z" fill="#4C6BFD"/>
<path d="M348.87 124.67C349.72 124.67 350.409 123.981 350.409 123.13C350.409 122.28 349.72 121.591 348.87 121.591C348.02 121.591 347.331 122.28 347.331 123.13C347.331 123.981 348.02 124.67 348.87 124.67Z" fill="#4C6BFD"/>
<path d="M369.391 124.926C370.383 124.926 371.187 124.122 371.187 123.13C371.187 122.139 370.383 121.335 369.391 121.335C368.4 121.335 367.596 122.139 367.596 123.13C367.596 124.122 368.4 124.926 369.391 124.926Z" fill="#4C6BFD"/>
<path d="M389.913 124.926C390.905 124.926 391.708 124.122 391.708 123.13C391.708 122.139 390.905 121.335 389.913 121.335C388.921 121.335 388.117 122.139 388.117 123.13C388.117 124.122 388.921 124.926 389.913 124.926Z" fill="#4C6BFD"/>
<path d="M410.435 124.926C411.427 124.926 412.23 124.122 412.23 123.13C412.23 122.139 411.427 121.335 410.435 121.335C409.443 121.335 408.639 122.139 408.639 123.13C408.639 124.122 409.443 124.926 410.435 124.926Z" fill="#4C6BFD"/>
<path d="M430.956 124.926C431.948 124.926 432.752 124.122 432.752 123.13C432.752 122.139 431.948 121.335 430.956 121.335C429.965 121.335 429.161 122.139 429.161 123.13C429.161 124.122 429.965 124.926 430.956 124.926Z" fill="#4C6BFD"/>
<path d="M143.652 143.909C143.794 143.909 143.909 143.794 143.909 143.652C143.909 143.511 143.794 143.396 143.652 143.396C143.51 143.396 143.396 143.511 143.396 143.652C143.396 143.794 143.51 143.909 143.652 143.909Z" fill="#4C6BFD"/>
<path d="M164.174 143.909C164.316 143.909 164.431 143.794 164.431 143.652C164.431 143.511 164.316 143.396 164.174 143.396C164.032 143.396 163.917 143.511 163.917 143.652C163.917 143.794 164.032 143.909 164.174 143.909Z" fill="#4C6BFD"/>
<path d="M184.696 144.165C184.979 144.165 185.209 143.935 185.209 143.652C185.209 143.369 184.979 143.139 184.696 143.139C184.412 143.139 184.183 143.369 184.183 143.652C184.183 143.935 184.412 144.165 184.696 144.165Z" fill="#4C6BFD"/>
<path d="M205.217 144.422C205.642 144.422 205.987 144.077 205.987 143.652C205.987 143.227 205.642 142.883 205.217 142.883C204.792 142.883 204.448 143.227 204.448 143.652C204.448 144.077 204.792 144.422 205.217 144.422Z" fill="#4C6BFD"/>
<path d="M225.739 144.678C226.306 144.678 226.765 144.219 226.765 143.652C226.765 143.085 226.306 142.626 225.739 142.626C225.172 142.626 224.713 143.085 224.713 143.652C224.713 144.219 225.172 144.678 225.739 144.678Z" fill="#4C6BFD"/>
<path d="M246.261 144.678C246.828 144.678 247.287 144.219 247.287 143.652C247.287 143.085 246.828 142.626 246.261 142.626C245.694 142.626 245.235 143.085 245.235 143.652C245.235 144.219 245.694 144.678 246.261 144.678Z" fill="#4C6BFD"/>
<path d="M266.783 144.935C267.491 144.935 268.065 144.361 268.065 143.652C268.065 142.944 267.491 142.37 266.783 142.37C266.074 142.37 265.5 142.944 265.5 143.652C265.5 144.361 266.074 144.935 266.783 144.935Z" fill="#4C6BFD"/>
<path d="M287.304 145.191C288.154 145.191 288.843 144.502 288.843 143.652C288.843 142.802 288.154 142.113 287.304 142.113C286.454 142.113 285.765 142.802 285.765 143.652C285.765 144.502 286.454 145.191 287.304 145.191Z" fill="#4C6BFD"/>
<path d="M307.826 145.191C308.676 145.191 309.365 144.502 309.365 143.652C309.365 142.802 308.676 142.113 307.826 142.113C306.976 142.113 306.287 142.802 306.287 143.652C306.287 144.502 306.976 145.191 307.826 145.191Z" fill="#4C6BFD"/>
<path d="M328.348 145.448C329.34 145.448 330.144 144.644 330.144 143.652C330.144 142.66 329.34 141.857 328.348 141.857C327.356 141.857 326.552 142.66 326.552 143.652C326.552 144.644 327.356 145.448 328.348 145.448Z" fill="#4C6BFD"/>
<path d="M348.869 145.448C349.861 145.448 350.665 144.644 350.665 143.652C350.665 142.66 349.861 141.857 348.869 141.857C347.878 141.857 347.074 142.66 347.074 143.652C347.074 144.644 347.878 145.448 348.869 145.448Z" fill="#4C6BFD"/>
<path d="M369.392 145.704C370.525 145.704 371.444 144.786 371.444 143.652C371.444 142.519 370.525 141.6 369.392 141.6C368.258 141.6 367.339 142.519 367.339 143.652C367.339 144.786 368.258 145.704 369.392 145.704Z" fill="#4C6BFD"/>
<path d="M389.913 145.704C391.046 145.704 391.965 144.786 391.965 143.652C391.965 142.519 391.046 141.6 389.913 141.6C388.78 141.6 387.861 142.519 387.861 143.652C387.861 144.786 388.78 145.704 389.913 145.704Z" fill="#4C6BFD"/>
<path d="M410.435 145.704C411.568 145.704 412.487 144.786 412.487 143.652C412.487 142.519 411.568 141.6 410.435 141.6C409.302 141.6 408.383 142.519 408.383 143.652C408.383 144.786 409.302 145.704 410.435 145.704Z" fill="#4C6BFD"/>
<path d="M430.956 145.704C432.09 145.704 433.009 144.786 433.009 143.652C433.009 142.519 432.09 141.6 430.956 141.6C429.823 141.6 428.904 142.519 428.904 143.652C428.904 144.786 429.823 145.704 430.956 145.704Z" fill="#4C6BFD"/>
<path d="M143.652 164.43C143.794 164.43 143.909 164.316 143.909 164.174C143.909 164.032 143.794 163.917 143.652 163.917C143.51 163.917 143.396 164.032 143.396 164.174C143.396 164.316 143.51 164.43 143.652 164.43Z" fill="#4C6BFD"/>
<path d="M164.174 164.687C164.457 164.687 164.687 164.457 164.687 164.174C164.687 163.891 164.457 163.661 164.174 163.661C163.89 163.661 163.661 163.891 163.661 164.174C163.661 164.457 163.89 164.687 164.174 164.687Z" fill="#4C6BFD"/>
<path d="M184.696 164.943C185.121 164.943 185.465 164.599 185.465 164.174C185.465 163.749 185.121 163.404 184.696 163.404C184.271 163.404 183.926 163.749 183.926 164.174C183.926 164.599 184.271 164.943 184.696 164.943Z" fill="#4C6BFD"/>
<path d="M205.217 165.2C205.784 165.2 206.244 164.741 206.244 164.174C206.244 163.607 205.784 163.148 205.217 163.148C204.651 163.148 204.191 163.607 204.191 164.174C204.191 164.741 204.651 165.2 205.217 165.2Z" fill="#4C6BFD"/>
<path d="M225.739 165.457C226.448 165.457 227.022 164.882 227.022 164.174C227.022 163.466 226.448 162.891 225.739 162.891C225.031 162.891 224.457 163.466 224.457 164.174C224.457 164.882 225.031 165.457 225.739 165.457Z" fill="#4C6BFD"/>
<path d="M246.261 165.713C247.111 165.713 247.8 165.024 247.8 164.174C247.8 163.324 247.111 162.635 246.261 162.635C245.411 162.635 244.722 163.324 244.722 164.174C244.722 165.024 245.411 165.713 246.261 165.713Z" fill="#4C6BFD"/>
<path d="M266.783 165.713C267.633 165.713 268.322 165.024 268.322 164.174C268.322 163.324 267.633 162.635 266.783 162.635C265.933 162.635 265.244 163.324 265.244 164.174C265.244 165.024 265.933 165.713 266.783 165.713Z" fill="#4C6BFD"/>
<path d="M287.304 165.97C288.296 165.97 289.1 165.166 289.1 164.174C289.1 163.182 288.296 162.378 287.304 162.378C286.313 162.378 285.509 163.182 285.509 164.174C285.509 165.166 286.313 165.97 287.304 165.97Z" fill="#4C6BFD"/>
<path d="M307.826 166.226C308.959 166.226 309.878 165.307 309.878 164.174C309.878 163.041 308.959 162.122 307.826 162.122C306.693 162.122 305.774 163.041 305.774 164.174C305.774 165.307 306.693 166.226 307.826 166.226Z" fill="#4C6BFD"/>
<path d="M328.348 166.226C329.481 166.226 330.4 165.307 330.4 164.174C330.4 163.041 329.481 162.122 328.348 162.122C327.215 162.122 326.296 163.041 326.296 164.174C326.296 165.307 327.215 166.226 328.348 166.226Z" fill="#4C6BFD"/>
<path d="M348.87 166.226C350.003 166.226 350.922 165.307 350.922 164.174C350.922 163.041 350.003 162.122 348.87 162.122C347.736 162.122 346.817 163.041 346.817 164.174C346.817 165.307 347.736 166.226 348.87 166.226Z" fill="#4C6BFD"/>
<path d="M369.391 166.483C370.666 166.483 371.7 165.449 371.7 164.174C371.7 162.899 370.666 161.865 369.391 161.865C368.116 161.865 367.083 162.899 367.083 164.174C367.083 165.449 368.116 166.483 369.391 166.483Z" fill="#4C6BFD"/>
<path d="M389.913 166.483C391.188 166.483 392.222 165.449 392.222 164.174C392.222 162.899 391.188 161.865 389.913 161.865C388.638 161.865 387.604 162.899 387.604 164.174C387.604 165.449 388.638 166.483 389.913 166.483Z" fill="#4C6BFD"/>
<path d="M410.435 166.739C411.852 166.739 413 165.591 413 164.174C413 162.757 411.852 161.609 410.435 161.609C409.018 161.609 407.87 162.757 407.87 164.174C407.87 165.591 409.018 166.739 410.435 166.739Z" fill="#4C6BFD"/>
<path d="M430.956 166.739C432.373 166.739 433.522 165.591 433.522 164.174C433.522 162.757 432.373 161.609 430.956 161.609C429.54 161.609 428.391 162.757 428.391 164.174C428.391 165.591 429.54 166.739 430.956 166.739Z" fill="#4C6BFD"/>
<path d="M123.131 184.952C123.272 184.952 123.387 184.837 123.387 184.696C123.387 184.554 123.272 184.439 123.131 184.439C122.989 184.439 122.874 184.554 122.874 184.696C122.874 184.837 122.989 184.952 123.131 184.952Z" fill="#4C6BFD"/>
<path d="M143.652 185.209C143.936 185.209 144.165 184.979 144.165 184.696C144.165 184.412 143.936 184.183 143.652 184.183C143.369 184.183 143.139 184.412 143.139 184.696C143.139 184.979 143.369 185.209 143.652 185.209Z" fill="#4C6BFD"/>
<path d="M164.174 185.465C164.599 185.465 164.943 185.121 164.943 184.696C164.943 184.271 164.599 183.926 164.174 183.926C163.749 183.926 163.404 184.271 163.404 184.696C163.404 185.121 163.749 185.465 164.174 185.465Z" fill="#4C6BFD"/>
<path d="M184.696 185.722C185.262 185.722 185.722 185.262 185.722 184.696C185.722 184.129 185.262 183.67 184.696 183.67C184.129 183.67 183.669 184.129 183.669 184.696C183.669 185.262 184.129 185.722 184.696 185.722Z" fill="#4C6BFD"/>
<path d="M205.217 185.978C205.926 185.978 206.5 185.404 206.5 184.696C206.5 183.987 205.926 183.413 205.217 183.413C204.509 183.413 203.935 183.987 203.935 184.696C203.935 185.404 204.509 185.978 205.217 185.978Z" fill="#4C6BFD"/>
<path d="M225.739 186.235C226.589 186.235 227.278 185.546 227.278 184.696C227.278 183.846 226.589 183.157 225.739 183.157C224.889 183.157 224.2 183.846 224.2 184.696C224.2 185.546 224.889 186.235 225.739 186.235Z" fill="#4C6BFD"/>
<path d="M246.261 186.235C247.111 186.235 247.8 185.546 247.8 184.696C247.8 183.846 247.111 183.157 246.261 183.157C245.411 183.157 244.722 183.846 244.722 184.696C244.722 185.546 245.411 186.235 246.261 186.235Z" fill="#4C6BFD"/>
<path d="M266.782 186.491C267.774 186.491 268.578 185.687 268.578 184.696C268.578 183.704 267.774 182.9 266.782 182.9C265.791 182.9 264.987 183.704 264.987 184.696C264.987 185.687 265.791 186.491 266.782 186.491Z" fill="#4C6BFD"/>
<path d="M287.304 186.748C288.438 186.748 289.356 185.829 289.356 184.696C289.356 183.562 288.438 182.643 287.304 182.643C286.171 182.643 285.252 183.562 285.252 184.696C285.252 185.829 286.171 186.748 287.304 186.748Z" fill="#4C6BFD"/>
<path d="M307.826 186.748C308.959 186.748 309.878 185.829 309.878 184.696C309.878 183.562 308.959 182.643 307.826 182.643C306.693 182.643 305.774 183.562 305.774 184.696C305.774 185.829 306.693 186.748 307.826 186.748Z" fill="#4C6BFD"/>
<path d="M328.348 187.004C329.623 187.004 330.656 185.971 330.656 184.696C330.656 183.421 329.623 182.387 328.348 182.387C327.073 182.387 326.039 183.421 326.039 184.696C326.039 185.971 327.073 187.004 328.348 187.004Z" fill="#4C6BFD"/>
<path d="M348.869 187.261C350.286 187.261 351.435 186.112 351.435 184.696C351.435 183.279 350.286 182.13 348.869 182.13C347.453 182.13 346.304 183.279 346.304 184.696C346.304 186.112 347.453 187.261 348.869 187.261Z" fill="#4C6BFD"/>
<path d="M369.391 187.261C370.808 187.261 371.957 186.112 371.957 184.696C371.957 183.279 370.808 182.13 369.391 182.13C367.975 182.13 366.826 183.279 366.826 184.696C366.826 186.112 367.975 187.261 369.391 187.261Z" fill="#4C6BFD"/>
<path d="M389.913 187.517C391.471 187.517 392.735 186.254 392.735 184.696C392.735 183.137 391.471 181.874 389.913 181.874C388.355 181.874 387.091 183.137 387.091 184.696C387.091 186.254 388.355 187.517 389.913 187.517Z" fill="#4C6BFD"/>
<path d="M410.435 187.517C411.993 187.517 413.257 186.254 413.257 184.696C413.257 183.137 411.993 181.874 410.435 181.874C408.877 181.874 407.613 183.137 407.613 184.696C407.613 186.254 408.877 187.517 410.435 187.517Z" fill="#4C6BFD"/>
<path d="M430.957 187.517C432.515 187.517 433.778 186.254 433.778 184.696C433.778 183.137 432.515 181.874 430.957 181.874C429.398 181.874 428.135 183.137 428.135 184.696C428.135 186.254 429.398 187.517 430.957 187.517Z" fill="#4C6BFD"/>
<path d="M102.609 205.474C102.75 205.474 102.865 205.359 102.865 205.217C102.865 205.076 102.75 204.961 102.609 204.961C102.467 204.961 102.352 205.076 102.352 205.217C102.352 205.359 102.467 205.474 102.609 205.474Z" fill="#4C6BFD"/>
<path d="M123.13 205.73C123.414 205.73 123.643 205.501 123.643 205.217C123.643 204.934 123.414 204.704 123.13 204.704C122.847 204.704 122.617 204.934 122.617 205.217C122.617 205.501 122.847 205.73 123.13 205.73Z" fill="#4C6BFD"/>
<path d="M143.652 205.987C144.077 205.987 144.422 205.642 144.422 205.217C144.422 204.792 144.077 204.448 143.652 204.448C143.227 204.448 142.883 204.792 142.883 205.217C142.883 205.642 143.227 205.987 143.652 205.987Z" fill="#4C6BFD"/>
<path d="M164.174 206.243C164.741 206.243 165.2 205.784 165.2 205.217C165.2 204.651 164.741 204.191 164.174 204.191C163.607 204.191 163.148 204.651 163.148 205.217C163.148 205.784 163.607 206.243 164.174 206.243Z" fill="#4C6BFD"/>
<path d="M184.696 206.5C185.404 206.5 185.978 205.926 185.978 205.217C185.978 204.509 185.404 203.935 184.696 203.935C183.987 203.935 183.413 204.509 183.413 205.217C183.413 205.926 183.987 206.5 184.696 206.5Z" fill="#4C6BFD"/>
<path d="M205.217 206.757C206.067 206.757 206.756 206.067 206.756 205.217C206.756 204.367 206.067 203.678 205.217 203.678C204.367 203.678 203.678 204.367 203.678 205.217C203.678 206.067 204.367 206.757 205.217 206.757Z" fill="#4C6BFD"/>
<path d="M225.739 207.013C226.731 207.013 227.535 206.209 227.535 205.217C227.535 204.226 226.731 203.422 225.739 203.422C224.747 203.422 223.943 204.226 223.943 205.217C223.943 206.209 224.747 207.013 225.739 207.013Z" fill="#4C6BFD"/>
<path d="M246.261 207.013C247.253 207.013 248.057 206.209 248.057 205.217C248.057 204.226 247.253 203.422 246.261 203.422C245.269 203.422 244.465 204.226 244.465 205.217C244.465 206.209 245.269 207.013 246.261 207.013Z" fill="#4C6BFD"/>
<path d="M266.783 207.27C267.916 207.27 268.835 206.351 268.835 205.217C268.835 204.084 267.916 203.165 266.783 203.165C265.649 203.165 264.73 204.084 264.73 205.217C264.73 206.351 265.649 207.27 266.783 207.27Z" fill="#4C6BFD"/>
<path d="M287.304 207.526C288.579 207.526 289.613 206.492 289.613 205.217C289.613 203.942 288.579 202.909 287.304 202.909C286.029 202.909 284.996 203.942 284.996 205.217C284.996 206.492 286.029 207.526 287.304 207.526Z" fill="#4C6BFD"/>
<path d="M307.826 207.783C309.243 207.783 310.391 206.634 310.391 205.217C310.391 203.801 309.243 202.652 307.826 202.652C306.409 202.652 305.261 203.801 305.261 205.217C305.261 206.634 306.409 207.783 307.826 207.783Z" fill="#4C6BFD"/>
<path d="M328.348 207.783C329.765 207.783 330.913 206.634 330.913 205.217C330.913 203.801 329.765 202.652 328.348 202.652C326.931 202.652 325.783 203.801 325.783 205.217C325.783 206.634 326.931 207.783 328.348 207.783Z" fill="#4C6BFD"/>
<path d="M348.87 208.039C350.428 208.039 351.691 206.776 351.691 205.217C351.691 203.659 350.428 202.396 348.87 202.396C347.311 202.396 346.048 203.659 346.048 205.217C346.048 206.776 347.311 208.039 348.87 208.039Z" fill="#4C6BFD"/>
<path d="M369.392 208.039C370.95 208.039 372.213 206.776 372.213 205.217C372.213 203.659 370.95 202.396 369.392 202.396C367.833 202.396 366.57 203.659 366.57 205.217C366.57 206.776 367.833 208.039 369.392 208.039Z" fill="#4C6BFD"/>
<path d="M389.913 208.296C391.613 208.296 392.991 206.917 392.991 205.217C392.991 203.517 391.613 202.139 389.913 202.139C388.213 202.139 386.835 203.517 386.835 205.217C386.835 206.917 388.213 208.296 389.913 208.296Z" fill="#4C6BFD"/>
<path d="M410.435 208.296C412.135 208.296 413.513 206.917 413.513 205.217C413.513 203.517 412.135 202.139 410.435 202.139C408.735 202.139 407.356 203.517 407.356 205.217C407.356 206.917 408.735 208.296 410.435 208.296Z" fill="#4C6BFD"/>
<path d="M430.957 208.296C432.657 208.296 434.035 206.917 434.035 205.217C434.035 203.517 432.657 202.139 430.957 202.139C429.257 202.139 427.878 203.517 427.878 205.217C427.878 206.917 429.257 208.296 430.957 208.296Z" fill="#4C6BFD"/>
<path d="M82.0871 225.996C82.2288 225.996 82.3436 225.881 82.3436 225.739C82.3436 225.598 82.2288 225.483 82.0871 225.483C81.9454 225.483 81.8306 225.598 81.8306 225.739C81.8306 225.881 81.9454 225.996 82.0871 225.996Z" fill="#4C6BFD"/>
<path d="M102.609 226.252C102.892 226.252 103.122 226.022 103.122 225.739C103.122 225.456 102.892 225.226 102.609 225.226C102.325 225.226 102.096 225.456 102.096 225.739C102.096 226.022 102.325 226.252 102.609 226.252Z" fill="#4C6BFD"/>
<path d="M123.13 226.509C123.555 226.509 123.9 226.164 123.9 225.739C123.9 225.314 123.555 224.97 123.13 224.97C122.705 224.97 122.361 225.314 122.361 225.739C122.361 226.164 122.705 226.509 123.13 226.509Z" fill="#4C6BFD"/>
<path d="M143.652 226.765C144.219 226.765 144.678 226.306 144.678 225.739C144.678 225.172 144.219 224.713 143.652 224.713C143.085 224.713 142.626 225.172 142.626 225.739C142.626 226.306 143.085 226.765 143.652 226.765Z" fill="#4C6BFD"/>
<path d="M164.174 227.022C164.882 227.022 165.456 226.448 165.456 225.739C165.456 225.031 164.882 224.457 164.174 224.457C163.465 224.457 162.891 225.031 162.891 225.739C162.891 226.448 163.465 227.022 164.174 227.022Z" fill="#4C6BFD"/>
<path d="M184.695 227.278C185.545 227.278 186.235 226.589 186.235 225.739C186.235 224.889 185.545 224.2 184.695 224.2C183.845 224.2 183.156 224.889 183.156 225.739C183.156 226.589 183.845 227.278 184.695 227.278Z" fill="#4C6BFD"/>
<path d="M205.218 227.535C206.209 227.535 207.013 226.731 207.013 225.739C207.013 224.747 206.209 223.943 205.218 223.943C204.226 223.943 203.422 224.747 203.422 225.739C203.422 226.731 204.226 227.535 205.218 227.535Z" fill="#4C6BFD"/>
<path d="M225.739 227.791C226.873 227.791 227.791 226.873 227.791 225.739C227.791 224.606 226.873 223.687 225.739 223.687C224.606 223.687 223.687 224.606 223.687 225.739C223.687 226.873 224.606 227.791 225.739 227.791Z" fill="#4C6BFD"/>
<path d="M246.261 227.791C247.395 227.791 248.313 226.873 248.313 225.739C248.313 224.606 247.395 223.687 246.261 223.687C245.128 223.687 244.209 224.606 244.209 225.739C244.209 226.873 245.128 227.791 246.261 227.791Z" fill="#4C6BFD"/>
<path d="M266.783 228.048C268.058 228.048 269.092 227.014 269.092 225.739C269.092 224.464 268.058 223.43 266.783 223.43C265.508 223.43 264.474 224.464 264.474 225.739C264.474 227.014 265.508 228.048 266.783 228.048Z" fill="#4C6BFD"/>
<path d="M287.304 228.304C288.721 228.304 289.87 227.156 289.87 225.739C289.87 224.322 288.721 223.174 287.304 223.174C285.888 223.174 284.739 224.322 284.739 225.739C284.739 227.156 285.888 228.304 287.304 228.304Z" fill="#4C6BFD"/>
<path d="M307.826 228.561C309.385 228.561 310.648 227.298 310.648 225.739C310.648 224.181 309.385 222.917 307.826 222.917C306.268 222.917 305.004 224.181 305.004 225.739C305.004 227.298 306.268 228.561 307.826 228.561Z" fill="#4C6BFD"/>
<path d="M328.348 228.561C329.907 228.561 331.17 227.298 331.17 225.739C331.17 224.181 329.907 222.917 328.348 222.917C326.79 222.917 325.526 224.181 325.526 225.739C325.526 227.298 326.79 228.561 328.348 228.561Z" fill="#4C6BFD"/>
<path d="M348.869 228.817C350.569 228.817 351.948 227.439 351.948 225.739C351.948 224.039 350.569 222.661 348.869 222.661C347.169 222.661 345.791 224.039 345.791 225.739C345.791 227.439 347.169 228.817 348.869 228.817Z" fill="#4C6BFD"/>
<path d="M369.391 228.817C371.091 228.817 372.47 227.439 372.47 225.739C372.47 224.039 371.091 222.661 369.391 222.661C367.691 222.661 366.313 224.039 366.313 225.739C366.313 227.439 367.691 228.817 369.391 228.817Z" fill="#4C6BFD"/>
<path d="M389.913 229.074C391.755 229.074 393.248 227.581 393.248 225.739C393.248 223.897 391.755 222.404 389.913 222.404C388.071 222.404 386.578 223.897 386.578 225.739C386.578 227.581 388.071 229.074 389.913 229.074Z" fill="#4C6BFD"/>
<path d="M410.435 229.074C412.277 229.074 413.77 227.581 413.77 225.739C413.77 223.897 412.277 222.404 410.435 222.404C408.593 222.404 407.1 223.897 407.1 225.739C407.1 227.581 408.593 229.074 410.435 229.074Z" fill="#4C6BFD"/>
<path d="M430.957 229.33C432.94 229.33 434.548 227.723 434.548 225.739C434.548 223.756 432.94 222.148 430.957 222.148C428.973 222.148 427.365 223.756 427.365 225.739C427.365 227.723 428.973 229.33 430.957 229.33Z" fill="#4C6BFD"/>
<path d="M82.0871 246.517C82.2288 246.517 82.3436 246.403 82.3436 246.261C82.3436 246.119 82.2288 246.004 82.0871 246.004C81.9454 246.004 81.8306 246.119 81.8306 246.261C81.8306 246.403 81.9454 246.517 82.0871 246.517Z" fill="#4C6BFD"/>
<path d="M102.609 246.774C102.892 246.774 103.122 246.544 103.122 246.261C103.122 245.977 102.892 245.748 102.609 245.748C102.325 245.748 102.096 245.977 102.096 246.261C102.096 246.544 102.325 246.774 102.609 246.774Z" fill="#4C6BFD"/>
<path d="M123.131 247.287C123.697 247.287 124.157 246.828 124.157 246.261C124.157 245.694 123.697 245.235 123.131 245.235C122.564 245.235 122.104 245.694 122.104 246.261C122.104 246.828 122.564 247.287 123.131 247.287Z" fill="#4C6BFD"/>
<path d="M143.652 247.287C144.219 247.287 144.678 246.828 144.678 246.261C144.678 245.694 144.219 245.235 143.652 245.235C143.085 245.235 142.626 245.694 142.626 246.261C142.626 246.828 143.085 247.287 143.652 247.287Z" fill="#4C6BFD"/>
<path d="M164.174 247.8C165.024 247.8 165.713 247.111 165.713 246.261C165.713 245.411 165.024 244.722 164.174 244.722C163.324 244.722 162.635 245.411 162.635 246.261C162.635 247.111 163.324 247.8 164.174 247.8Z" fill="#4C6BFD"/>
<path d="M184.695 247.8C185.545 247.8 186.235 247.111 186.235 246.261C186.235 245.411 185.545 244.722 184.695 244.722C183.845 244.722 183.156 245.411 183.156 246.261C183.156 247.111 183.845 247.8 184.695 247.8Z" fill="#4C6BFD"/>
<path d="M205.217 248.313C206.351 248.313 207.269 247.394 207.269 246.261C207.269 245.128 206.351 244.209 205.217 244.209C204.084 244.209 203.165 245.128 203.165 246.261C203.165 247.394 204.084 248.313 205.217 248.313Z" fill="#4C6BFD"/>
<path d="M225.739 248.313C226.873 248.313 227.791 247.394 227.791 246.261C227.791 245.128 226.873 244.209 225.739 244.209C224.606 244.209 223.687 245.128 223.687 246.261C223.687 247.394 224.606 248.313 225.739 248.313Z" fill="#4C6BFD"/>
<path d="M246.261 248.57C247.536 248.57 248.57 247.536 248.57 246.261C248.57 244.986 247.536 243.952 246.261 243.952C244.986 243.952 243.952 244.986 243.952 246.261C243.952 247.536 244.986 248.57 246.261 248.57Z" fill="#4C6BFD"/>
<path d="M266.783 248.826C268.199 248.826 269.348 247.678 269.348 246.261C269.348 244.844 268.199 243.696 266.783 243.696C265.366 243.696 264.217 244.844 264.217 246.261C264.217 247.678 265.366 248.826 266.783 248.826Z" fill="#4C6BFD"/>
<path d="M287.304 249.083C288.863 249.083 290.126 247.819 290.126 246.261C290.126 244.703 288.863 243.439 287.304 243.439C285.746 243.439 284.482 244.703 284.482 246.261C284.482 247.819 285.746 249.083 287.304 249.083Z" fill="#4C6BFD"/>
<path d="M307.826 249.339C309.526 249.339 310.905 247.961 310.905 246.261C310.905 244.561 309.526 243.183 307.826 243.183C306.126 243.183 304.748 244.561 304.748 246.261C304.748 247.961 306.126 249.339 307.826 249.339Z" fill="#4C6BFD"/>
<path d="M328.348 249.339C330.048 249.339 331.426 247.961 331.426 246.261C331.426 244.561 330.048 243.183 328.348 243.183C326.648 243.183 325.27 244.561 325.27 246.261C325.27 247.961 326.648 249.339 328.348 249.339Z" fill="#4C6BFD"/>
<path d="M348.869 249.596C350.711 249.596 352.204 248.103 352.204 246.261C352.204 244.419 350.711 242.926 348.869 242.926C347.028 242.926 345.535 244.419 345.535 246.261C345.535 248.103 347.028 249.596 348.869 249.596Z" fill="#4C6BFD"/>
<path d="M369.391 249.852C371.375 249.852 372.982 248.244 372.982 246.261C372.982 244.277 371.375 242.67 369.391 242.67C367.408 242.67 365.8 244.277 365.8 246.261C365.8 248.244 367.408 249.852 369.391 249.852Z" fill="#4C6BFD"/>
<path d="M389.913 249.852C391.897 249.852 393.504 248.244 393.504 246.261C393.504 244.277 391.897 242.67 389.913 242.67C387.93 242.67 386.322 244.277 386.322 246.261C386.322 248.244 387.93 249.852 389.913 249.852Z" fill="#4C6BFD"/>
<path d="M410.435 249.852C412.418 249.852 414.026 248.244 414.026 246.261C414.026 244.277 412.418 242.67 410.435 242.67C408.451 242.67 406.843 244.277 406.843 246.261C406.843 248.244 408.451 249.852 410.435 249.852Z" fill="#4C6BFD"/>
<path d="M430.957 250.109C433.082 250.109 434.805 248.386 434.805 246.261C434.805 244.136 433.082 242.413 430.957 242.413C428.832 242.413 427.109 244.136 427.109 246.261C427.109 248.386 428.832 250.109 430.957 250.109Z" fill="#4C6BFD"/>
<path d="M61.5651 267.039C61.7068 267.039 61.8216 266.924 61.8216 266.783C61.8216 266.641 61.7068 266.526 61.5651 266.526C61.4234 266.526 61.3086 266.641 61.3086 266.783C61.3086 266.924 61.4234 267.039 61.5651 267.039Z" fill="#4C6BFD"/>
<path d="M82.0868 267.296C82.3701 267.296 82.5998 267.066 82.5998 266.783C82.5998 266.499 82.3701 266.27 82.0868 266.27C81.8034 266.27 81.5737 266.499 81.5737 266.783C81.5737 267.066 81.8034 267.296 82.0868 267.296Z" fill="#4C6BFD"/>
<path d="M102.608 267.552C103.033 267.552 103.378 267.208 103.378 266.783C103.378 266.358 103.033 266.013 102.608 266.013C102.183 266.013 101.839 266.358 101.839 266.783C101.839 267.208 102.183 267.552 102.608 267.552Z" fill="#4C6BFD"/>
<path d="M123.131 267.809C123.697 267.809 124.157 267.349 124.157 266.783C124.157 266.216 123.697 265.756 123.131 265.756C122.564 265.756 122.104 266.216 122.104 266.783C122.104 267.349 122.564 267.809 123.131 267.809Z" fill="#4C6BFD"/>
<path d="M143.652 268.065C144.361 268.065 144.935 267.491 144.935 266.783C144.935 266.074 144.361 265.5 143.652 265.5C142.944 265.5 142.37 266.074 142.37 266.783C142.37 267.491 142.944 268.065 143.652 268.065Z" fill="#4C6BFD"/>
<path d="M164.174 268.322C165.024 268.322 165.713 267.633 165.713 266.783C165.713 265.933 165.024 265.244 164.174 265.244C163.324 265.244 162.635 265.933 162.635 266.783C162.635 267.633 163.324 268.322 164.174 268.322Z" fill="#4C6BFD"/>
<path d="M184.696 268.578C185.687 268.578 186.491 267.774 186.491 266.783C186.491 265.791 185.687 264.987 184.696 264.987C183.704 264.987 182.9 265.791 182.9 266.783C182.9 267.774 183.704 268.578 184.696 268.578Z" fill="#4C6BFD"/>
<path d="M205.217 268.835C206.351 268.835 207.269 267.916 207.269 266.783C207.269 265.649 206.351 264.73 205.217 264.73C204.084 264.73 203.165 265.649 203.165 266.783C203.165 267.916 204.084 268.835 205.217 268.835Z" fill="#4C6BFD"/>
<path d="M225.739 269.091C227.014 269.091 228.048 268.058 228.048 266.783C228.048 265.508 227.014 264.474 225.739 264.474C224.464 264.474 223.431 265.508 223.431 266.783C223.431 268.058 224.464 269.091 225.739 269.091Z" fill="#4C6BFD"/>
<path d="M246.261 269.348C247.678 269.348 248.826 268.199 248.826 266.783C248.826 265.366 247.678 264.217 246.261 264.217C244.844 264.217 243.696 265.366 243.696 266.783C243.696 268.199 244.844 269.348 246.261 269.348Z" fill="#4C6BFD"/>
<path d="M266.783 269.604C268.341 269.604 269.604 268.341 269.604 266.783C269.604 265.224 268.341 263.961 266.783 263.961C265.224 263.961 263.961 265.224 263.961 266.783C263.961 268.341 265.224 269.604 266.783 269.604Z" fill="#4C6BFD"/>
<path d="M287.304 269.861C289.004 269.861 290.383 268.483 290.383 266.783C290.383 265.083 289.004 263.704 287.304 263.704C285.604 263.704 284.226 265.083 284.226 266.783C284.226 268.483 285.604 269.861 287.304 269.861Z" fill="#4C6BFD"/>
<path d="M307.826 270.117C309.668 270.117 311.161 268.624 311.161 266.783C311.161 264.941 309.668 263.448 307.826 263.448C305.984 263.448 304.491 264.941 304.491 266.783C304.491 268.624 305.984 270.117 307.826 270.117Z" fill="#4C6BFD"/>
<path d="M328.348 270.374C330.331 270.374 331.939 268.766 331.939 266.783C331.939 264.799 330.331 263.191 328.348 263.191C326.364 263.191 324.756 264.799 324.756 266.783C324.756 268.766 326.364 270.374 328.348 270.374Z" fill="#4C6BFD"/>
<path d="M348.87 270.374C350.853 270.374 352.461 268.766 352.461 266.783C352.461 264.799 350.853 263.191 348.87 263.191C346.886 263.191 345.278 264.799 345.278 266.783C345.278 268.766 346.886 270.374 348.87 270.374Z" fill="#4C6BFD"/>
<path d="M369.391 270.63C371.516 270.63 373.239 268.908 373.239 266.783C373.239 264.658 371.516 262.935 369.391 262.935C367.266 262.935 365.543 264.658 365.543 266.783C365.543 268.908 367.266 270.63 369.391 270.63Z" fill="#4C6BFD"/>
<path d="M389.913 270.63C392.038 270.63 393.761 268.908 393.761 266.783C393.761 264.658 392.038 262.935 389.913 262.935C387.788 262.935 386.065 264.658 386.065 266.783C386.065 268.908 387.788 270.63 389.913 270.63Z" fill="#4C6BFD"/>
<path d="M410.435 270.887C412.702 270.887 414.539 269.049 414.539 266.783C414.539 264.516 412.702 262.678 410.435 262.678C408.168 262.678 406.331 264.516 406.331 266.783C406.331 269.049 408.168 270.887 410.435 270.887Z" fill="#4C6BFD"/>
<path d="M430.956 270.887C433.223 270.887 435.061 269.049 435.061 266.783C435.061 264.516 433.223 262.678 430.956 262.678C428.69 262.678 426.852 264.516 426.852 266.783C426.852 269.049 428.69 270.887 430.956 270.887Z" fill="#4C6BFD"/>
<path d="M61.5651 287.561C61.7068 287.561 61.8216 287.446 61.8216 287.304C61.8216 287.163 61.7068 287.048 61.5651 287.048C61.4234 287.048 61.3086 287.163 61.3086 287.304C61.3086 287.446 61.4234 287.561 61.5651 287.561Z" fill="#4C6BFD"/>
<path d="M82.0868 287.817C82.3701 287.817 82.5998 287.588 82.5998 287.304C82.5998 287.021 82.3701 286.791 82.0868 286.791C81.8034 286.791 81.5737 287.021 81.5737 287.304C81.5737 287.588 81.8034 287.817 82.0868 287.817Z" fill="#4C6BFD"/>
<path d="M102.609 288.33C103.175 288.33 103.635 287.871 103.635 287.304C103.635 286.738 103.175 286.278 102.609 286.278C102.042 286.278 101.583 286.738 101.583 287.304C101.583 287.871 102.042 288.33 102.609 288.33Z" fill="#4C6BFD"/>
<path d="M123.13 288.587C123.839 288.587 124.413 288.013 124.413 287.304C124.413 286.596 123.839 286.022 123.13 286.022C122.422 286.022 121.848 286.596 121.848 287.304C121.848 288.013 122.422 288.587 123.13 288.587Z" fill="#4C6BFD"/>
<path d="M143.652 288.844C144.502 288.844 145.192 288.154 145.192 287.304C145.192 286.454 144.502 285.765 143.652 285.765C142.802 285.765 142.113 286.454 142.113 287.304C142.113 288.154 142.802 288.844 143.652 288.844Z" fill="#4C6BFD"/>
<path d="M164.174 289.1C165.166 289.1 165.97 288.296 165.97 287.304C165.97 286.313 165.166 285.509 164.174 285.509C163.182 285.509 162.378 286.313 162.378 287.304C162.378 288.296 163.182 289.1 164.174 289.1Z" fill="#4C6BFD"/>
<path d="M184.696 289.357C185.829 289.357 186.748 288.438 186.748 287.304C186.748 286.171 185.829 285.252 184.696 285.252C183.562 285.252 182.644 286.171 182.644 287.304C182.644 288.438 183.562 289.357 184.696 289.357Z" fill="#4C6BFD"/>
<path d="M205.217 289.613C206.492 289.613 207.526 288.579 207.526 287.304C207.526 286.029 206.492 284.996 205.217 284.996C203.942 284.996 202.909 286.029 202.909 287.304C202.909 288.579 203.942 289.613 205.217 289.613Z" fill="#4C6BFD"/>
<path d="M225.739 289.87C227.156 289.87 228.304 288.721 228.304 287.304C228.304 285.888 227.156 284.739 225.739 284.739C224.322 284.739 223.174 285.888 223.174 287.304C223.174 288.721 224.322 289.87 225.739 289.87Z" fill="#4C6BFD"/>
<path d="M246.261 290.126C247.819 290.126 249.082 288.863 249.082 287.304C249.082 285.746 247.819 284.483 246.261 284.483C244.702 284.483 243.439 285.746 243.439 287.304C243.439 288.863 244.702 290.126 246.261 290.126Z" fill="#4C6BFD"/>
<path d="M266.782 290.383C268.482 290.383 269.861 289.004 269.861 287.304C269.861 285.604 268.482 284.226 266.782 284.226C265.082 284.226 263.704 285.604 263.704 287.304C263.704 289.004 265.082 290.383 266.782 290.383Z" fill="#4C6BFD"/>
<path d="M287.305 290.639C289.146 290.639 290.639 289.146 290.639 287.304C290.639 285.463 289.146 283.97 287.305 283.97C285.463 283.97 283.97 285.463 283.97 287.304C283.97 289.146 285.463 290.639 287.305 290.639Z" fill="#4C6BFD"/>
<path d="M307.826 290.896C309.81 290.896 311.417 289.288 311.417 287.304C311.417 285.321 309.81 283.713 307.826 283.713C305.843 283.713 304.235 285.321 304.235 287.304C304.235 289.288 305.843 290.896 307.826 290.896Z" fill="#4C6BFD"/>
<path d="M328.348 290.896C330.331 290.896 331.939 289.288 331.939 287.304C331.939 285.321 330.331 283.713 328.348 283.713C326.364 283.713 324.756 285.321 324.756 287.304C324.756 289.288 326.364 290.896 328.348 290.896Z" fill="#4C6BFD"/>
<path d="M348.869 291.152C350.994 291.152 352.717 289.429 352.717 287.304C352.717 285.179 350.994 283.457 348.869 283.457C346.744 283.457 345.021 285.179 345.021 287.304C345.021 289.429 346.744 291.152 348.869 291.152Z" fill="#4C6BFD"/>
<path d="M369.391 291.409C371.658 291.409 373.496 289.571 373.496 287.304C373.496 285.038 371.658 283.2 369.391 283.2C367.125 283.2 365.287 285.038 365.287 287.304C365.287 289.571 367.125 291.409 369.391 291.409Z" fill="#4C6BFD"/>
<path d="M389.913 291.409C392.18 291.409 394.017 289.571 394.017 287.304C394.017 285.038 392.18 283.2 389.913 283.2C387.646 283.2 385.809 285.038 385.809 287.304C385.809 289.571 387.646 291.409 389.913 291.409Z" fill="#4C6BFD"/>
<path d="M410.435 291.665C412.843 291.665 414.795 289.713 414.795 287.304C414.795 284.896 412.843 282.943 410.435 282.943C408.026 282.943 406.074 284.896 406.074 287.304C406.074 289.713 408.026 291.665 410.435 291.665Z" fill="#4C6BFD"/>
<path d="M430.957 291.665C433.365 291.665 435.317 289.713 435.317 287.304C435.317 284.896 433.365 282.943 430.957 282.943C428.548 282.943 426.596 284.896 426.596 287.304C426.596 289.713 428.548 291.665 430.957 291.665Z" fill="#4C6BFD"/>
<path d="M41.0436 308.083C41.1853 308.083 41.3001 307.968 41.3001 307.826C41.3001 307.684 41.1853 307.57 41.0436 307.57C40.902 307.57 40.7871 307.684 40.7871 307.826C40.7871 307.968 40.902 308.083 41.0436 308.083Z" fill="#4C6BFD"/>
<path d="M61.5653 308.339C61.8486 308.339 62.0783 308.109 62.0783 307.826C62.0783 307.543 61.8486 307.313 61.5653 307.313C61.2819 307.313 61.0522 307.543 61.0522 307.826C61.0522 308.109 61.2819 308.339 61.5653 308.339Z" fill="#4C6BFD"/>
<path d="M82.0869 308.596C82.512 308.596 82.8565 308.251 82.8565 307.826C82.8565 307.401 82.512 307.057 82.0869 307.057C81.6619 307.057 81.3174 307.401 81.3174 307.826C81.3174 308.251 81.6619 308.596 82.0869 308.596Z" fill="#4C6BFD"/>
<path d="M102.609 308.852C103.175 308.852 103.635 308.393 103.635 307.826C103.635 307.259 103.175 306.8 102.609 306.8C102.042 306.8 101.583 307.259 101.583 307.826C101.583 308.393 102.042 308.852 102.609 308.852Z" fill="#4C6BFD"/>
<path d="M123.13 309.109C123.839 309.109 124.413 308.534 124.413 307.826C124.413 307.118 123.839 306.543 123.13 306.543C122.422 306.543 121.848 307.118 121.848 307.826C121.848 308.534 122.422 309.109 123.13 309.109Z" fill="#4C6BFD"/>
<path d="M143.652 309.365C144.502 309.365 145.192 308.676 145.192 307.826C145.192 306.976 144.502 306.287 143.652 306.287C142.802 306.287 142.113 306.976 142.113 307.826C142.113 308.676 142.802 309.365 143.652 309.365Z" fill="#4C6BFD"/>
<path d="M164.174 309.878C165.307 309.878 166.226 308.959 166.226 307.826C166.226 306.693 165.307 305.774 164.174 305.774C163.04 305.774 162.122 306.693 162.122 307.826C162.122 308.959 163.04 309.878 164.174 309.878Z" fill="#4C6BFD"/>
<path d="M184.696 309.878C185.829 309.878 186.748 308.959 186.748 307.826C186.748 306.693 185.829 305.774 184.696 305.774C183.562 305.774 182.644 306.693 182.644 307.826C182.644 308.959 183.562 309.878 184.696 309.878Z" fill="#4C6BFD"/>
<path d="M205.218 310.391C206.634 310.391 207.783 309.243 207.783 307.826C207.783 306.409 206.634 305.261 205.218 305.261C203.801 305.261 202.652 306.409 202.652 307.826C202.652 309.243 203.801 310.391 205.218 310.391Z" fill="#4C6BFD"/>
<path d="M225.739 310.648C227.298 310.648 228.561 309.385 228.561 307.826C228.561 306.268 227.298 305.004 225.739 305.004C224.181 305.004 222.917 306.268 222.917 307.826C222.917 309.385 224.181 310.648 225.739 310.648Z" fill="#4C6BFD"/>
<path d="M246.261 310.904C247.961 310.904 249.339 309.526 249.339 307.826C249.339 306.126 247.961 304.748 246.261 304.748C244.561 304.748 243.183 306.126 243.183 307.826C243.183 309.526 244.561 310.904 246.261 310.904Z" fill="#4C6BFD"/>
<path d="M266.783 311.161C268.624 311.161 270.117 309.668 270.117 307.826C270.117 305.984 268.624 304.491 266.783 304.491C264.941 304.491 263.448 305.984 263.448 307.826C263.448 309.668 264.941 311.161 266.783 311.161Z" fill="#4C6BFD"/>
<path d="M287.304 311.417C289.288 311.417 290.896 309.809 290.896 307.826C290.896 305.843 289.288 304.235 287.304 304.235C285.321 304.235 283.713 305.843 283.713 307.826C283.713 309.809 285.321 311.417 287.304 311.417Z" fill="#4C6BFD"/>
<path d="M307.826 311.674C309.951 311.674 311.674 309.951 311.674 307.826C311.674 305.701 309.951 303.978 307.826 303.978C305.701 303.978 303.979 305.701 303.979 307.826C303.979 309.951 305.701 311.674 307.826 311.674Z" fill="#4C6BFD"/>
<path d="M328.348 311.674C330.473 311.674 332.196 309.951 332.196 307.826C332.196 305.701 330.473 303.978 328.348 303.978C326.223 303.978 324.5 305.701 324.5 307.826C324.5 309.951 326.223 311.674 328.348 311.674Z" fill="#4C6BFD"/>
<path d="M348.87 311.931C351.136 311.931 352.974 310.093 352.974 307.826C352.974 305.559 351.136 303.722 348.87 303.722C346.603 303.722 344.765 305.559 344.765 307.826C344.765 310.093 346.603 311.931 348.87 311.931Z" fill="#4C6BFD"/>
<path d="M369.391 312.187C371.8 312.187 373.752 310.235 373.752 307.826C373.752 305.418 371.8 303.465 369.391 303.465C366.983 303.465 365.03 305.418 365.03 307.826C365.03 310.235 366.983 312.187 369.391 312.187Z" fill="#4C6BFD"/>
<path d="M389.913 312.187C392.322 312.187 394.274 310.235 394.274 307.826C394.274 305.418 392.322 303.465 389.913 303.465C387.505 303.465 385.552 305.418 385.552 307.826C385.552 310.235 387.505 312.187 389.913 312.187Z" fill="#4C6BFD"/>
<path d="M410.435 312.443C412.985 312.443 415.052 310.376 415.052 307.826C415.052 305.276 412.985 303.209 410.435 303.209C407.885 303.209 405.817 305.276 405.817 307.826C405.817 310.376 407.885 312.443 410.435 312.443Z" fill="#4C6BFD"/>
<path d="M430.957 312.443C433.507 312.443 435.574 310.376 435.574 307.826C435.574 305.276 433.507 303.209 430.957 303.209C428.407 303.209 426.339 305.276 426.339 307.826C426.339 310.376 428.407 312.443 430.957 312.443Z" fill="#4C6BFD"/>
<path d="M41.0436 328.604C41.1853 328.604 41.3001 328.489 41.3001 328.348C41.3001 328.206 41.1853 328.091 41.0436 328.091C40.902 328.091 40.7871 328.206 40.7871 328.348C40.7871 328.489 40.902 328.604 41.0436 328.604Z" fill="#4C6BFD"/>
<path d="M61.5653 328.861C61.8486 328.861 62.0783 328.631 62.0783 328.348C62.0783 328.064 61.8486 327.835 61.5653 327.835C61.2819 327.835 61.0522 328.064 61.0522 328.348C61.0522 328.631 61.2819 328.861 61.5653 328.861Z" fill="#4C6BFD"/>
<path d="M82.0871 329.374C82.6538 329.374 83.1132 328.914 83.1132 328.348C83.1132 327.781 82.6538 327.322 82.0871 327.322C81.5204 327.322 81.061 327.781 81.061 328.348C81.061 328.914 81.5204 329.374 82.0871 329.374Z" fill="#4C6BFD"/>
<path d="M102.609 329.63C103.317 329.63 103.891 329.056 103.891 328.348C103.891 327.639 103.317 327.065 102.609 327.065C101.9 327.065 101.326 327.639 101.326 328.348C101.326 329.056 101.9 329.63 102.609 329.63Z" fill="#4C6BFD"/>
<path d="M123.13 329.887C123.98 329.887 124.67 329.198 124.67 328.348C124.67 327.498 123.98 326.809 123.13 326.809C122.28 326.809 121.591 327.498 121.591 328.348C121.591 329.198 122.28 329.887 123.13 329.887Z" fill="#4C6BFD"/>
<path d="M143.652 330.143C144.644 330.143 145.448 329.339 145.448 328.348C145.448 327.356 144.644 326.552 143.652 326.552C142.66 326.552 141.856 327.356 141.856 328.348C141.856 329.339 142.66 330.143 143.652 330.143Z" fill="#4C6BFD"/>
<path d="M164.174 330.4C165.307 330.4 166.226 329.481 166.226 328.348C166.226 327.214 165.307 326.296 164.174 326.296C163.04 326.296 162.122 327.214 162.122 328.348C162.122 329.481 163.04 330.4 164.174 330.4Z" fill="#4C6BFD"/>
<path d="M184.695 330.656C185.97 330.656 187.004 329.623 187.004 328.348C187.004 327.073 185.97 326.039 184.695 326.039C183.42 326.039 182.387 327.073 182.387 328.348C182.387 329.623 183.42 330.656 184.695 330.656Z" fill="#4C6BFD"/>
<path d="M205.218 330.913C206.634 330.913 207.783 329.765 207.783 328.348C207.783 326.931 206.634 325.783 205.218 325.783C203.801 325.783 202.652 326.931 202.652 328.348C202.652 329.765 203.801 330.913 205.218 330.913Z" fill="#4C6BFD"/>
<path d="M225.739 331.17C227.298 331.17 228.561 329.906 228.561 328.348C228.561 326.789 227.298 325.526 225.739 325.526C224.181 325.526 222.917 326.789 222.917 328.348C222.917 329.906 224.181 331.17 225.739 331.17Z" fill="#4C6BFD"/>
<path d="M246.261 331.426C247.961 331.426 249.339 330.048 249.339 328.348C249.339 326.648 247.961 325.27 246.261 325.27C244.561 325.27 243.183 326.648 243.183 328.348C243.183 330.048 244.561 331.426 246.261 331.426Z" fill="#4C6BFD"/>
<path d="M266.783 331.939C268.766 331.939 270.374 330.331 270.374 328.348C270.374 326.364 268.766 324.756 266.783 324.756C264.799 324.756 263.191 326.364 263.191 328.348C263.191 330.331 264.799 331.939 266.783 331.939Z" fill="#4C6BFD"/>
<path d="M287.304 331.939C289.288 331.939 290.896 330.331 290.896 328.348C290.896 326.364 289.288 324.756 287.304 324.756C285.321 324.756 283.713 326.364 283.713 328.348C283.713 330.331 285.321 331.939 287.304 331.939Z" fill="#4C6BFD"/>
<path d="M307.826 332.196C309.951 332.196 311.674 330.473 311.674 328.348C311.674 326.223 309.951 324.5 307.826 324.5C305.701 324.5 303.979 326.223 303.979 328.348C303.979 330.473 305.701 332.196 307.826 332.196Z" fill="#4C6BFD"/>
<path d="M328.348 332.452C330.615 332.452 332.452 330.615 332.452 328.348C332.452 326.081 330.615 324.244 328.348 324.244C326.081 324.244 324.244 326.081 324.244 328.348C324.244 330.615 326.081 332.452 328.348 332.452Z" fill="#4C6BFD"/>
<path d="M348.87 332.709C351.278 332.709 353.231 330.756 353.231 328.348C353.231 325.939 351.278 323.987 348.87 323.987C346.461 323.987 344.509 325.939 344.509 328.348C344.509 330.756 346.461 332.709 348.87 332.709Z" fill="#4C6BFD"/>
<path d="M369.391 332.965C371.941 332.965 374.009 330.898 374.009 328.348C374.009 325.798 371.941 323.73 369.391 323.73C366.841 323.73 364.774 325.798 364.774 328.348C364.774 330.898 366.841 332.965 369.391 332.965Z" fill="#4C6BFD"/>
<path d="M389.913 332.965C392.463 332.965 394.531 330.898 394.531 328.348C394.531 325.798 392.463 323.73 389.913 323.73C387.363 323.73 385.296 325.798 385.296 328.348C385.296 330.898 387.363 332.965 389.913 332.965Z" fill="#4C6BFD"/>
<path d="M410.434 333.222C413.126 333.222 415.308 331.04 415.308 328.348C415.308 325.656 413.126 323.474 410.434 323.474C407.743 323.474 405.561 325.656 405.561 328.348C405.561 331.04 407.743 333.222 410.434 333.222Z" fill="#4C6BFD"/>
<path d="M430.957 333.478C433.79 333.478 436.087 331.181 436.087 328.348C436.087 325.514 433.79 323.217 430.957 323.217C428.123 323.217 425.826 325.514 425.826 328.348C425.826 331.181 428.123 333.478 430.957 333.478Z" fill="#4C6BFD"/>
<path d="M41.0433 349.383C41.3267 349.383 41.5564 349.153 41.5564 348.87C41.5564 348.586 41.3267 348.357 41.0433 348.357C40.76 348.357 40.5303 348.586 40.5303 348.87C40.5303 349.153 40.76 349.383 41.0433 349.383Z" fill="#4C6BFD"/>
<path d="M61.5655 349.639C61.9905 349.639 62.335 349.295 62.335 348.87C62.335 348.445 61.9905 348.1 61.5655 348.1C61.1404 348.1 60.7959 348.445 60.7959 348.87C60.7959 349.295 61.1404 349.639 61.5655 349.639Z" fill="#4C6BFD"/>
<path d="M82.0871 349.896C82.6538 349.896 83.1132 349.436 83.1132 348.87C83.1132 348.303 82.6538 347.843 82.0871 347.843C81.5204 347.843 81.061 348.303 81.061 348.87C81.061 349.436 81.5204 349.896 82.0871 349.896Z" fill="#4C6BFD"/>
<path d="M102.609 350.152C103.317 350.152 103.891 349.578 103.891 348.87C103.891 348.161 103.317 347.587 102.609 347.587C101.9 347.587 101.326 348.161 101.326 348.87C101.326 349.578 101.9 350.152 102.609 350.152Z" fill="#4C6BFD"/>
<path d="M123.13 350.409C123.98 350.409 124.67 349.72 124.67 348.87C124.67 348.02 123.98 347.33 123.13 347.33C122.28 347.33 121.591 348.02 121.591 348.87C121.591 349.72 122.28 350.409 123.13 350.409Z" fill="#4C6BFD"/>
<path d="M143.652 350.665C144.644 350.665 145.448 349.861 145.448 348.87C145.448 347.878 144.644 347.074 143.652 347.074C142.66 347.074 141.856 347.878 141.856 348.87C141.856 349.861 142.66 350.665 143.652 350.665Z" fill="#4C6BFD"/>
<path d="M164.174 350.922C165.307 350.922 166.226 350.003 166.226 348.87C166.226 347.736 165.307 346.817 164.174 346.817C163.04 346.817 162.122 347.736 162.122 348.87C162.122 350.003 163.04 350.922 164.174 350.922Z" fill="#4C6BFD"/>
<path d="M184.696 351.435C186.112 351.435 187.261 350.286 187.261 348.87C187.261 347.453 186.112 346.304 184.696 346.304C183.279 346.304 182.13 347.453 182.13 348.87C182.13 350.286 183.279 351.435 184.696 351.435Z" fill="#4C6BFD"/>
<path d="M205.217 351.691C206.776 351.691 208.039 350.428 208.039 348.87C208.039 347.311 206.776 346.048 205.217 346.048C203.659 346.048 202.396 347.311 202.396 348.87C202.396 350.428 203.659 351.691 205.217 351.691Z" fill="#4C6BFD"/>
<path d="M225.739 351.948C227.439 351.948 228.817 350.57 228.817 348.87C228.817 347.169 227.439 345.791 225.739 345.791C224.039 345.791 222.661 347.169 222.661 348.87C222.661 350.57 224.039 351.948 225.739 351.948Z" fill="#4C6BFD"/>
<path d="M246.261 352.204C248.103 352.204 249.596 350.711 249.596 348.87C249.596 347.028 248.103 345.535 246.261 345.535C244.419 345.535 242.926 347.028 242.926 348.87C242.926 350.711 244.419 352.204 246.261 352.204Z" fill="#4C6BFD"/>
<path d="M266.783 352.461C268.766 352.461 270.374 350.853 270.374 348.869C270.374 346.886 268.766 345.278 266.783 345.278C264.799 345.278 263.191 346.886 263.191 348.869C263.191 350.853 264.799 352.461 266.783 352.461Z" fill="#4C6BFD"/>
<path d="M287.304 352.717C289.429 352.717 291.152 350.995 291.152 348.87C291.152 346.744 289.429 345.022 287.304 345.022C285.179 345.022 283.457 346.744 283.457 348.87C283.457 350.995 285.179 352.717 287.304 352.717Z" fill="#4C6BFD"/>
<path d="M307.826 352.974C310.093 352.974 311.93 351.136 311.93 348.87C311.93 346.603 310.093 344.765 307.826 344.765C305.559 344.765 303.722 346.603 303.722 348.87C303.722 351.136 305.559 352.974 307.826 352.974Z" fill="#4C6BFD"/>
<path d="M328.348 353.23C330.756 353.23 332.709 351.278 332.709 348.87C332.709 346.461 330.756 344.509 328.348 344.509C325.939 344.509 323.987 346.461 323.987 348.87C323.987 351.278 325.939 353.23 328.348 353.23Z" fill="#4C6BFD"/>
<path d="M348.869 353.487C351.419 353.487 353.487 351.42 353.487 348.87C353.487 346.319 351.419 344.252 348.869 344.252C346.319 344.252 344.252 346.319 344.252 348.87C344.252 351.42 346.319 353.487 348.869 353.487Z" fill="#4C6BFD"/>
<path d="M369.391 353.743C372.083 353.743 374.265 351.561 374.265 348.87C374.265 346.178 372.083 343.996 369.391 343.996C366.7 343.996 364.518 346.178 364.518 348.87C364.518 351.561 366.7 353.743 369.391 353.743Z" fill="#4C6BFD"/>
<path d="M389.913 354C392.747 354 395.044 351.703 395.044 348.87C395.044 346.036 392.747 343.739 389.913 343.739C387.08 343.739 384.783 346.036 384.783 348.87C384.783 351.703 387.08 354 389.913 354Z" fill="#4C6BFD"/>
<path d="M410.435 354C413.268 354 415.565 351.703 415.565 348.87C415.565 346.036 413.268 343.739 410.435 343.739C407.601 343.739 405.304 346.036 405.304 348.87C405.304 351.703 407.601 354 410.435 354Z" fill="#4C6BFD"/>
<path d="M430.957 354.257C433.932 354.257 436.344 351.845 436.344 348.87C436.344 345.895 433.932 343.483 430.957 343.483C427.982 343.483 425.57 345.895 425.57 348.87C425.57 351.845 427.982 354.257 430.957 354.257Z" fill="#4C6BFD"/>
<path d="M20.5217 369.648C20.6633 369.648 20.7782 369.533 20.7782 369.391C20.7782 369.25 20.6633 369.135 20.5217 369.135C20.38 369.135 20.2651 369.25 20.2651 369.391C20.2651 369.533 20.38 369.648 20.5217 369.648Z" fill="#4C6BFD"/>
<path d="M41.0433 369.904C41.3267 369.904 41.5564 369.675 41.5564 369.391C41.5564 369.108 41.3267 368.878 41.0433 368.878C40.76 368.878 40.5303 369.108 40.5303 369.391C40.5303 369.675 40.76 369.904 41.0433 369.904Z" fill="#4C6BFD"/>
<path d="M61.5655 370.161C61.9905 370.161 62.335 369.816 62.335 369.391C62.335 368.966 61.9905 368.622 61.5655 368.622C61.1404 368.622 60.7959 368.966 60.7959 369.391C60.7959 369.816 61.1404 370.161 61.5655 370.161Z" fill="#4C6BFD"/>
<path d="M82.0871 370.417C82.6538 370.417 83.1132 369.958 83.1132 369.391C83.1132 368.825 82.6538 368.365 82.0871 368.365C81.5204 368.365 81.061 368.825 81.061 369.391C81.061 369.958 81.5204 370.417 82.0871 370.417Z" fill="#4C6BFD"/>
<path d="M102.609 370.674C103.317 370.674 103.891 370.1 103.891 369.391C103.891 368.683 103.317 368.109 102.609 368.109C101.9 368.109 101.326 368.683 101.326 369.391C101.326 370.1 101.9 370.674 102.609 370.674Z" fill="#4C6BFD"/>
<path d="M123.131 371.187C124.122 371.187 124.926 370.383 124.926 369.391C124.926 368.4 124.122 367.596 123.131 367.596C122.139 367.596 121.335 368.4 121.335 369.391C121.335 370.383 122.139 371.187 123.131 371.187Z" fill="#4C6BFD"/>
<path d="M143.652 371.443C144.786 371.443 145.704 370.525 145.704 369.391C145.704 368.258 144.786 367.339 143.652 367.339C142.519 367.339 141.6 368.258 141.6 369.391C141.6 370.525 142.519 371.443 143.652 371.443Z" fill="#4C6BFD"/>
<path d="M164.174 371.7C165.449 371.7 166.483 370.666 166.483 369.391C166.483 368.116 165.449 367.083 164.174 367.083C162.899 367.083 161.865 368.116 161.865 369.391C161.865 370.666 162.899 371.7 164.174 371.7Z" fill="#4C6BFD"/>
<path d="M184.696 371.957C186.112 371.957 187.261 370.808 187.261 369.391C187.261 367.975 186.112 366.826 184.696 366.826C183.279 366.826 182.13 367.975 182.13 369.391C182.13 370.808 183.279 371.957 184.696 371.957Z" fill="#4C6BFD"/>
<path d="M205.217 372.213C206.776 372.213 208.039 370.95 208.039 369.391C208.039 367.833 206.776 366.57 205.217 366.57C203.659 366.57 202.396 367.833 202.396 369.391C202.396 370.95 203.659 372.213 205.217 372.213Z" fill="#4C6BFD"/>
<path d="M225.739 372.47C227.439 372.47 228.817 371.091 228.817 369.391C228.817 367.691 227.439 366.313 225.739 366.313C224.039 366.313 222.661 367.691 222.661 369.391C222.661 371.091 224.039 372.47 225.739 372.47Z" fill="#4C6BFD"/>
<path d="M246.261 372.983C248.244 372.983 249.852 371.375 249.852 369.391C249.852 367.408 248.244 365.8 246.261 365.8C244.277 365.8 242.669 367.408 242.669 369.391C242.669 371.375 244.277 372.983 246.261 372.983Z" fill="#4C6BFD"/>
<path d="M266.782 373.239C268.907 373.239 270.63 371.516 270.63 369.391C270.63 367.266 268.907 365.543 266.782 365.543C264.657 365.543 262.935 367.266 262.935 369.391C262.935 371.516 264.657 373.239 266.782 373.239Z" fill="#4C6BFD"/>
<path d="M287.305 373.496C289.571 373.496 291.409 371.658 291.409 369.391C291.409 367.125 289.571 365.287 287.305 365.287C285.038 365.287 283.2 367.125 283.2 369.391C283.2 371.658 285.038 373.496 287.305 373.496Z" fill="#4C6BFD"/>
<path d="M307.826 373.752C310.235 373.752 312.187 371.8 312.187 369.391C312.187 366.983 310.235 365.03 307.826 365.03C305.418 365.03 303.465 366.983 303.465 369.391C303.465 371.8 305.418 373.752 307.826 373.752Z" fill="#4C6BFD"/>
<path d="M328.348 374.009C330.898 374.009 332.965 371.941 332.965 369.391C332.965 366.841 330.898 364.774 328.348 364.774C325.798 364.774 323.73 366.841 323.73 369.391C323.73 371.941 325.798 374.009 328.348 374.009Z" fill="#4C6BFD"/>
<path d="M348.87 374.265C351.561 374.265 353.743 372.083 353.743 369.391C353.743 366.699 351.561 364.517 348.87 364.517C346.178 364.517 343.996 366.699 343.996 369.391C343.996 372.083 346.178 374.265 348.87 374.265Z" fill="#4C6BFD"/>
<path d="M369.391 374.522C372.225 374.522 374.522 372.225 374.522 369.391C374.522 366.558 372.225 364.261 369.391 364.261C366.558 364.261 364.261 366.558 364.261 369.391C364.261 372.225 366.558 374.522 369.391 374.522Z" fill="#4C6BFD"/>
<path d="M389.913 374.778C392.888 374.778 395.3 372.367 395.3 369.391C395.3 366.416 392.888 364.004 389.913 364.004C386.938 364.004 384.526 366.416 384.526 369.391C384.526 372.367 386.938 374.778 389.913 374.778Z" fill="#4C6BFD"/>
<path d="M410.435 374.778C413.41 374.778 415.822 372.367 415.822 369.391C415.822 366.416 413.41 364.004 410.435 364.004C407.46 364.004 405.048 366.416 405.048 369.391C405.048 372.367 407.46 374.778 410.435 374.778Z" fill="#4C6BFD"/>
<path d="M430.956 375.035C434.073 375.035 436.6 372.508 436.6 369.391C436.6 366.274 434.073 363.748 430.956 363.748C427.84 363.748 425.313 366.274 425.313 369.391C425.313 372.508 427.84 375.035 430.956 375.035Z" fill="#4C6BFD"/>
<path d="M20.5217 390.17C20.6633 390.17 20.7782 390.055 20.7782 389.913C20.7782 389.771 20.6633 389.657 20.5217 389.657C20.38 389.657 20.2651 389.771 20.2651 389.913C20.2651 390.055 20.38 390.17 20.5217 390.17Z" fill="#4C6BFD"/>
<path d="M41.0433 390.426C41.3267 390.426 41.5564 390.196 41.5564 389.913C41.5564 389.63 41.3267 389.4 41.0433 389.4C40.76 389.4 40.5303 389.63 40.5303 389.913C40.5303 390.196 40.76 390.426 41.0433 390.426Z" fill="#4C6BFD"/>
<path d="M61.5655 390.683C61.9905 390.683 62.335 390.338 62.335 389.913C62.335 389.488 61.9905 389.143 61.5655 389.143C61.1404 389.143 60.7959 389.488 60.7959 389.913C60.7959 390.338 61.1404 390.683 61.5655 390.683Z" fill="#4C6BFD"/>
<path d="M82.0871 390.939C82.6538 390.939 83.1132 390.48 83.1132 389.913C83.1132 389.346 82.6538 388.887 82.0871 388.887C81.5204 388.887 81.061 389.346 81.061 389.913C81.061 390.48 81.5204 390.939 82.0871 390.939Z" fill="#4C6BFD"/>
<path d="M102.608 391.452C103.458 391.452 104.148 390.763 104.148 389.913C104.148 389.063 103.458 388.374 102.608 388.374C101.758 388.374 101.069 389.063 101.069 389.913C101.069 390.763 101.758 391.452 102.608 391.452Z" fill="#4C6BFD"/>
<path d="M123.131 391.709C124.122 391.709 124.926 390.905 124.926 389.913C124.926 388.921 124.122 388.117 123.131 388.117C122.139 388.117 121.335 388.921 121.335 389.913C121.335 390.905 122.139 391.709 123.131 391.709Z" fill="#4C6BFD"/>
<path d="M143.652 391.965C144.786 391.965 145.704 391.046 145.704 389.913C145.704 388.78 144.786 387.861 143.652 387.861C142.519 387.861 141.6 388.78 141.6 389.913C141.6 391.046 142.519 391.965 143.652 391.965Z" fill="#4C6BFD"/>
<path d="M164.174 392.222C165.449 392.222 166.483 391.188 166.483 389.913C166.483 388.638 165.449 387.604 164.174 387.604C162.899 387.604 161.865 388.638 161.865 389.913C161.865 391.188 162.899 392.222 164.174 392.222Z" fill="#4C6BFD"/>
<path d="M184.696 392.735C186.254 392.735 187.518 391.471 187.518 389.913C187.518 388.355 186.254 387.091 184.696 387.091C183.137 387.091 181.874 388.355 181.874 389.913C181.874 391.471 183.137 392.735 184.696 392.735Z" fill="#4C6BFD"/>
<path d="M205.217 392.991C206.917 392.991 208.296 391.613 208.296 389.913C208.296 388.213 206.917 386.835 205.217 386.835C203.517 386.835 202.139 388.213 202.139 389.913C202.139 391.613 203.517 392.991 205.217 392.991Z" fill="#4C6BFD"/>
<path d="M225.739 393.248C227.581 393.248 229.074 391.755 229.074 389.913C229.074 388.071 227.581 386.578 225.739 386.578C223.897 386.578 222.404 388.071 222.404 389.913C222.404 391.755 223.897 393.248 225.739 393.248Z" fill="#4C6BFD"/>
<path d="M246.261 393.504C248.244 393.504 249.852 391.896 249.852 389.913C249.852 387.93 248.244 386.322 246.261 386.322C244.277 386.322 242.669 387.93 242.669 389.913C242.669 391.896 244.277 393.504 246.261 393.504Z" fill="#4C6BFD"/>
<path d="M266.782 393.761C268.907 393.761 270.63 392.038 270.63 389.913C270.63 387.788 268.907 386.065 266.782 386.065C264.657 386.065 262.935 387.788 262.935 389.913C262.935 392.038 264.657 393.761 266.782 393.761Z" fill="#4C6BFD"/>
<path d="M287.305 394.017C289.571 394.017 291.409 392.18 291.409 389.913C291.409 387.646 289.571 385.809 287.305 385.809C285.038 385.809 283.2 387.646 283.2 389.913C283.2 392.18 285.038 394.017 287.305 394.017Z" fill="#4C6BFD"/>
<path d="M307.826 394.274C310.235 394.274 312.187 392.321 312.187 389.913C312.187 387.505 310.235 385.552 307.826 385.552C305.418 385.552 303.465 387.505 303.465 389.913C303.465 392.321 305.418 394.274 307.826 394.274Z" fill="#4C6BFD"/>
<path d="M328.348 394.53C330.898 394.53 332.965 392.463 332.965 389.913C332.965 387.363 330.898 385.296 328.348 385.296C325.798 385.296 323.73 387.363 323.73 389.913C323.73 392.463 325.798 394.53 328.348 394.53Z" fill="#4C6BFD"/>
<path d="M348.87 395.043C351.703 395.043 354 392.746 354 389.913C354 387.08 351.703 384.783 348.87 384.783C346.036 384.783 343.739 387.08 343.739 389.913C343.739 392.746 346.036 395.043 348.87 395.043Z" fill="#4C6BFD"/>
<path d="M369.391 395.3C372.367 395.3 374.778 392.888 374.778 389.913C374.778 386.938 372.367 384.526 369.391 384.526C366.416 384.526 364.004 386.938 364.004 389.913C364.004 392.888 366.416 395.3 369.391 395.3Z" fill="#4C6BFD"/>
<path d="M389.913 395.557C393.03 395.557 395.557 393.03 395.557 389.913C395.557 386.796 393.03 384.27 389.913 384.27C386.796 384.27 384.27 386.796 384.27 389.913C384.27 393.03 386.796 395.557 389.913 395.557Z" fill="#4C6BFD"/>
<path d="M410.435 395.557C413.551 395.557 416.078 393.03 416.078 389.913C416.078 386.796 413.551 384.27 410.435 384.27C407.318 384.27 404.791 386.796 404.791 389.913C404.791 393.03 407.318 395.557 410.435 395.557Z" fill="#4C6BFD"/>
<path d="M430.957 395.813C434.215 395.813 436.857 393.172 436.857 389.913C436.857 386.655 434.215 384.013 430.957 384.013C427.698 384.013 425.057 386.655 425.057 389.913C425.057 393.172 427.698 395.813 430.957 395.813Z" fill="#4C6BFD"/>
<path d="M246.261 414.026C248.244 414.026 249.852 412.418 249.852 410.435C249.852 408.451 248.244 406.843 246.261 406.843C244.277 406.843 242.669 408.451 242.669 410.435C242.669 412.418 244.277 414.026 246.261 414.026Z" fill="#4C6BFD"/>
<path d="M266.783 414.539C269.049 414.539 270.887 412.702 270.887 410.435C270.887 408.168 269.049 406.33 266.783 406.33C264.516 406.33 262.678 408.168 262.678 410.435C262.678 412.702 264.516 414.539 266.783 414.539Z" fill="#4C6BFD"/>
<path d="M287.304 414.796C289.713 414.796 291.665 412.843 291.665 410.435C291.665 408.026 289.713 406.074 287.304 406.074C284.896 406.074 282.943 408.026 282.943 410.435C282.943 412.843 284.896 414.796 287.304 414.796Z" fill="#4C6BFD"/>
<path d="M307.826 415.052C310.376 415.052 312.444 412.985 312.444 410.435C312.444 407.885 310.376 405.817 307.826 405.817C305.276 405.817 303.209 407.885 303.209 410.435C303.209 412.985 305.276 415.052 307.826 415.052Z" fill="#4C6BFD"/>
<path d="M328.348 415.309C331.039 415.309 333.221 413.126 333.221 410.435C333.221 407.743 331.039 405.561 328.348 405.561C325.656 405.561 323.474 407.743 323.474 410.435C323.474 413.126 325.656 415.309 328.348 415.309Z" fill="#4C6BFD"/>
<path d="M348.87 415.565C351.703 415.565 354 413.268 354 410.435C354 407.601 351.703 405.304 348.87 405.304C346.036 405.304 343.739 407.601 343.739 410.435C343.739 413.268 346.036 415.565 348.87 415.565Z" fill="#4C6BFD"/>
<path d="M369.391 415.822C372.367 415.822 374.778 413.41 374.778 410.435C374.778 407.46 372.367 405.048 369.391 405.048C366.416 405.048 364.004 407.46 364.004 410.435C364.004 413.41 366.416 415.822 369.391 415.822Z" fill="#4C6BFD"/>
<path d="M389.913 416.078C393.03 416.078 395.557 413.552 395.557 410.435C395.557 407.318 393.03 404.791 389.913 404.791C386.796 404.791 384.27 407.318 384.27 410.435C384.27 413.552 386.796 416.078 389.913 416.078Z" fill="#4C6BFD"/>
<path d="M410.435 416.335C413.693 416.335 416.335 413.693 416.335 410.435C416.335 407.176 413.693 404.535 410.435 404.535C407.176 404.535 404.535 407.176 404.535 410.435C404.535 413.693 407.176 416.335 410.435 416.335Z" fill="#4C6BFD"/>
<path d="M430.956 416.591C434.356 416.591 437.113 413.835 437.113 410.435C437.113 407.035 434.356 404.278 430.956 404.278C427.556 404.278 424.8 407.035 424.8 410.435C424.8 413.835 427.556 416.591 430.956 416.591Z" fill="#4C6BFD"/>
</svg>
