<svg width="75" height="76" viewBox="0 0 75 76" fill="none" xmlns="http://www.w3.org/2000/svg">
<ellipse cx="37.5" cy="38" rx="37.5" ry="38" fill="#05A3B3"/>
<path d="M55.4913 24.9776V22.4606C55.4913 22.1596 55.3652 21.8841 55.167 21.686C54.9663 21.4852 54.6934 21.3617 54.3924 21.3617H52.1327C51.8289 21.3617 51.5561 21.4852 51.3554 21.686C51.1572 21.8842 51.0336 22.1596 51.0336 22.4606V24.9777H55.4913V24.9776ZM27.0257 37.2156C26.7607 36.948 26.7607 36.5181 27.0257 36.253C27.2908 35.9854 27.7232 35.9854 27.9883 36.253L28.6086 36.8733L30.3305 35.1489C30.5956 34.8838 31.0279 34.8838 31.2931 35.1489C31.5607 35.4166 31.5607 35.8464 31.2931 36.1141L29.09 38.3172C28.8248 38.5823 28.3924 38.5823 28.1273 38.3172L27.0257 37.2156ZM52.5805 29.3581C52.5805 28.9823 52.8842 28.6761 53.2625 28.6761C53.6383 28.6761 53.9419 28.9823 53.9419 29.3581V43.65C53.9419 44.0257 53.6382 44.332 53.2625 44.332C52.8842 44.332 52.5805 44.0257 52.5805 43.65V29.3581ZM41.8453 52.3981H46.0354V49.4768H41.8453V52.3981ZM46.7148 53.7595C39.3128 53.7595 31.908 53.7595 24.506 53.7595C24.1302 53.7595 23.8239 53.4532 23.8239 53.0774V48.7948C23.8239 48.419 24.1302 48.1154 24.506 48.1154H29.3781V44.2341C29.3781 43.8584 29.6818 43.5548 30.0575 43.5548H35.6116C35.9874 43.5548 36.2911 43.8585 36.2911 44.2341V45.4438H41.1632C41.539 45.4438 41.8452 45.7501 41.8452 46.1259V48.1154H46.7147C47.0905 48.1154 47.3968 48.4191 47.3968 48.7948V53.0774C47.3969 53.4532 47.0906 53.7595 46.7148 53.7595ZM36.2912 52.3981H40.4813V46.8079H36.2912V52.3981ZM30.7397 52.3981H34.9297V46.1259V44.9163H30.7397V52.3981ZM25.1855 52.3981H29.3782V49.4768H25.1855V52.3981ZM22.3132 28.6762H49.6696V25.6572V22.4606C49.6696 21.7838 49.9475 21.1687 50.3928 20.7234C50.838 20.2781 51.4531 20.0001 52.1327 20.0001H54.3924C55.0692 20.0001 55.6844 20.2781 56.1296 20.7234C56.5749 21.1686 56.8528 21.7838 56.8528 22.4606V25.6572V28.6762H59.8075C60.1833 28.6762 60.4869 28.9824 60.4869 29.3582V56.0552C60.4869 56.431 60.1832 56.7347 59.8075 56.7347H40.9548C40.579 56.7347 40.2754 56.4309 40.2754 56.0552C40.2754 55.6795 40.5791 55.3731 40.9548 55.3731H59.1255V30.0376H56.8529V34.9612C56.8529 35.337 56.5466 35.6432 56.1709 35.6432C55.7951 35.6432 55.4913 35.337 55.4913 34.9612V29.3582V26.3393H51.0336V29.3582V46.669H55.4913V38.047C55.4913 37.6712 55.7951 37.365 56.1709 37.365C56.5466 37.365 56.8529 37.6712 56.8529 38.047V47.3484C56.8529 47.5131 56.8091 47.5956 56.737 47.7345L53.8699 53.3812C53.8056 53.5073 53.7027 53.6153 53.5662 53.6849C53.2316 53.8548 52.825 53.7183 52.6551 53.3838L49.7776 47.7217C49.7107 47.5853 49.6696 47.5081 49.6696 47.3485V30.0376H22.3132V35.1902C22.3132 35.566 22.0095 35.8723 21.6337 35.8723C21.2579 35.8723 20.9516 35.566 20.9516 35.1902V29.3582V21.9124C20.3674 21.5471 19.7085 21.3617 19.0188 21.3617C18.0099 21.3617 17.0962 21.771 16.4321 22.4324C15.7707 23.0964 15.3614 24.01 15.3614 25.019V48.2801C15.3974 48.2415 15.4335 48.2029 15.4694 48.1669C16.378 47.2583 17.634 46.6973 19.0187 46.6973C19.5721 46.6973 20.1074 46.79 20.6144 46.9573C20.7277 46.9959 20.8409 47.0396 20.9515 47.0859V38.2762C20.9515 37.9004 21.2578 37.5941 21.6336 37.5941C22.0094 37.5941 22.3131 37.9004 22.3131 38.2762V48.2544C22.3131 48.396 22.2668 48.5401 22.1741 48.6638C21.9502 48.9623 21.5229 49.0214 21.2218 48.795C20.9104 48.5582 20.5577 48.3703 20.182 48.2467C19.8218 48.1258 19.4305 48.0589 19.0188 48.0589C18.0099 48.0589 17.0962 48.4682 16.4321 49.1296C15.7707 49.791 15.3614 50.7073 15.3614 51.7161C15.3614 52.7276 15.7706 53.6412 16.4321 54.3027C17.0961 54.9641 18.0098 55.3733 19.0188 55.3733H37.8714C38.2472 55.3733 38.5508 55.6797 38.5508 56.0554C38.5508 56.4312 38.2471 56.7349 37.8714 56.7349H19.0188C17.6341 56.7349 16.3781 56.1738 15.4695 55.2653C14.561 54.3567 14 53.1033 14 51.716V25.0189C14 23.6342 14.561 22.3782 15.4695 21.4697C16.3781 20.5611 17.6341 20 19.0188 20C20.092 20 21.1472 20.35 22.0094 20.9884C22.1921 21.1119 22.3131 21.3203 22.3131 21.5572V28.6762H22.3132ZM55.0641 48.0305H51.4583L53.2625 51.5796L55.0641 48.0305ZM45.9633 32.8018C46.3391 32.8018 46.6427 33.1081 46.6427 33.4839C46.6427 33.8597 46.339 34.1633 45.9633 34.1633H36.7467C36.3709 34.1633 36.0673 33.8596 36.0673 33.4839C36.0673 33.1081 36.371 32.8018 36.7467 32.8018H45.9633ZM42.1311 39.303C42.5094 39.303 42.8131 39.6067 42.8131 39.9824C42.8131 40.3581 42.5094 40.6645 42.1311 40.6645H36.7468C36.371 40.6645 36.0674 40.3582 36.0674 39.9824C36.0674 39.6066 36.3711 39.303 36.7468 39.303H42.1311ZM45.9633 36.0523C46.3391 36.0523 46.6427 36.3561 46.6427 36.7344C46.6427 37.1102 46.339 37.4139 45.9633 37.4139H36.7467C36.3709 37.4139 36.0673 37.1101 36.0673 36.7344C36.0673 36.3561 36.371 36.0523 36.7467 36.0523H45.9633ZM25.2601 32.1506H33.0611C33.4369 32.1506 33.7405 32.4569 33.7405 32.8327V40.6336C33.7405 41.0094 33.4368 41.3156 33.0611 41.3156H25.2601C24.8818 41.3156 24.5781 41.0094 24.5781 40.6336V32.8327C24.5781 32.4569 24.8818 32.1506 25.2601 32.1506ZM32.3791 33.5147H25.9396V39.9542H32.3791V33.5147Z" fill="white"/>
</svg>
