<svg width="75" height="76" viewBox="0 0 75 76" fill="none" xmlns="http://www.w3.org/2000/svg">
<ellipse cx="37.5" cy="38" rx="37.5" ry="38" fill="#05A3B3"/>
<path d="M32.7158 50.2225C32.5364 50.0555 32.3886 49.8605 32.2766 49.6428L31.2551 47.657C31.0991 47.3539 30.7272 47.2348 30.4242 47.3906C30.1212 47.5465 30.0019 47.9185 30.1578 48.2214L31.1794 50.2072C31.3569 50.5523 31.591 50.8613 31.8753 51.1259L35.8698 54.8417V58.383C35.8698 58.7238 36.146 59 36.4868 59C36.8276 59 37.1037 58.7238 37.1037 58.383V54.5731C37.1037 54.4017 37.0325 54.2381 36.9069 54.1214L32.7158 50.2225Z" fill="white"/>
<path d="M30.0471 45.3091L27.3076 39.9839C27.3058 39.9806 27.304 39.9772 27.3022 39.9738C27.0752 39.5519 27.177 39.0224 27.5443 38.7148C27.9363 38.3865 28.5139 38.4017 28.888 38.7504L32.5074 42.1229C32.6871 42.2903 32.9488 42.3352 33.1741 42.2372C33.3992 42.1393 33.5449 41.9171 33.5449 41.6715V33.7495C33.5449 33.4087 33.2687 33.1326 32.9279 33.1326C32.5872 33.1326 32.311 33.4087 32.311 33.7495V40.2533L29.7292 37.8476C28.9004 37.0754 27.6206 37.0415 26.7522 37.7688C25.9399 38.4491 25.7137 39.619 26.2128 40.553L28.9499 45.8735C29.0594 46.0863 29.2753 46.2084 29.4991 46.2084C29.5941 46.2084 29.6905 46.1863 29.7808 46.1399C30.0836 45.984 30.2029 45.612 30.0471 45.3091Z" fill="white"/>
<path d="M47.3324 31.818C46.5057 31.818 45.7657 32.1951 45.2746 32.7861C44.7836 32.1951 44.0434 31.818 43.2168 31.818C42.3902 31.818 41.6501 32.1951 41.159 32.7861C40.6681 32.1951 39.9279 31.818 39.1013 31.818C38.571 31.818 38.0767 31.9738 37.6604 32.2411V27.3313C37.6604 25.8565 36.4605 24.6566 34.9857 24.6566C33.5109 24.6566 32.311 25.8565 32.311 27.3313V31.1203C32.311 31.4611 32.5873 31.7373 32.928 31.7373C33.2687 31.7373 33.5449 31.4611 33.5449 31.1203V27.3313C33.5449 26.5368 34.1913 25.8904 34.9857 25.8904C35.7802 25.8904 36.4266 26.5367 36.4266 27.3313V38.2891C36.4266 38.6299 36.7027 38.906 37.0435 38.906C37.3843 38.906 37.6604 38.6299 37.6604 38.2891V34.4927C37.6604 33.6983 38.3067 33.0519 39.1013 33.0519C39.8958 33.0519 40.5421 33.6982 40.5421 34.4927V38.2857C40.5421 38.6265 40.8183 38.9026 41.159 38.9026C41.4998 38.9026 41.776 38.6265 41.776 38.2857V34.4927C41.776 33.6983 42.4223 33.0519 43.2168 33.0519C44.0114 33.0519 44.6577 33.6982 44.6577 34.4927V38.2857C44.6577 38.6265 44.9338 38.9026 45.2746 38.9026C45.6154 38.9026 45.8915 38.6265 45.8915 38.2857V34.4927C45.8915 33.6983 46.5379 33.0519 47.3324 33.0519C48.127 33.0519 48.7733 33.6982 48.7733 34.4927V51.0233C48.7733 51.3375 48.6897 51.6472 48.5317 51.9187L47.541 53.6211C47.4863 53.7154 47.4573 53.8224 47.4573 53.9314V58.2996C47.4573 58.6404 47.7335 58.9165 48.0742 58.9165C48.415 58.9165 48.6912 58.6404 48.6912 58.2996V54.0979L49.5981 52.5393C49.8657 52.0794 50.0071 51.5553 50.0071 51.0233V34.4927C50.0071 33.0179 48.8073 31.818 47.3324 31.818Z" fill="white"/>
<path d="M40.0784 25.6789C40.0784 26.8142 39.7132 27.8897 39.0222 28.7893C38.8147 29.0596 38.8655 29.4468 39.1357 29.6545C39.2477 29.7405 39.3799 29.7821 39.511 29.7821C39.6962 29.7821 39.8794 29.6991 40.0008 29.5409C40.8588 28.4239 41.3122 27.0884 41.3122 25.679C41.3122 24.7047 41.0965 23.7688 40.671 22.8975C40.5216 22.5913 40.1522 22.4642 39.8459 22.6139C39.5397 22.7634 39.4127 23.1329 39.5623 23.4389C39.9047 24.1401 40.0784 24.8938 40.0784 25.6789Z" fill="white"/>
<path d="M29.9751 29.5989C30.0968 29.7537 30.2777 29.8344 30.4604 29.8344C30.5939 29.8344 30.7283 29.7913 30.8414 29.7024C31.1093 29.4917 31.1556 29.1039 30.9449 28.8361C30.2299 27.9271 29.852 26.8354 29.852 25.679C29.852 22.8597 32.1457 20.566 34.965 20.566C36.0993 20.566 37.1742 20.9307 38.0734 21.6206C38.3436 21.828 38.7311 21.7769 38.9384 21.5067C39.1458 21.2364 39.0948 20.8491 38.8245 20.6416C37.7079 19.7848 36.3733 19.3321 34.965 19.3321C31.4654 19.3321 28.6182 22.1793 28.6182 25.679C28.6182 27.1148 29.0874 28.4702 29.9751 29.5989Z" fill="white"/>
<path d="M28.8771 34.2433C28.9856 34.3206 29.1105 34.3578 29.2344 34.3578C29.4272 34.3578 29.6172 34.2676 29.7375 34.0986C29.9352 33.8211 29.8703 33.4359 29.5928 33.2383C27.1502 31.499 25.6919 28.6732 25.6919 25.679C25.6919 22.6849 27.1502 19.8589 29.5928 18.1197C29.8704 17.9222 29.9352 17.5369 29.7375 17.2593C29.5399 16.9818 29.1547 16.917 28.8772 17.1146C26.11 19.0849 24.458 22.2865 24.458 25.679C24.4579 29.0715 26.1099 32.2732 28.8771 34.2433Z" fill="white"/>
<path d="M40.3367 18.1196C42.7794 19.8588 44.2378 22.6847 44.2378 25.6788C44.2378 26.8744 44.0136 28.0379 43.5716 29.1369C43.4445 29.4531 43.5976 29.8124 43.9137 29.9395C43.9893 29.9698 44.0671 29.9842 44.1438 29.9842C44.3882 29.9842 44.6196 29.838 44.7163 29.5974C45.2175 28.3513 45.4716 27.0329 45.4716 25.6788C45.4716 22.2863 43.8196 19.0847 41.0525 17.1145C40.7747 16.9168 40.3896 16.9816 40.1921 17.2591C39.9945 17.5368 40.0592 17.922 40.3367 18.1196Z" fill="white"/>
<path d="M20.805 21.8104C20.9266 21.941 21.0913 22.007 21.2567 22.007C21.4072 22.007 21.5581 21.9522 21.6769 21.8416C21.9263 21.6095 21.9403 21.2191 21.7081 20.9697L20.3664 19.5285C20.1341 19.2791 19.7438 19.2653 19.4944 19.4973C19.245 19.7295 19.2311 20.1199 19.4633 20.3693L20.805 21.8104Z" fill="white"/>
<path d="M20.805 27.9265L19.4632 29.3676C19.2311 29.6169 19.245 30.0073 19.4943 30.2395C19.6132 30.3502 19.7641 30.4049 19.9146 30.4049C20.0799 30.4049 20.2447 30.3389 20.3663 30.2083L21.708 28.7673C21.9401 28.5179 21.9262 28.1275 21.6769 27.8953C21.4276 27.6634 21.0373 27.6772 20.805 27.9265Z" fill="white"/>
<path d="M21.2568 24.0031H19.6169C19.2762 24.0031 19 24.2792 19 24.62C19 24.9608 19.2762 25.2369 19.6169 25.2369H21.2568C21.5975 25.2369 21.8738 24.9608 21.8738 24.62C21.8738 24.2792 21.5975 24.0031 21.2568 24.0031Z" fill="white"/>
</svg>
