<svg width="75" height="76" viewBox="0 0 75 76" fill="none" xmlns="http://www.w3.org/2000/svg">
<ellipse cx="37.5" cy="38" rx="37.5" ry="38" fill="#05A3B3"/>
<path d="M32.9938 59.1847C35.5266 59.1847 37.6234 57.3037 37.9745 54.8662H45.6512L44.7206 55.7969L45.7383 56.8146L47.8976 54.6554C48.0382 54.5148 48.1084 54.3306 48.1084 54.1465C48.1084 53.9623 48.0382 53.7782 47.8976 53.6376L45.7383 51.4784L44.7206 52.4961L45.6512 53.4268H37.9745C37.6234 50.9893 35.5266 49.1083 32.9938 49.1083C30.216 49.1083 27.9556 51.3684 27.9556 54.1465C27.9556 56.9246 30.216 59.1847 32.9938 59.1847ZM32.9938 50.5478C34.978 50.5478 36.5925 52.1623 36.5925 54.1465C36.5925 56.1307 34.978 57.7452 32.9938 57.7452C31.0096 57.7452 29.3951 56.1307 29.3951 54.1465C29.3951 52.1623 31.0096 50.5478 32.9938 50.5478Z" fill="white"/>
<path d="M53.1461 59.1847C55.9239 59.1847 58.1843 56.9246 58.1843 54.1465C58.1843 51.3684 55.9239 49.1083 53.1461 49.1083C50.3684 49.1083 48.1079 51.3684 48.1079 54.1465C48.1079 56.9246 50.3684 59.1847 53.1461 59.1847ZM53.1461 50.5478C55.1304 50.5478 56.7449 52.1623 56.7449 54.1465C56.7449 56.1307 55.1304 57.7452 53.1461 57.7452C51.1619 57.7452 49.5474 56.1307 49.5474 54.1465C49.5474 52.1623 51.1619 50.5478 53.1461 50.5478Z" fill="white"/>
<path d="M30.1147 32.5541C27.5818 32.5541 25.4851 34.4351 25.1339 36.8726H23.9968C19.0359 36.8726 15 40.9085 15 45.8694C15 50.8303 19.0359 54.8663 23.9968 54.8663H25.4982L24.5676 55.7969L25.5853 56.8146L27.7446 54.6554C27.8851 54.5148 27.9554 54.3307 27.9554 54.1465C27.9554 53.9624 27.8851 53.7782 27.7446 53.6376L25.5853 51.4784L24.5676 52.4962L25.4982 53.4268H23.9968C19.8295 53.4268 16.4395 50.0364 16.4395 45.8694C16.4395 41.7024 19.8295 38.3121 23.9968 38.3121H25.1339C25.4851 40.7496 27.5818 42.6306 30.1147 42.6306C32.8924 42.6306 35.1529 40.3705 35.1529 37.5924C35.1529 34.8142 32.8924 32.5541 30.1147 32.5541ZM30.1147 41.1911C28.1304 41.1911 26.5159 39.5766 26.5159 37.5924C26.5159 35.6081 28.1304 33.9936 30.1147 33.9936C32.0989 33.9936 33.7134 35.6081 33.7134 37.5924C33.7134 39.5766 32.0989 41.1911 30.1147 41.1911Z" fill="white"/>
<path d="M32.7833 18.3702L31.7655 19.3879L32.6961 20.3185H25.0195C24.6683 17.881 22.5715 16.0001 20.0387 16.0001C17.2609 16.0001 15.0005 18.2602 15.0005 21.0383C15.0005 23.8164 17.2609 26.0765 20.0387 26.0765C22.5715 26.0765 24.6683 24.1955 25.0195 21.758H32.6961L31.7655 22.6886L32.7833 23.7064L34.9425 21.5472C35.0831 21.4066 35.1534 21.2224 35.1534 21.0383C35.1534 20.8541 35.0831 20.67 34.9425 20.5294L32.7833 18.3702ZM20.0387 24.637C18.0545 24.637 16.44 23.0225 16.44 21.0383C16.44 19.0541 18.0545 17.4396 20.0387 17.4396C22.0229 17.4396 23.6374 19.0541 23.6374 21.0383C23.6374 23.0225 22.0229 24.637 20.0387 24.637Z" fill="white"/>
<path d="M58.1847 29.3153C58.1847 24.3544 54.1488 20.3185 49.1879 20.3185H45.1718C44.8207 17.881 42.7239 16 40.1911 16C37.4133 16 35.1528 18.2601 35.1528 21.0382C35.1528 23.8163 37.4133 26.0764 40.1911 26.0764C42.7239 26.0764 44.8207 24.1955 45.1718 21.758H49.1879C53.3552 21.758 56.7452 25.1483 56.7452 29.3153C56.7452 33.4823 53.3552 36.8726 49.1879 36.8726H37.6101L38.5407 35.942L37.5229 34.9242L35.3637 37.0835C35.2231 37.2241 35.1528 37.4082 35.1528 37.5924C35.1528 37.7765 35.2231 37.9607 35.3637 38.1012L37.5229 40.2605L38.5407 39.2427L37.6101 38.3121H49.1879C54.1488 38.3121 58.1847 34.2762 58.1847 29.3153ZM40.1911 24.6369C38.2068 24.6369 36.5923 23.0224 36.5923 21.0382C36.5923 19.054 38.2068 17.4395 40.1911 17.4395C42.1753 17.4395 43.7898 19.054 43.7898 21.0382C43.7898 23.0224 42.1753 24.6369 40.1911 24.6369Z" fill="white"/>
</svg>
