<svg width="75" height="76" viewBox="0 0 75 76" fill="none" xmlns="http://www.w3.org/2000/svg">
<ellipse cx="37.5" cy="38" rx="37.5" ry="38" fill="#05A3B3"/>
<g clip-path="url(#clip0)">
<path d="M34.4549 51.7954C34.0814 51.5871 33.6098 51.7212 33.4016 52.0946C32.5417 53.637 31.4088 55.0643 30.0341 56.3366C28.517 57.7407 26.9105 58.5918 25.2595 58.8661C23.7887 59.1106 22.2891 58.8748 20.9234 58.1843C17.2294 56.3168 15.0342 51.5942 15.5853 46.6998C16.0654 42.4333 18.5745 40.7962 19.2686 40.4211C21.5753 41.0355 24.5966 41.3816 28.2559 41.4482C28.7415 41.4585 29.2335 41.4637 29.7312 41.4637C30.795 41.4637 31.8838 41.4401 32.9831 41.3932L33.5074 41.3688C33.9345 41.3495 34.2653 40.9877 34.246 40.5605C34.2268 40.1333 33.864 39.8008 33.4378 39.8218L32.9163 39.846C31.3362 39.9135 29.7791 39.9319 28.2864 39.8999C24.6553 39.8337 21.6968 39.4902 19.4932 38.8788C19.4869 38.8769 19.4804 38.8753 19.4741 38.8735C16.4384 38.0843 14.5872 36.8868 13.9718 35.3141C13.0315 32.9118 12.4884 29.5115 12.5542 26.4396C12.628 22.9955 13.4143 20.3641 14.7682 19.03C15.9477 17.8676 17.5316 17.7152 19.6106 18.5647C22.0205 19.5491 24.5257 21.5743 27.0566 24.5841C28.9517 26.838 30.8196 29.5881 32.608 32.758C32.8181 33.1305 33.2905 33.2621 33.6628 33.0519C34.0353 32.8418 34.1667 32.3695 33.9567 31.9971C28.3541 22.0675 23.3812 18.4323 20.1961 17.1311C18.3554 16.3793 15.7312 15.907 13.6813 17.927C11.4648 20.111 11.0538 24.1772 11.0059 26.4065C10.9349 29.7185 11.5046 33.2595 12.5296 35.8785C13.1988 37.5885 14.8322 38.9201 17.3926 39.8503C17.1366 40.0644 16.8795 40.3036 16.6388 40.5604C15.6428 41.6236 14.3846 43.5217 14.0463 46.5265C13.7338 49.3033 14.1845 52.0341 15.3497 54.4233C16.4675 56.7156 18.1988 58.542 20.2246 59.5661C21.4804 60.2009 22.7891 60.5139 24.1065 60.5138C26.4969 60.5137 28.9144 59.4825 31.0858 57.4729C32.5805 56.0896 33.8147 54.5338 34.7542 52.8484C34.9624 52.4751 34.8284 52.0035 34.4549 51.7954Z" fill="white"/>
<path d="M63.9939 26.4065C63.9461 24.1772 63.535 20.111 61.3186 17.927C59.2686 15.907 56.6444 16.3794 54.8039 17.1311C51.6188 18.4322 46.6461 22.0673 41.044 31.9961C40.8338 32.3685 40.9654 32.8407 41.3377 33.0509C41.7101 33.261 42.1823 33.1294 42.3926 32.757C44.181 29.5873 46.0487 26.8374 47.9439 24.5837C50.4745 21.5741 52.9795 19.549 55.3894 18.5647C57.4684 17.7155 59.0521 17.8678 60.2317 19.03C61.5856 20.3641 62.3719 22.9956 62.4457 26.4397C62.5116 29.5114 61.9684 32.9119 61.0282 35.3142C60.4127 36.8869 58.5615 38.0843 55.5259 38.8735C55.5201 38.8751 55.5143 38.8766 55.5086 38.8783C53.3048 39.4901 50.3457 39.8338 46.7111 39.9C45.0636 39.9349 43.3461 39.9094 41.6066 39.8241C41.1791 39.8028 40.8162 40.1324 40.7953 40.5595C40.7744 40.9865 41.1037 41.3497 41.5307 41.3708C42.792 41.4327 44.0423 41.4637 45.2636 41.4637C45.7615 41.4637 46.2547 41.4584 46.7417 41.4482C50.4036 41.3815 53.4253 41.0355 55.732 40.4208C56.4255 40.7955 58.9355 42.4325 59.4157 46.6998C59.9666 51.5943 57.7716 56.3169 54.0776 58.1843C52.7119 58.8747 51.2125 59.1104 49.7415 58.8661C48.0904 58.5918 46.484 57.7408 44.9669 56.3365C43.5694 55.0432 42.4221 53.5903 41.5567 52.0176C41.3505 51.643 40.8798 51.5063 40.5051 51.7127C40.1304 51.9189 39.9939 52.3897 40.2001 52.7643C41.1457 54.4826 42.3957 56.0668 43.9152 57.473C46.0867 59.4829 48.5038 60.5139 50.8945 60.5139C52.2117 60.5139 53.5208 60.2009 54.7764 59.5662C56.8022 58.542 58.5335 56.7157 59.6513 54.4235C60.8165 52.0342 61.2672 49.3036 60.9547 46.5267C60.6165 43.5218 59.3582 41.6236 58.3621 40.5605C58.1214 40.3035 57.8641 40.0643 57.608 39.8501C60.168 38.9199 61.8012 37.5884 62.4704 35.8786C63.4953 33.2595 64.0648 29.7185 63.9939 26.4065Z" fill="white"/>
<path d="M44.4672 20.1523C44.4261 19.7268 44.0486 19.4132 43.6221 19.4561C43.1965 19.4971 42.8848 19.8754 42.9259 20.3011C42.9861 20.9253 42.8668 21.5542 42.5806 22.1201C42.5753 22.1304 42.5703 22.1409 42.5656 22.1514L38.7279 30.6657C38.355 30.4899 37.9388 30.3912 37.4999 30.3912C37.0614 30.3912 36.6456 30.4898 36.2728 30.6653L32.4353 22.1514C32.4306 22.1409 32.4256 22.1304 32.4203 22.1201C32.1341 21.5543 32.0147 20.9254 32.075 20.3011C32.1161 19.8754 31.8044 19.4971 31.3787 19.4561C30.9529 19.4128 30.5747 19.7267 30.5336 20.1523C30.4457 21.0629 30.6175 21.9792 31.0304 22.8028L35.0576 31.7376C34.7736 32.1849 34.6083 32.7146 34.6083 33.2826C34.6083 33.9994 34.871 34.6556 35.3046 35.1613C35.1373 36.4324 35.0485 37.8779 35.0485 39.3732C35.0485 41.6566 35.249 45.3267 35.5361 48.2983C35.7004 49.9986 35.8809 51.377 36.0725 52.3953C36.3452 53.844 36.6117 54.4831 37.0763 54.7299C37.1939 54.8018 37.3321 54.8433 37.4799 54.8433C37.4934 54.8433 37.506 54.8433 37.5195 54.8433C37.6496 54.8433 37.7763 54.8092 37.8887 54.7473C38.3748 54.5139 38.6477 53.8795 38.927 52.3953C39.1186 51.377 39.2991 49.9986 39.4634 48.2983C39.7506 45.3267 39.9511 41.6566 39.9511 39.3732C39.9511 37.8781 39.8622 36.4327 39.695 35.1613C40.1286 34.6556 40.3913 33.9994 40.3913 33.2826C40.3913 32.7151 40.2263 32.1857 39.9428 31.7386L43.9705 22.8028C44.3834 21.9791 44.5551 21.0629 44.4672 20.1523ZM37.4999 51.518C37.0496 48.6631 36.5972 43.3792 36.5972 39.3732C36.5972 38.2194 36.6515 37.0991 36.7559 36.0764C36.9934 36.1398 37.2427 36.174 37.4999 36.174C37.7572 36.174 38.0064 36.1397 38.244 36.0764C38.3484 37.0992 38.4028 38.2195 38.4028 39.3732C38.4028 43.3791 37.9502 48.6631 37.4999 51.518ZM38.3713 34.3024C38.3451 34.3249 38.3178 34.3458 38.2902 34.3659C38.2847 34.37 38.2794 34.3742 38.2738 34.3782C38.2476 34.3967 38.2207 34.4138 38.1934 34.4303C38.1856 34.4351 38.1779 34.44 38.1701 34.4445C38.1438 34.4597 38.1169 34.4738 38.0896 34.4872C38.0799 34.4919 38.0702 34.4968 38.0604 34.5013C38.0342 34.5135 38.0076 34.5246 37.9806 34.535C37.9686 34.5396 37.9564 34.544 37.9442 34.5483C37.9187 34.5573 37.8931 34.5657 37.8672 34.5732C37.8517 34.5776 37.8359 34.5815 37.8202 34.5853C37.7967 34.5911 37.7732 34.5968 37.7493 34.6013C37.7277 34.6054 37.7057 34.6084 37.6838 34.6114C37.6649 34.6141 37.6461 34.6172 37.627 34.619C37.5851 34.623 37.5428 34.6255 37.4998 34.6255C37.4569 34.6255 37.4145 34.623 37.3726 34.619C37.3536 34.6172 37.3348 34.6141 37.3159 34.6114C37.2939 34.6084 37.272 34.6055 37.2503 34.6013C37.2265 34.5968 37.203 34.5911 37.1794 34.5853C37.1637 34.5815 37.148 34.5776 37.1324 34.5732C37.1065 34.5657 37.0808 34.5573 37.0554 34.5483C37.0432 34.544 37.0311 34.5396 37.019 34.535C36.9921 34.5246 36.9655 34.5135 36.9393 34.5013C36.9294 34.4968 36.9197 34.492 36.91 34.4872C36.8828 34.4738 36.8558 34.4597 36.8296 34.4445C36.8217 34.44 36.814 34.4351 36.8063 34.4303C36.7789 34.4138 36.752 34.3967 36.7258 34.3782C36.7202 34.3742 36.715 34.37 36.7095 34.3659C36.6818 34.3457 36.6545 34.3249 36.6283 34.3024C36.3402 34.0559 36.1568 33.6905 36.1568 33.2826C36.1568 32.5421 36.7593 31.9396 37.4998 31.9396C38.2404 31.9396 38.8428 32.5421 38.8428 33.2826C38.8429 33.6905 38.6594 34.0559 38.3713 34.3024Z" fill="white"/>
</g>
<defs>
<clipPath id="clip0">
<rect width="53" height="53" fill="white" transform="translate(11 12)"/>
</clipPath>
</defs>
</svg>
