<svg width="75" height="76" viewBox="0 0 75 76" fill="none" xmlns="http://www.w3.org/2000/svg">
<ellipse cx="37.5" cy="38" rx="37.5" ry="38" fill="#05A3B3"/>
<path d="M19.5938 40.1562H21.0312V41.5938H19.5938V40.1562Z" fill="white"/>
<path d="M22.4688 40.1562H23.9062V41.5938H22.4688V40.1562Z" fill="white"/>
<path d="M25.3438 40.1562H26.7812V41.5938H25.3438V40.1562Z" fill="white"/>
<path d="M61.2812 24.3438H43.991C44.0126 24.1051 44.0312 23.8651 44.0312 23.625C44.0312 19.2658 40.4842 15.7188 36.125 15.7188C33.4376 15.7188 30.9809 17.0779 29.5262 19.2952C28.7032 18.8489 27.7688 18.5938 26.7812 18.5938C23.6108 18.5938 21.0312 21.1733 21.0312 24.3438V24.3948C18.5961 24.7448 16.7188 26.8443 16.7188 29.375C16.7188 32.1487 18.9763 34.4062 21.75 34.4062H32.5312V37.2812H16.7188V60.2812H45.4688V47.3438H61.2812V24.3438ZM59.8438 30.0938H33.9688V25.7812H59.8438V30.0938ZM21.75 32.9688C19.7684 32.9688 18.1562 31.3566 18.1562 29.375C18.1562 27.3934 19.7684 25.7812 21.7256 25.7805L22.6362 25.7841L22.5191 24.964C22.4846 24.7225 22.4688 24.5256 22.4688 24.3438C22.4688 21.9654 24.4029 20.0312 26.7812 20.0312C28.6687 20.0312 30.3211 21.2395 30.8925 23.0363L32.2624 22.6015C31.9534 21.6298 31.3992 20.7967 30.692 20.1383C31.8765 18.2912 33.9041 17.1562 36.125 17.1562C39.6922 17.1562 42.5938 20.0578 42.5938 23.625C42.5938 23.8651 42.5801 24.1058 42.5535 24.3438H32.5312V32.9688H21.75ZM44.0312 38.7188V43.0312H18.1562V38.7188H44.0312ZM18.1562 58.8438V44.4688H44.0312V58.8438H18.1562ZM45.4688 45.9062V37.2812H33.9688V31.5312H59.8438V45.9062H45.4688Z" fill="white"/>
<path d="M35.4062 27.2188H36.8438V28.6562H35.4062V27.2188Z" fill="white"/>
<path d="M38.2812 27.2188H39.7188V28.6562H38.2812V27.2188Z" fill="white"/>
<path d="M41.1562 27.2188H42.5938V28.6562H41.1562V27.2188Z" fill="white"/>
<path d="M27.9075 52.0113C28.5429 51.363 28.9375 50.4775 28.9375 49.5C28.9375 47.5184 27.3253 45.9062 25.3438 45.9062C23.3622 45.9062 21.75 47.5184 21.75 49.5C21.75 50.4775 22.1446 51.363 22.78 52.0113C20.917 52.7495 19.5938 54.565 19.5938 56.6875V57.4062H31.0938V56.6875C31.0938 54.565 29.7705 52.7495 27.9075 52.0113ZM25.3438 47.3438C26.5326 47.3438 27.5 48.3112 27.5 49.5C27.5 50.6888 26.5326 51.6562 25.3438 51.6562C24.1549 51.6562 23.1875 50.6888 23.1875 49.5C23.1875 48.3112 24.1549 47.3438 25.3438 47.3438ZM21.1038 55.9688C21.4381 54.3307 22.8892 53.0938 24.625 53.0938H26.0625C27.7983 53.0938 29.2502 54.3307 29.5837 55.9688H21.1038Z" fill="white"/>
<path d="M55.22 39.0738C55.8554 38.4255 56.25 37.54 56.25 36.5625C56.25 34.5809 54.6378 32.9688 52.6562 32.9688C50.6747 32.9688 49.0625 34.5809 49.0625 36.5625C49.0625 37.54 49.4571 38.4255 50.0925 39.0738C48.2295 39.812 46.9062 41.6275 46.9062 43.75V44.4688H58.4062V43.75C58.4062 41.6275 57.083 39.812 55.22 39.0738ZM52.6562 34.4062C53.8451 34.4062 54.8125 35.3737 54.8125 36.5625C54.8125 37.7513 53.8451 38.7188 52.6562 38.7188C51.4674 38.7188 50.5 37.7513 50.5 36.5625C50.5 35.3737 51.4674 34.4062 52.6562 34.4062ZM48.4163 43.0312C48.7506 41.3932 50.2017 40.1562 51.9375 40.1562H53.375C55.1108 40.1562 56.5627 41.3932 56.8962 43.0312H48.4163Z" fill="white"/>
<path d="M35.4062 32.9688H46.9062V34.4062H35.4062V32.9688Z" fill="white"/>
<path d="M32.5312 45.9062H42.5938V47.3438H32.5312V45.9062Z" fill="white"/>
<path d="M32.5312 48.7812H42.5938V50.2188H32.5312V48.7812Z" fill="white"/>
<path d="M32.5312 51.6562H42.5938V53.0938H32.5312V51.6562Z" fill="white"/>
<path d="M41.1562 54.5312H42.5938V55.9688H41.1562V54.5312Z" fill="white"/>
<path d="M38.2812 54.5312H39.7188V55.9688H38.2812V54.5312Z" fill="white"/>
<path d="M35.4062 54.5312H36.8438V55.9688H35.4062V54.5312Z" fill="white"/>
</svg>
