<svg width="88" height="90" viewBox="0 0 88 90" fill="none" xmlns="http://www.w3.org/2000/svg">
<path d="M34.6154 14.7847C34.4924 13.7481 33.5261 13.0453 32.5247 13.1507L6.3636 16.4362L10.0005 10.3747C10.5276 9.47869 10.2465 8.33667 9.35042 7.80958C8.47195 7.28249 7.31236 7.56361 6.78527 8.44208L1.16301 17.8067C1.00489 18.0526 0.93461 18.3337 0.899471 18.6149C0.881901 18.8081 0.899471 18.9838 0.93461 19.1595C0.952179 19.2122 0.952179 19.2649 0.969749 19.3001C0.969749 19.3176 0.987318 19.3352 0.987318 19.3352C1.00489 19.3703 1.00489 19.4055 1.02246 19.4406C1.02246 19.4582 1.04003 19.4758 1.04003 19.4933C1.0576 19.5285 1.07517 19.5636 1.09274 19.5987C1.09274 19.6163 1.11031 19.6339 1.11031 19.6515C1.12787 19.6866 1.14544 19.7217 1.16301 19.7569C1.16301 19.7744 1.18058 19.7744 1.18058 19.792C1.19815 19.8272 1.23329 19.8623 1.26843 19.8974C1.26843 19.8974 1.26843 19.8974 1.286 19.915C1.32114 19.9677 1.37385 20.0204 1.42656 20.0731L8.92875 27.5753C9.29771 27.9443 9.77209 28.12 10.264 28.12C10.756 28.12 11.2304 27.9443 11.5993 27.5753C12.3372 26.8374 12.3372 25.6602 11.5993 24.9223L6.80284 20.1434L32.9815 16.8755C34.0005 16.7525 34.7384 15.8037 34.6154 14.7847Z" fill="black"/>
<path d="M87.0954 9.18009C87.0778 9.02196 87.0427 8.88141 86.9724 8.72328V8.70571C86.9548 8.67057 86.9373 8.61786 86.9197 8.58272C86.9021 8.56515 86.9021 8.54758 86.8846 8.53001C86.867 8.49488 86.8494 8.47731 86.8319 8.44217C86.7791 8.33675 86.7089 8.2489 86.6386 8.16106L86.621 8.14349C86.6034 8.10835 86.5683 8.09078 86.5507 8.05564L79.0485 0.553441C78.3106 -0.18448 77.1335 -0.18448 76.3955 0.553441C75.6576 1.29136 75.6576 2.46852 76.3955 3.20644L81.1569 7.96779L53.1335 11.2709C52.0969 11.3939 51.3765 12.325 51.4995 13.3441C51.6049 14.2928 52.4131 14.9956 53.3619 14.9956C53.4322 14.9956 53.52 14.9956 53.5903 14.978L81.6488 11.675L77.9944 17.7716C77.4673 18.6676 77.7484 19.8097 78.6444 20.3368C78.9431 20.5124 79.2769 20.6003 79.6108 20.6003C80.2433 20.6003 80.8582 20.284 81.2096 19.6867L86.7791 10.41C87.0251 10.0937 87.1481 9.65447 87.0954 9.18009Z" fill="black"/>
<path d="M71.7047 60.4127C70.8262 59.5167 69.772 58.8842 68.6124 58.5504C70.7383 55.7392 70.5275 51.7158 67.9448 49.1331C67.0839 48.2546 66.0121 47.6397 64.8526 47.3059C66.9785 44.4947 66.7676 40.4713 64.1849 37.8886C63.324 37.0277 62.2874 36.4127 61.1629 36.0789L67.8042 29.4376C70.5978 26.6441 70.5978 22.1111 67.7867 19.3C64.9931 16.5064 60.4602 16.5064 57.6666 19.3L32.1556 44.8286L29.7837 29.7012C29.2039 25.6075 25.6549 22.5152 21.5085 22.5152C18.4162 22.5152 15.8862 25.0452 15.8862 28.1375V63.4874C15.8862 69.0043 18.0297 74.1697 21.9302 78.0701L27.8159 83.9735C31.6988 87.8564 36.8818 89.9999 42.3811 89.9999C47.5114 89.9999 52.4484 88.1024 56.2435 84.6412L71.7222 70.5504C74.5158 67.7568 74.5158 63.2239 71.7047 60.4127ZM69.1395 67.8271L53.7135 81.8652C50.6036 84.6939 46.5802 86.24 42.3811 86.24C37.8833 86.24 33.649 84.483 30.469 81.3029L24.5832 75.3996C21.4031 72.2195 19.6461 67.9852 19.6461 63.4698V28.1375C19.6461 27.1009 20.4895 26.2575 21.5261 26.2575C23.8101 26.2575 25.7603 27.9618 26.0941 30.2458L29.0458 49.0452C29.1512 49.748 29.6432 50.3103 30.3108 50.5387C30.9785 50.7671 31.7164 50.5738 32.2259 50.0818L60.3547 21.953C61.69 20.6177 63.8511 20.6177 65.2039 21.9706C66.5392 23.3059 66.5392 25.4669 65.2039 26.8022L46.4221 45.5489C45.6842 46.2868 45.6842 47.464 46.4221 48.2019C47.16 48.9398 48.3372 48.9398 49.0751 48.2019L56.7354 40.5416C58.018 39.259 60.2493 39.2414 61.5846 40.5592C62.9199 41.8944 62.9199 44.0555 61.5846 45.3908L54.8731 52.0848L53.9243 53.0335C53.1864 53.7715 53.1864 54.9486 53.9243 55.6865C54.6622 56.4245 55.8394 56.4245 56.5773 55.6865L57.526 54.7378L60.4777 51.7861C61.7603 50.5035 63.9916 50.486 65.3269 51.8037C66.6622 53.139 66.6622 55.3 65.3269 56.6353L62.3577 59.587L61.4265 60.5182L61.4089 60.5357C60.671 61.2737 60.671 62.4508 61.4089 63.1887C62.1468 63.9267 63.324 63.9267 64.0619 63.1887L64.22 63.0306C65.5202 61.748 67.734 61.7305 69.0692 63.0482C70.4045 64.3835 70.4045 66.5445 69.1395 67.8271Z" fill="black"/>
</svg>
