<svg width="92" height="93" viewBox="0 0 92 93" fill="none" xmlns="http://www.w3.org/2000/svg">
<path d="M63.8636 92.0069C65.942 92.0013 67.7608 90.6091 68.3089 88.6044L72.5478 72.7783L88.6013 68.4867C91.0474 67.8215 92.4957 65.3052 91.8439 62.8562L83.5203 31.8334L84.1792 29.381C84.7749 27.1222 83.582 24.7757 81.4061 23.9253L77.6583 9.93479C76.9875 7.49077 74.4775 6.04036 72.0251 6.6789L44.6476 14.0229L21.6908 7.86828C20.7498 7.61006 19.7506 7.66409 18.8433 8.02196L13.1083 2.29679C11.1751 0.346067 8.34657 -0.421592 5.69275 0.28502C3.03892 0.99163 0.9661 3.06375 0.258788 5.71757C-0.448525 8.3714 0.31773 11.2007 2.26775 13.1338L12.721 23.587L0.197038 70.3399C-0.458349 72.7916 0.991361 75.3114 3.44029 75.978L62.67 91.8476C63.0588 91.9536 63.4601 92.0076 63.8636 92.0069ZM88.8778 63.6485C89.0946 64.4617 88.6153 65.2982 87.8042 65.522L73.4656 69.354L81.9288 37.76L88.8778 63.6485ZM72.8096 9.64358C73.2046 9.53552 73.6263 9.59025 73.9807 9.79515C74.3351 9.99934 74.5926 10.3376 74.6964 10.7333L77.9663 22.9478L50.5692 15.608L72.8096 9.64358ZM46.4439 46.4786L38.7049 43.8991L43.8645 38.7346L46.4439 46.473V46.4786ZM40.2051 38.0666L27.1984 25.0585C26.5999 24.46 25.6287 24.46 25.0302 25.0592C24.4316 25.6578 24.4323 26.6289 25.0316 27.2275L38.039 40.2321L35.8721 42.4017L14.1924 20.722L16.36 18.5545L20.6944 22.891C21.0824 23.2783 21.6466 23.4299 22.1764 23.2874C22.7054 23.1457 23.1187 22.7324 23.2605 22.2033C23.4022 21.6742 23.2514 21.1093 22.864 20.722L18.5289 16.3869L20.6965 14.218L42.3727 35.8977L40.2051 38.0666ZM9.85593 16.3869L16.36 9.88286L18.5275 12.0504L12.0249 18.5545L9.85593 16.3869ZM3.08944 7.71531C3.08944 5.85511 4.21006 4.17735 5.92852 3.46582C7.64768 2.7543 9.62577 3.14795 10.9408 4.46364L14.1924 7.71531L7.68838 14.2194L4.4353 10.9663C3.57081 10.106 3.08593 8.93557 3.08944 7.71531ZM3.16031 71.1447L15.2267 26.0928L34.7866 45.6527C34.9466 45.8092 35.1388 45.9277 35.3508 46.0007C35.3627 46.0007 35.3718 46.0176 35.3858 46.0218L45.4833 49.3941C45.7984 49.498 46.1289 49.5492 46.4608 49.5478C47.0383 49.5457 47.6031 49.3794 48.0887 49.0678L65.7168 53.8015C65.8466 53.8373 65.9806 53.8555 66.1154 53.8548C66.8851 53.8548 67.5349 53.2844 67.6345 52.5216C67.7349 51.7589 67.2542 51.0403 66.5111 50.8417L49.4963 46.2737C49.4809 46.0134 49.4339 45.7558 49.3553 45.5067L45.9829 35.4086C45.9829 35.3945 45.9661 35.3854 45.9597 35.3714C45.8868 35.1616 45.7682 34.97 45.6131 34.8107L21.9209 11.1087L80.1262 26.6998C80.5198 26.805 80.8552 27.0619 81.0587 27.4148C81.2622 27.7671 81.317 28.186 81.2117 28.5796L65.3491 87.8023C65.2445 88.196 64.987 88.5321 64.6341 88.7356C64.2811 88.9391 63.8615 88.9938 63.4685 88.8879L4.24514 73.0239C3.85219 72.9186 3.51678 72.6618 3.31258 72.3095C3.10909 71.9566 3.05436 71.5377 3.16031 71.1447Z" fill="black"/>
<path d="M70.8801 36.0816C71.6491 36.0809 72.2989 35.5104 72.3992 34.7477C72.4989 33.9857 72.0182 33.2664 71.2758 33.0678L49.4733 27.2262C48.9386 27.0669 48.3604 27.2107 47.9626 27.6016C47.5647 27.9917 47.4103 28.5678 47.5591 29.1046C47.7078 29.6421 48.1373 30.0561 48.679 30.186L70.4829 36.029C70.6127 36.0641 70.746 36.0816 70.8801 36.0816Z" fill="black"/>
<path d="M68.4978 44.9643C69.2668 44.9636 69.9166 44.3938 70.0169 43.6311C70.1173 42.8683 69.6366 42.1498 68.8935 41.9505L54.0701 37.9852C53.5375 37.8337 52.965 37.9803 52.5713 38.3705C52.1776 38.7599 52.0254 39.3318 52.172 39.8658C52.3187 40.3998 52.7418 40.8131 53.2793 40.9464L68.1027 44.9124C68.2311 44.9468 68.3644 44.9643 68.4978 44.9643Z" fill="black"/>
<path d="M21.1976 48.2138L16.7524 47.023C16.2191 46.8672 15.643 47.0118 15.2472 47.4019C14.8515 47.7914 14.6971 48.3647 14.8444 48.9008C14.9918 49.4362 15.417 49.8502 15.9566 49.9828L20.4019 51.1757C20.5324 51.2101 20.6657 51.2276 20.8005 51.2276C21.5702 51.2283 22.2207 50.6578 22.321 49.8951C22.4214 49.1323 21.9407 48.4131 21.1976 48.2138Z" fill="black"/>
<path d="M65.2186 61.5946C65.4375 60.7772 64.9519 59.9379 64.1351 59.7183L30.0789 50.5948C29.2888 50.4404 28.5141 50.9246 28.305 51.7021C28.0966 52.4796 28.5253 53.2865 29.2867 53.5482L63.3408 62.6724C63.4706 62.7082 63.604 62.7258 63.738 62.7258C64.4306 62.7265 65.0375 62.2626 65.2186 61.5946Z" fill="black"/>
<path d="M18.8155 57.0975L14.3703 55.906C13.5542 55.692 12.7185 56.1775 12.5002 56.9922C12.282 57.8076 12.7641 58.6461 13.5781 58.8679L18.0233 60.0572C18.1524 60.093 18.2858 60.1113 18.4205 60.1106C19.1895 60.1113 19.84 59.5408 19.9404 58.778C20.0414 58.0153 19.5607 57.2961 18.8169 57.0975H18.8155Z" fill="black"/>
<path d="M61.7545 68.6031L27.7004 59.4775C27.1657 59.3189 26.5875 59.4627 26.1896 59.8529C25.7917 60.2437 25.6374 60.8191 25.7861 61.3566C25.9349 61.8934 26.3643 62.3074 26.906 62.4379L60.9609 71.5628C61.0907 71.5986 61.2247 71.6169 61.3595 71.6169C62.1285 71.6162 62.7783 71.0457 62.8786 70.2829C62.9783 69.5202 62.4976 68.8017 61.7545 68.6031Z" fill="black"/>
</svg>
