<svg width="227" height="15" viewBox="0 0 227 15" fill="none" xmlns="http://www.w3.org/2000/svg">
<path d="M57.4897 12.8239C57.4177 12.8959 57.3457 12.9679 57.2737 13.1119C57.2017 13.1839 57.2017 13.2559 57.1297 13.2559C57.0577 13.3279 56.9857 13.3999 56.9137 13.4719C56.8416 13.5439 56.8416 13.5439 56.7696 13.6159C56.6256 13.7599 56.4816 13.8319 56.3376 13.9039C55.8336 14.264 55.2576 14.408 54.6816 14.408C53.3855 14.408 52.0174 14.408 50.5774 14.408L4.49551 14.336H4.4235C4.3515 14.336 4.2795 14.336 4.20749 14.336H4.13549C4.13549 14.336 4.13549 14.336 4.06349 14.336H3.99149C3.91948 14.336 3.91948 14.336 3.84748 14.264C3.84748 14.264 3.84748 14.264 3.77548 14.264C3.77548 14.264 3.77548 14.264 3.70347 14.264C3.63147 14.264 3.63147 14.264 3.63147 14.192C3.55947 14.192 3.48747 14.12 3.41546 14.12C3.41546 14.12 3.41546 14.12 3.34346 14.12C3.12745 13.9759 3.12745 13.9759 3.05545 13.9039C2.98344 13.8319 2.91144 13.8319 2.83944 13.7599C2.76744 13.7599 2.76744 13.6879 2.69543 13.6879C2.62343 13.6159 2.62343 13.6159 2.55143 13.5439C2.55143 13.5439 2.55143 13.5439 2.47942 13.4719C2.33542 13.3999 2.26342 13.3279 2.19141 13.2559C2.19141 13.2559 2.19141 13.2559 2.11941 13.1839L2.04741 13.1119C1.9754 13.0399 1.9754 13.0399 1.9034 12.9679C1.9034 12.9679 1.8314 12.8959 1.8314 12.8239C1.75939 12.7519 1.75939 12.6799 1.68739 12.6799L1.61539 12.6079C1.61539 12.5359 1.61539 12.5359 1.61539 12.4639C1.54339 12.3199 1.47138 12.1759 1.39938 12.0319C1.39938 11.9599 1.32738 11.9599 1.32738 11.8879V11.8159V11.7439C1.25537 11.5278 1.11137 11.3118 1.03937 11.1678C0.895359 11.1678 0.895359 11.0958 0.895359 11.0958C0.895359 11.0238 0.823357 10.9518 0.823357 10.8798C0.751354 10.7358 0.751354 10.5918 0.679351 10.4478C0.679351 10.3758 0.679351 10.3758 0.607348 10.3038C0.607348 10.2318 0.535345 10.0878 0.535345 10.0158C0.463342 9.87178 0.463342 9.65577 0.391339 9.51177V9.43976C0.391339 9.36776 0.391339 9.29576 0.391339 9.22375C0.391339 9.15175 0.391339 9.07975 0.319336 8.93574C0.319336 8.86374 0.319336 8.79174 0.319336 8.71973C0.319336 8.64773 0.319336 8.64773 0.319336 8.57573C0.319336 8.50373 0.319336 8.50373 0.319336 8.43172C0.319336 8.28772 0.319336 8.14371 0.319336 7.9997V7.9277V7.8557C0.319336 7.7837 0.319336 7.71169 0.319336 7.63969C0.319336 7.49568 0.319336 7.42368 0.319336 7.27968C0.319336 7.27968 0.319336 7.27968 0.319336 7.20767C0.319336 7.13567 0.319336 6.99166 0.319336 6.91966C0.319336 6.77565 0.319336 6.70365 0.319336 6.55965C0.319336 6.48764 0.319336 6.34364 0.319336 6.27163C0.319336 6.12763 0.319336 6.05563 0.319336 5.91162C0.319336 5.76761 0.319336 5.69561 0.391339 5.55161C0.391339 5.4796 0.391339 5.3356 0.463342 5.26359C0.463342 5.11959 0.535345 5.04758 0.535345 4.90358C0.535345 4.83158 0.535345 4.75957 0.607348 4.68757V4.61557C0.607348 4.61557 0.607348 4.61557 0.607348 4.54356C0.607348 4.39956 0.679351 4.32756 0.679351 4.18355C0.679351 4.11155 0.679351 4.11155 0.751354 4.03954C0.751354 3.96754 0.751354 3.96754 0.823357 3.89554C0.823357 3.82353 0.823357 3.82353 0.895359 3.75153C0.751354 3.67953 0.823357 3.60753 0.895359 3.46352C0.967362 3.31951 0.967362 3.17551 1.03937 3.0315C1.03937 3.0315 1.03937 3.0315 1.03937 2.9595C1.11137 2.8875 1.11137 2.81549 1.18337 2.74349C1.25537 2.67149 1.25537 2.59948 1.32738 2.52748C1.32738 2.52748 1.32738 2.52748 1.32738 2.45548C1.39938 2.38348 1.47138 2.23947 1.47138 2.16747C1.54339 2.09546 1.61539 2.02346 1.68739 1.95146C1.75939 1.87946 1.8314 1.80745 1.9034 1.73545C1.9754 1.66345 1.9754 1.59144 2.04741 1.59144C2.11941 1.51944 2.19141 1.44744 2.26342 1.30343C2.33542 1.23143 2.33542 1.15943 2.40742 1.15943C2.47942 1.01542 2.62343 0.943418 2.76744 0.799412C2.91144 0.727409 3.05545 0.655406 3.19945 0.583403C3.27146 0.583403 3.27146 0.5114 3.34346 0.5114C3.41546 0.439397 3.48747 0.439397 3.63147 0.367395C3.70347 0.367395 3.77548 0.367395 3.77548 0.295392C3.84748 0.295392 3.91948 0.223389 3.99149 0.223389C4.06349 0.223389 4.13549 0.223389 4.13549 0.223389C4.20749 0.223389 4.2795 0.223389 4.3515 0.223389L54.6096 0.439397C54.6816 0.439397 54.6816 0.439397 54.7536 0.439397C54.8256 0.439397 54.8976 0.439397 54.9696 0.439397C55.0416 0.439397 55.1136 0.439397 55.1856 0.5114C55.2576 0.5114 55.2576 0.5114 55.3296 0.583403C55.4016 0.583403 55.4736 0.655406 55.5456 0.655406C55.6176 0.655406 55.6896 0.727409 55.7616 0.727409C55.8336 0.727409 55.9056 0.799412 55.9056 0.799412C56.1936 0.943418 56.2656 0.943418 56.3376 1.01542C56.4096 1.08742 56.4816 1.08742 56.4816 1.15943C56.5536 1.23143 56.6256 1.30343 56.6976 1.37544C56.7696 1.44744 56.8416 1.51944 56.9137 1.59144C56.9137 1.59144 56.9137 1.59144 56.9857 1.66345C56.9857 1.66345 56.9857 1.66345 57.0577 1.73545C57.1297 1.80745 57.2017 1.87946 57.2017 1.87946C57.2737 2.02346 57.4177 2.09546 57.4897 2.23947L57.5617 2.31147C57.7057 2.45548 57.7777 2.67149 57.8497 2.81549V2.8875C57.9217 2.9595 57.9217 3.10351 57.9937 3.24751C58.0657 3.39152 58.1377 3.53552 58.2097 3.75153C58.3537 3.89554 58.4257 4.03954 58.4977 4.11155C58.5697 4.25555 58.5697 4.32756 58.6417 4.47156C58.6417 4.54356 58.7137 4.68757 58.7137 4.75957C58.7857 4.90358 58.7857 5.11959 58.8577 5.26359V5.3356C58.8577 5.4076 58.8577 5.4796 58.8577 5.55161C58.8577 5.62361 58.8577 5.69561 58.9297 5.83962C58.9297 5.91162 58.9297 5.98362 58.9297 6.05563C58.9297 6.12763 58.9297 6.12763 58.9297 6.19963C58.9297 6.27163 58.9297 6.27163 58.9297 6.34364C58.9297 6.48764 58.9297 6.63165 58.9297 6.77565V6.84766V6.91966C58.9297 6.99166 58.9297 7.06367 58.9297 7.13567C58.9297 7.27968 58.9297 7.35168 58.9297 7.49568C58.9297 7.49568 58.9297 7.49568 58.9297 7.56769C58.9297 7.63969 58.9297 7.7837 58.9297 7.8557C58.9297 7.9997 58.9297 8.07171 58.9297 8.21571C58.9297 8.28772 58.9297 8.43172 58.9297 8.50373C58.9297 8.64773 58.9297 8.71973 58.9297 8.86374C58.9297 9.00775 58.9297 9.07975 58.8577 9.22375C58.8577 9.29576 58.8577 9.43976 58.7857 9.51177C58.7857 9.65577 58.7137 9.72777 58.7137 9.87178C58.7137 9.94378 58.7137 10.0158 58.6417 10.0878V10.1598C58.6417 10.1598 58.6417 10.1598 58.6417 10.2318C58.6417 10.3758 58.5697 10.4478 58.5697 10.5918C58.5697 10.6638 58.5697 10.6638 58.4977 10.7358C58.4977 10.8078 58.4977 10.8078 58.4257 10.8798C58.4257 10.9518 58.4257 10.9518 58.3537 11.0238C58.2817 11.1678 58.2817 11.2398 58.2097 11.3838C58.1377 11.5278 58.0657 11.6719 57.9937 11.8159C57.9937 11.8159 57.9937 11.8159 57.9937 11.8879C57.9217 11.9599 57.9217 12.0319 57.8497 12.1039C57.7777 12.1759 57.7777 12.2479 57.7057 12.3199C57.7057 12.3199 57.7057 12.3199 57.7057 12.3919C57.6337 12.4639 57.5617 12.6079 57.5617 12.6799C57.6337 12.6799 57.5617 12.7519 57.4897 12.8239Z" fill="url(#paint0_linear)"/>
<path d="M50.7928 10.1597C49.8568 6.63154 50.9368 2.52737 53.0969 1.01531C55.257 -0.496748 57.7771 1.23132 58.7131 4.83147C59.6492 8.43162 58.6411 12.5358 56.409 13.9758C54.249 15.4879 51.7289 13.7598 50.7928 10.1597Z" fill="url(#paint1_linear)"/>
<path d="M113.292 12.8239C113.22 12.8959 113.148 12.9679 113.076 13.1119C113.004 13.1839 113.004 13.2559 112.932 13.2559C112.86 13.3279 112.788 13.3999 112.716 13.4719C112.644 13.5439 112.644 13.5439 112.572 13.6159C112.428 13.7599 112.284 13.8319 112.14 13.9039C111.636 14.264 111.06 14.408 110.484 14.408C109.188 14.408 107.82 14.408 106.38 14.408L60.154 14.192H60.082C60.01 14.192 59.938 14.192 59.866 14.192H59.794C59.794 14.192 59.794 14.192 59.722 14.192H59.65C59.578 14.192 59.578 14.192 59.506 14.12C59.506 14.12 59.506 14.12 59.434 14.12C59.434 14.12 59.434 14.12 59.362 14.12C59.29 14.12 59.29 14.12 59.29 14.048C59.218 14.048 59.146 13.9759 59.074 13.9759C59.074 13.9759 59.074 13.9759 59.002 13.9759C58.93 13.9759 58.93 13.9039 58.858 13.9039C58.786 13.8319 58.7139 13.8319 58.6419 13.7599C58.5699 13.7599 58.5699 13.6879 58.4979 13.6879C58.4259 13.6159 58.4259 13.6159 58.3539 13.5439C58.3539 13.5439 58.3539 13.5439 58.2819 13.4719C58.2099 13.3999 58.1379 13.3279 58.0659 13.2559C58.0659 13.2559 58.0659 13.2559 57.9939 13.1839L57.9219 13.1119C57.8499 13.0399 57.8499 13.0399 57.7779 12.9679C57.7779 12.9679 57.7059 12.8959 57.7059 12.8239C57.6339 12.7519 57.6339 12.6799 57.5619 12.6799L57.4899 12.6079L57.4179 12.5359C57.3459 12.3919 57.2739 12.2479 57.2019 12.1039C57.2019 12.0319 57.1299 12.0319 57.1299 11.9599V11.8879V11.8159C57.0579 11.5999 56.9139 11.3838 56.8419 11.2398C56.8419 11.1678 56.8419 11.1678 56.7699 11.0958C56.7699 11.0238 56.6979 10.9518 56.6979 10.8798C56.6259 10.7358 56.6259 10.5918 56.5539 10.4478C56.5539 10.3758 56.5539 10.3758 56.4819 10.3038C56.4819 10.2318 56.4099 10.0878 56.4099 10.0158C56.3379 9.87178 56.3379 9.65577 56.2658 9.51177V9.43976C56.2658 9.36776 56.2658 9.29576 56.2658 9.22375C56.2658 9.15175 56.2659 9.07975 56.1938 8.93574C56.1938 8.86374 56.1938 8.79174 56.1938 8.71973C56.1938 8.64773 56.1938 8.64773 56.1938 8.57573C56.1938 8.50373 56.1938 8.50373 56.1938 8.43172C56.1938 8.28772 56.1938 8.14371 56.1938 7.9997V7.9277V7.8557C56.1938 7.7837 56.1938 7.71169 56.1938 7.63969C56.1938 7.49568 56.1938 7.42368 56.1938 7.27968C56.1938 7.27968 56.1938 7.27968 56.1938 7.20767C56.1938 7.13567 56.1938 6.99166 56.1938 6.91966C56.1938 6.77565 56.1938 6.70365 56.1938 6.55965C56.1938 6.48764 56.1938 6.34364 56.1938 6.27163C56.1938 6.12763 56.1938 6.05563 56.1938 5.91162C56.1938 5.76761 56.1938 5.69561 56.2658 5.55161C56.2658 5.4796 56.2658 5.3356 56.3379 5.26359C56.3379 5.11959 56.4099 5.04758 56.4099 4.90358C56.4099 4.83158 56.4099 4.75957 56.4819 4.68757V4.61557C56.4819 4.61557 56.4819 4.61557 56.4819 4.54356C56.4819 4.39956 56.5539 4.32756 56.5539 4.18355C56.5539 4.11155 56.5539 4.11155 56.6259 4.03954C56.6259 3.96754 56.6259 3.96754 56.6979 3.89554C56.6979 3.82353 56.6979 3.82353 56.7699 3.75153C56.8419 3.60753 56.8419 3.53552 56.9139 3.39152C56.9859 3.24751 57.0579 3.10351 57.1299 2.9595C57.1299 2.9595 57.1299 2.9595 57.1299 2.8875C57.2019 2.81549 57.2019 2.74349 57.2739 2.67149C57.0579 2.67149 57.0579 2.59948 57.1299 2.52748C57.1299 2.52748 57.1299 2.52748 57.1299 2.45548C57.2019 2.38348 57.2739 2.23947 57.2739 2.16747C57.3459 2.09546 57.3459 2.02346 57.4179 1.95146C57.4899 1.87946 57.5619 1.80745 57.6339 1.66345C57.7059 1.66345 57.7779 1.59144 57.7779 1.51944C57.8499 1.44744 57.9219 1.37544 57.9939 1.23143C58.0659 1.15943 58.0659 1.15943 58.1379 1.08742C58.2819 0.943418 58.4259 0.871415 58.5699 0.799412C58.7139 0.727409 58.858 0.655406 59.002 0.583403C59.074 0.583403 59.074 0.5114 59.146 0.5114C59.218 0.439397 59.29 0.439397 59.434 0.367395C59.506 0.367395 59.578 0.367395 59.578 0.295392C59.65 0.295392 59.722 0.223389 59.794 0.223389C59.866 0.223389 59.938 0.223389 59.938 0.223389C60.01 0.223389 60.082 0.223389 60.154 0.223389L110.412 0.439397C110.484 0.439397 110.484 0.439397 110.556 0.439397C110.628 0.439397 110.7 0.439397 110.772 0.439397C110.844 0.439397 110.916 0.439397 110.988 0.5114C111.06 0.5114 111.06 0.5114 111.132 0.583403C111.204 0.583403 111.276 0.655406 111.348 0.655406C111.42 0.655406 111.492 0.727409 111.564 0.727409C111.636 0.727409 111.708 0.799412 111.708 0.799412C111.78 0.871415 111.852 0.871415 111.924 0.943418C111.996 1.01542 112.068 1.01542 112.068 1.08742C112.14 1.15943 112.212 1.23143 112.284 1.30343C112.356 1.37544 112.428 1.44744 112.5 1.51944C112.5 1.51944 112.5 1.51944 112.572 1.59144C112.572 1.59144 112.572 1.59144 112.644 1.66345C112.716 1.73545 112.788 1.80745 112.788 1.80745C112.86 1.95146 113.004 2.02346 113.076 2.16747L113.148 2.23947C113.292 2.38348 113.364 2.59949 113.436 2.74349V2.81549C113.508 2.8875 113.508 3.0315 113.58 3.17551C113.652 3.31951 113.724 3.46352 113.796 3.67953C113.868 3.82353 113.868 3.96754 113.94 4.03954C114.012 4.18355 114.012 4.25555 114.084 4.39956C114.084 4.47156 114.156 4.61557 114.156 4.68757C114.228 4.83158 114.228 5.04758 114.3 5.19159V5.26359C114.3 5.3356 114.3 5.4076 114.3 5.4796C114.3 5.5516 114.3 5.62361 114.372 5.76761C114.372 5.83962 114.372 5.91162 114.372 5.98362C114.372 6.05563 114.372 6.05563 114.372 6.12763C114.372 6.19963 114.372 6.19963 114.372 6.27163C114.372 6.41564 114.372 6.55965 114.372 6.70365V6.77565V6.84766C114.372 6.91966 114.372 6.99166 114.372 7.06367C114.372 7.20767 114.372 7.27968 114.372 7.42368C114.372 7.42368 114.372 7.42368 114.372 7.49568C114.372 7.56769 114.372 7.71169 114.372 7.7837C114.372 7.9277 114.372 7.9997 114.372 8.14371C114.372 8.21571 114.372 8.35972 114.372 8.43172C114.372 8.57573 114.372 8.64773 114.372 8.79174C114.372 8.93574 114.372 9.00775 114.3 9.15175C114.3 9.22375 114.3 9.36776 114.228 9.43976C114.228 9.58377 114.156 9.65577 114.156 9.79978C114.156 9.87178 114.156 9.94378 114.084 10.0158V10.0878C114.084 10.0878 114.084 10.0878 114.084 10.1598C114.084 10.3038 114.012 10.3758 114.012 10.5198C114.012 10.5918 114.012 10.5918 113.94 10.6638C113.94 10.7358 113.94 10.7358 113.868 10.8078C113.868 10.8798 113.868 10.8798 113.796 10.9518C113.724 11.0958 113.724 11.1678 113.652 11.3118C113.58 11.4558 113.508 11.5999 113.436 11.7439C113.436 11.7439 113.436 11.7439 113.436 11.8159C113.364 11.8879 113.364 11.9599 113.292 12.0319C113.22 12.1039 113.22 12.1759 113.148 12.2479C113.148 12.2479 113.148 12.2479 113.148 12.3199C113.076 12.3919 113.004 12.5359 113.004 12.6079C113.436 12.6799 113.364 12.7519 113.292 12.8239Z" fill="url(#paint2_linear)"/>
<path d="M106.597 10.1597C105.66 6.63154 106.741 2.52737 108.901 1.01531C111.061 -0.496748 113.581 1.23132 114.517 4.83147C115.453 8.43162 114.445 12.5358 112.213 13.9758C110.053 15.4879 107.533 13.7598 106.597 10.1597Z" fill="url(#paint3_linear)"/>
<path d="M168.878 12.8239C168.806 12.8959 168.734 12.9679 168.662 13.1119C168.59 13.1839 168.59 13.2559 168.518 13.2559C168.446 13.3279 168.374 13.3999 168.302 13.4719C168.23 13.5439 168.23 13.5439 168.158 13.6159C168.014 13.7599 167.87 13.8319 167.726 13.9039C167.222 14.2639 166.646 14.4079 166.07 14.4079C164.774 14.4079 163.406 14.4079 161.966 14.4079L115.74 14.1919H115.668C115.596 14.1919 115.524 14.1919 115.452 14.1919H115.38C115.38 14.1919 115.38 14.1919 115.308 14.1919H115.236C115.164 14.1919 115.164 14.1919 115.092 14.1199C115.092 14.1199 115.092 14.1199 115.02 14.1199C115.02 14.1199 115.02 14.1199 114.948 14.1199C114.876 14.1199 114.876 14.1199 114.876 14.0479C114.804 14.0479 114.732 13.9759 114.66 13.9759C114.66 13.9759 114.66 13.9759 114.588 13.9759C114.516 13.9759 114.516 13.9039 114.444 13.9039C114.372 13.8319 114.3 13.8319 114.228 13.7599C114.156 13.7599 114.156 13.6879 114.084 13.6879C114.012 13.6159 114.012 13.6159 113.94 13.5439C113.94 13.5439 113.94 13.5439 113.868 13.4719C113.796 13.3999 113.724 13.3279 113.652 13.2559C113.652 13.2559 113.652 13.2559 113.58 13.1839L113.508 13.1119C113.436 13.0399 113.436 13.0399 113.364 12.9679C113.364 12.9679 113.292 12.8959 113.292 12.8239C113.22 12.7519 113.22 12.6799 113.148 12.6799L113.076 12.6079L113.004 12.5359C112.932 12.3919 112.86 12.2479 112.788 12.1039C112.788 12.0319 112.716 12.0319 112.716 11.9598V11.8878V11.8158C112.644 11.5998 112.5 11.3838 112.428 11.2398C112.428 11.1678 112.428 11.1678 112.356 11.0958C112.356 11.0238 112.284 10.9518 112.284 10.8798C112.212 10.7358 112.212 10.5918 112.14 10.4478C112.14 10.3758 112.14 10.3758 112.068 10.3038C112.068 10.2318 111.996 10.0878 111.996 10.0158C111.924 9.87176 111.924 9.65576 111.852 9.51175V9.43975C111.852 9.36774 111.852 9.29574 111.852 9.22374C111.852 9.15173 111.852 9.07973 111.78 8.93573C111.78 8.86372 111.78 8.79172 111.78 8.71972C111.78 8.64771 111.78 8.64771 111.78 8.57571C111.78 8.50371 111.78 8.50371 111.78 8.4317C111.78 8.2877 111.78 8.14369 111.78 7.99969V7.92768V7.85568C111.78 7.78368 111.78 7.71168 111.78 7.63967C111.78 7.49567 111.78 7.42366 111.78 7.27966C111.78 7.27966 111.78 7.27966 111.78 7.20765C111.78 7.13565 111.78 6.99165 111.78 6.91964C111.78 6.77564 111.78 6.70363 111.78 6.55963C111.78 6.48763 111.78 6.34362 111.78 6.27162C111.78 6.12761 111.78 6.05561 111.78 5.9116C111.78 5.7676 111.78 5.69559 111.852 5.55159C111.852 5.47958 111.852 5.33558 111.924 5.26358C111.924 5.11957 111.996 5.04757 111.996 4.90356C111.996 4.83156 111.996 4.75955 112.068 4.68755V4.61555C112.068 4.61555 112.068 4.61555 112.068 4.54355C112.068 4.39954 112.14 4.32754 112.14 4.18353C112.14 4.11153 112.14 4.11153 112.212 4.03953C112.212 3.96752 112.212 3.96752 112.284 3.89552C112.284 3.82352 112.284 3.82352 112.356 3.75151C112.428 3.60751 112.428 3.53551 112.5 3.3915C112.572 3.24749 112.644 3.10349 112.716 2.95948C112.716 2.95948 112.716 2.95948 112.716 2.88748C112.788 2.81548 112.788 2.74347 112.86 2.67147C112.932 2.59947 112.932 2.52746 113.004 2.45546C113.004 2.45546 113.004 2.45546 113.004 2.38346C113.076 2.31146 113.148 2.16745 113.148 2.09545C113.22 2.02344 113.22 1.95144 113.292 1.87944C113.364 1.80743 113.436 1.73543 113.508 1.59143C113.58 1.51942 113.58 1.44742 113.652 1.44742C113.724 1.37542 113.796 1.30341 113.868 1.15941C113.94 1.08741 113.94 1.08741 114.012 1.0154C114.156 0.871397 114.3 0.799394 114.444 0.727391C114.588 0.655388 114.732 0.583385 114.876 0.511382C114.948 0.511382 114.948 0.439379 115.02 0.439379C115.092 0.367376 115.164 0.367376 115.308 0.295373C115.38 0.295373 115.452 0.295373 115.452 0.22337C115.524 0.22337 115.596 0.151367 115.668 0.151367C115.74 0.151367 115.812 0.151367 115.812 0.151367C115.884 0.151367 115.956 0.151367 116.028 0.151367L166.286 0.367376C166.358 0.367376 166.358 0.367376 166.43 0.367376C166.502 0.367376 166.574 0.367376 166.646 0.367376C166.718 0.367376 166.79 0.367376 166.862 0.439379C166.934 0.439379 166.934 0.439379 167.006 0.511382C167.078 0.511382 167.15 0.583385 167.222 0.583385C167.294 0.583385 167.366 0.655388 167.438 0.655388C167.51 0.655388 167.582 0.727391 167.582 0.727391C167.654 0.799394 167.726 0.799394 167.798 0.871397C167.87 0.943399 167.942 0.943399 167.942 1.0154C168.014 1.08741 168.086 1.15941 168.158 1.23141C168.23 1.30341 168.302 1.37542 168.374 1.44742C168.374 1.44742 168.374 1.44742 168.446 1.51942C168.446 1.51942 168.446 1.51942 168.518 1.59143C168.59 1.66343 168.662 1.73543 168.662 1.73543C168.734 1.87944 168.878 1.95144 168.95 2.09545L169.022 2.16745C169.166 2.31146 169.238 2.52746 169.31 2.67147V2.74347C169.382 2.81548 169.382 2.95948 169.454 3.10349C169.526 3.24749 169.598 3.3915 169.67 3.60751C169.742 3.75151 169.742 3.89552 169.814 3.96752C169.886 4.11153 169.886 4.18353 169.958 4.32754C169.958 4.39954 170.03 4.54355 170.03 4.61555C170.102 4.75955 170.102 4.97556 170.174 5.11957V5.19157C170.174 5.26358 170.174 5.33558 170.174 5.40758C170.174 5.47958 170.174 5.55159 170.246 5.69559C170.246 5.7676 170.246 5.8396 170.246 5.9116C170.246 5.9836 170.246 5.9836 170.246 6.05561C170.246 6.12761 170.246 6.12761 170.246 6.19961C170.246 6.34362 170.246 6.48763 170.246 6.63163V6.70363V6.77564C170.246 6.84764 170.246 6.91964 170.246 6.99165C170.246 7.13565 170.246 7.20765 170.246 7.35166C170.246 7.35166 170.246 7.35166 170.246 7.42366C170.246 7.49567 170.246 7.63967 170.246 7.71168C170.246 7.85568 170.246 7.92768 170.246 8.07169C170.246 8.14369 170.246 8.2877 170.246 8.3597C170.246 8.50371 170.246 8.57571 170.246 8.71972C170.246 8.86372 170.246 8.93573 170.174 9.07973C170.174 9.15173 170.174 9.29574 170.102 9.36774C170.102 9.51175 170.03 9.58375 170.03 9.72776C170.03 9.79976 170.03 9.87176 169.958 9.94377V10.0158C169.958 10.0158 169.958 10.0158 169.958 10.0878C169.958 10.2318 169.886 10.3038 169.886 10.4478C169.886 10.5198 169.886 10.5198 169.814 10.5918C169.814 10.6638 169.814 10.6638 169.742 10.7358C169.742 10.8078 169.742 10.8078 169.67 10.8798C169.598 11.0238 169.598 11.0958 169.526 11.2398C169.454 11.3838 169.382 11.5278 169.31 11.6718C169.31 11.6718 169.31 11.6718 169.31 11.7438C169.238 11.8158 169.238 11.8878 169.166 11.9598C169.094 12.0319 169.094 12.1039 169.022 12.1759C169.022 12.1759 169.022 12.1759 169.022 12.2479C168.95 12.3199 168.878 12.4639 168.878 12.5359C168.95 12.6799 168.95 12.7519 168.878 12.8239Z" fill="url(#paint4_linear)"/>
<path d="M162.182 10.1597C161.246 6.55954 162.254 2.45537 164.486 1.01531C166.646 -0.496748 169.166 1.23132 170.102 4.83147C171.038 8.43162 170.03 12.5358 167.798 13.9758C165.566 15.4879 163.118 13.7598 162.182 10.1597Z" fill="url(#paint5_linear)"/>
<path d="M224.68 12.8239C224.608 12.8959 224.536 12.9679 224.464 13.1119C224.392 13.1839 224.392 13.2559 224.32 13.2559C224.248 13.3279 224.176 13.3999 224.104 13.4719C224.032 13.5439 224.032 13.5439 223.96 13.6159C223.816 13.7599 223.672 13.8319 223.528 13.9039C223.024 14.2639 222.448 14.4079 221.872 14.4079C220.576 14.4079 219.208 14.4079 217.768 14.4079L171.542 14.1919H171.47C171.398 14.1919 171.326 14.1919 171.254 14.1919H171.182C171.182 14.1919 171.182 14.1919 171.11 14.1919H171.038C170.966 14.1919 170.966 14.1919 170.894 14.1199C170.894 14.1199 170.894 14.1199 170.822 14.1199C170.822 14.1199 170.822 14.1199 170.75 14.1199C170.678 14.1199 170.678 14.1199 170.678 14.0479C170.606 14.0479 170.534 13.9759 170.462 13.9759C170.462 13.9759 170.462 13.9759 170.39 13.9759C170.318 13.9759 170.318 13.9039 170.246 13.9039C170.174 13.8319 170.102 13.8319 170.03 13.7599C169.958 13.7599 169.958 13.6879 169.886 13.6879C169.814 13.6159 169.814 13.6159 169.742 13.5439C169.742 13.5439 169.742 13.5439 169.67 13.4719C169.598 13.3999 169.526 13.3279 169.454 13.2559C169.454 13.2559 169.454 13.2559 169.382 13.1839L169.31 13.1119C169.238 13.0399 169.238 13.0399 169.166 12.9679C169.166 12.9679 169.094 12.8959 169.094 12.8239C169.022 12.7519 169.022 12.6799 168.95 12.6799L168.878 12.6079L168.806 12.5359C168.734 12.3919 168.662 12.2479 168.59 12.1039C168.59 12.0319 168.518 12.0319 168.518 11.9598V11.8878V11.8158C168.446 11.5998 168.302 11.3838 168.23 11.2398C168.23 11.1678 168.23 11.1678 168.158 11.0958C168.158 11.0238 168.086 10.9518 168.086 10.8798C168.014 10.7358 168.014 10.5918 167.942 10.4478C167.942 10.3758 167.942 10.3758 167.87 10.3038C167.87 10.2318 167.798 10.0878 167.798 10.0158C167.726 9.87176 167.726 9.65576 167.654 9.51175V9.43975C167.654 9.36774 167.654 9.29574 167.654 9.22374C167.654 9.15173 167.654 9.07973 167.582 8.93573C167.582 8.86372 167.582 8.79172 167.582 8.71972C167.582 8.64771 167.582 8.64771 167.582 8.57571C167.582 8.50371 167.582 8.50371 167.582 8.4317C167.582 8.2877 167.582 8.14369 167.582 7.99969V7.92768V7.85568C167.582 7.78368 167.582 7.71168 167.582 7.63967C167.582 7.49567 167.582 7.42366 167.582 7.27966C167.582 7.27966 167.582 7.27966 167.582 7.20765C167.582 7.13565 167.582 6.99165 167.582 6.91964C167.582 6.77564 167.582 6.70363 167.582 6.55963C167.582 6.48763 167.582 6.34362 167.582 6.27162C167.582 6.12761 167.582 6.05561 167.582 5.9116C167.582 5.7676 167.582 5.69559 167.654 5.55159C167.654 5.47958 167.654 5.33558 167.726 5.26358C167.726 5.11957 167.798 5.04757 167.798 4.90356C167.798 4.83156 167.798 4.75955 167.87 4.68755V4.61555C167.87 4.61555 167.87 4.61555 167.87 4.54355C167.87 4.39954 167.942 4.32754 167.942 4.18353C167.942 4.11153 167.942 4.11153 168.014 4.03953C168.014 3.96752 168.014 3.96752 168.086 3.89552C168.086 3.82352 168.086 3.82352 168.158 3.75151C168.23 3.60751 168.23 3.53551 168.302 3.3915C168.374 3.24749 168.446 3.10349 168.518 2.95948C168.518 2.95948 168.518 2.95948 168.518 2.88748C168.59 2.81548 168.59 2.74347 168.662 2.67147C168.734 2.59947 168.734 2.52746 168.806 2.45546C168.806 2.45546 168.806 2.45546 168.806 2.38346C168.878 2.31146 168.95 2.16745 168.95 2.09545C169.022 2.02344 169.022 1.95144 169.094 1.87944C169.166 1.80743 169.238 1.73543 169.31 1.59143C169.382 1.51942 169.382 1.44742 169.454 1.44742C169.526 1.37542 169.598 1.30341 169.67 1.15941C169.742 1.08741 169.742 1.08741 169.814 1.0154C169.958 0.871397 170.102 0.799394 170.246 0.727391C170.39 0.655388 170.534 0.583385 170.678 0.511382C170.75 0.511382 170.75 0.439379 170.822 0.439379C170.894 0.367376 170.966 0.367376 171.11 0.295373C171.182 0.295373 171.254 0.295373 171.254 0.22337C171.326 0.22337 171.398 0.151367 171.47 0.151367C171.542 0.151367 171.614 0.151367 171.614 0.151367C171.686 0.151367 171.758 0.151367 171.83 0.151367L222.088 0.367376C222.16 0.367376 222.16 0.367376 222.232 0.367376C222.304 0.367376 222.376 0.367376 222.448 0.367376C222.52 0.367376 222.592 0.367376 222.664 0.439379C222.736 0.439379 222.736 0.439379 222.808 0.511382C222.88 0.511382 222.952 0.583385 223.024 0.583385C223.096 0.583385 223.168 0.655388 223.24 0.655388C223.312 0.655388 223.384 0.727391 223.384 0.727391C223.456 0.799394 223.528 0.799394 223.6 0.871397C223.672 0.943399 223.744 0.943399 223.744 1.0154C223.816 1.08741 223.888 1.15941 223.96 1.23141C224.032 1.30341 224.104 1.37542 224.176 1.44742C224.176 1.44742 224.176 1.44742 224.248 1.51942C224.248 1.51942 224.248 1.51942 224.32 1.59143C224.392 1.66343 224.464 1.73543 224.464 1.73543C224.536 1.87944 224.68 1.95144 224.752 2.09545L224.824 2.16745C224.968 2.31146 225.04 2.52746 225.112 2.67147V2.74347C225.184 2.81548 225.184 2.95948 225.256 3.10349C225.328 3.24749 225.4 3.3915 225.472 3.60751C225.544 3.75151 225.544 3.89552 225.616 3.96752C225.688 4.11153 225.688 4.18353 225.76 4.32754C225.76 4.39954 225.832 4.54355 225.832 4.61555C225.904 4.75955 225.904 4.97556 225.976 5.11957V5.19157C225.976 5.26358 225.976 5.33558 225.976 5.40758C225.976 5.47958 225.976 5.55159 226.048 5.69559C226.048 5.7676 226.048 5.8396 226.048 5.9116C226.048 5.9836 226.048 5.9836 226.048 6.05561C226.048 6.12761 226.048 6.12761 226.048 6.19961C226.048 6.34362 226.048 6.48763 226.048 6.63163V6.70363V6.77564C226.048 6.84764 226.048 6.91964 226.048 6.99165C226.048 7.13565 226.048 7.20765 226.048 7.35166C226.048 7.35166 226.048 7.35166 226.048 7.42366C226.048 7.49567 226.048 7.63967 226.048 7.71168C226.048 7.85568 226.048 7.92768 226.048 8.07169C226.048 8.14369 226.048 8.2877 226.048 8.3597C226.048 8.50371 226.048 8.57571 226.048 8.71972C226.048 8.86372 226.048 8.93573 225.976 9.07973C225.976 9.15173 225.976 9.29574 225.904 9.36774C225.904 9.51175 225.832 9.58375 225.832 9.72776C225.832 9.79976 225.832 9.87176 225.76 9.94377V10.0158C225.76 10.0158 225.76 10.0158 225.76 10.0878C225.76 10.2318 225.688 10.3038 225.688 10.4478C225.688 10.5198 225.688 10.5198 225.616 10.5918C225.616 10.6638 225.616 10.6638 225.544 10.7358C225.544 10.8078 225.544 10.8078 225.472 10.8798C225.4 11.0238 225.4 11.0958 225.328 11.2398C225.256 11.3838 225.184 11.5278 225.112 11.6718C225.112 11.6718 225.112 11.6718 225.112 11.7438C225.04 11.8158 225.04 11.8878 224.968 11.9598C224.896 12.0319 224.896 12.1039 224.824 12.1759C224.824 12.1759 224.824 12.1759 224.824 12.2479C224.752 12.3199 224.68 12.4639 224.68 12.5359C224.752 12.6799 224.752 12.7519 224.68 12.8239Z" fill="url(#paint6_linear)"/>
<path d="M217.984 10.1597C217.048 6.55954 218.056 2.45537 220.288 1.01531C222.448 -0.496748 224.968 1.23132 225.904 4.83147C226.84 8.43162 225.832 12.5358 223.6 13.9758C221.368 15.4879 218.92 13.7598 217.984 10.1597Z" fill="url(#paint7_linear)"/>
<defs>
<linearGradient id="paint0_linear" x1="29.6811" y1="1.46881" x2="29.5223" y2="16.2412" gradientUnits="userSpaceOnUse">
<stop stop-color="#F4EEF7"/>
<stop offset="0.2279" stop-color="#ECEAF3"/>
<stop offset="0.4375" stop-color="#E0E4EE"/>
<stop offset="0.6187" stop-color="#DADEE8"/>
<stop offset="0.8623" stop-color="#C9CDD7"/>
<stop offset="1" stop-color="#BCC1CB"/>
</linearGradient>
<linearGradient id="paint1_linear" x1="63.6883" y1="16.1503" x2="36.0697" y2="-10.5468" gradientUnits="userSpaceOnUse">
<stop stop-color="#BCC1CB"/>
<stop offset="0.5625" stop-color="#E0E4EE"/>
<stop offset="0.7721" stop-color="#ECEAF3"/>
<stop offset="1" stop-color="#F4EEF7"/>
</linearGradient>
<linearGradient id="paint2_linear" x1="85.4847" y1="1.47167" x2="85.3259" y2="16.244" gradientUnits="userSpaceOnUse">
<stop stop-color="#F4EEF7"/>
<stop offset="0.2279" stop-color="#ECEAF3"/>
<stop offset="0.4375" stop-color="#E0E4EE"/>
<stop offset="0.6187" stop-color="#DADEE8"/>
<stop offset="0.8623" stop-color="#C9CDD7"/>
<stop offset="1" stop-color="#BCC1CB"/>
</linearGradient>
<linearGradient id="paint3_linear" x1="119.493" y1="16.1532" x2="91.8744" y2="-10.5439" gradientUnits="userSpaceOnUse">
<stop stop-color="#BCC1CB"/>
<stop offset="0.5625" stop-color="#E0E4EE"/>
<stop offset="0.7721" stop-color="#ECEAF3"/>
<stop offset="1" stop-color="#F4EEF7"/>
</linearGradient>
<linearGradient id="paint4_linear" x1="141.048" y1="1.47452" x2="140.889" y2="16.2469" gradientUnits="userSpaceOnUse">
<stop stop-color="#F4EEF7"/>
<stop offset="0.2279" stop-color="#ECEAF3"/>
<stop offset="0.4375" stop-color="#E0E4EE"/>
<stop offset="0.6187" stop-color="#DADEE8"/>
<stop offset="0.8623" stop-color="#C9CDD7"/>
<stop offset="1" stop-color="#BCC1CB"/>
</linearGradient>
<linearGradient id="paint5_linear" x1="175.055" y1="16.156" x2="147.437" y2="-10.5411" gradientUnits="userSpaceOnUse">
<stop stop-color="#BCC1CB"/>
<stop offset="0.5625" stop-color="#E0E4EE"/>
<stop offset="0.7721" stop-color="#ECEAF3"/>
<stop offset="1" stop-color="#F4EEF7"/>
</linearGradient>
<linearGradient id="paint6_linear" x1="196.851" y1="1.47741" x2="196.692" y2="16.2498" gradientUnits="userSpaceOnUse">
<stop stop-color="#F4EEF7"/>
<stop offset="0.2279" stop-color="#ECEAF3"/>
<stop offset="0.4375" stop-color="#E0E4EE"/>
<stop offset="0.6187" stop-color="#DADEE8"/>
<stop offset="0.8623" stop-color="#C9CDD7"/>
<stop offset="1" stop-color="#BCC1CB"/>
</linearGradient>
<linearGradient id="paint7_linear" x1="230.858" y1="16.1589" x2="203.24" y2="-10.5382" gradientUnits="userSpaceOnUse">
<stop stop-color="#BCC1CB"/>
<stop offset="0.5625" stop-color="#E0E4EE"/>
<stop offset="0.7721" stop-color="#ECEAF3"/>
<stop offset="1" stop-color="#F4EEF7"/>
</linearGradient>
</defs>
</svg>
